<svg width="26" height="25" viewBox="0 0 26 25" fill="none" xmlns="http://www.w3.org/2000/svg">
<path d="M21.3333 13.1579C21.7867 13.1579 22.2267 13.2105 22.6667 13.2763V6.57895H1.33333V23.6842H13.8C13.5067 22.8553 13.3333 21.9737 13.3333 21.0526C13.3333 16.6974 16.92 13.1579 21.3333 13.1579ZM8 13.1579V11.1842C8 10.8158 8.29333 10.5263 8.66667 10.5263H15.3333C15.7067 10.5263 16 10.8158 16 11.1842V13.1579H8ZM24 5.26316H0V0H24V5.26316ZM26 18.75L19.6667 25L16 21.0526L17.5467 19.5263L19.6667 21.6184L24.4533 16.8947L26 18.75Z" fill="#ECB30A"/>
</svg>
