<svg width="30" height="26" viewBox="0 0 30 26" fill="none" xmlns="http://www.w3.org/2000/svg">
<path d="M27.0892 2.92364L27.0891 2.9235C25.7069 1.54001 23.8343 0.761999 21.8812 0.760018C19.9295 0.758039 18.0566 1.53116 16.6719 2.91002L15.0031 4.46814L13.3346 2.91022C11.9509 1.52586 10.0757 0.748764 8.12081 0.750001C6.16448 0.75124 4.28891 1.53188 2.90667 2.91996C1.52446 4.30801 0.748767 6.18976 0.750001 8.15121C0.751236 10.1123 1.52902 11.9928 2.91253 13.379C2.91277 13.3792 2.91301 13.3795 2.91326 13.3797L14.2815 24.9475L14.2816 24.9476C14.3759 25.0433 14.4882 25.1194 14.612 25.1713C14.7359 25.2232 14.8688 25.25 15.0031 25.25C15.1374 25.25 15.2703 25.2232 15.3942 25.1713C15.518 25.1194 15.6303 25.0433 15.7246 24.9476L15.7247 24.9475L27.0892 13.3847C27.0895 13.3845 27.0897 13.3842 27.09 13.384C27.7747 12.6973 28.3179 11.8821 28.6885 10.9849C29.0592 10.0875 29.25 9.12559 29.25 8.15419C29.25 7.1828 29.0592 6.2209 28.6885 5.32344C28.3177 4.42597 27.7743 3.61051 27.0892 2.92364ZM25.5782 12.0263L15.0031 22.7872L4.35253 11.9496L4.35187 11.9489C3.35462 10.9417 2.7959 9.57898 2.79831 8.15922C2.80073 6.73946 3.36408 5.37867 4.36474 4.37489C5.36538 3.37113 6.72172 2.80617 8.13663 2.80353C9.55042 2.80088 10.9078 3.35987 11.9119 4.35839C11.9236 4.37056 11.9361 4.38194 11.9493 4.39247L14.312 6.59944C14.4996 6.77469 14.7465 6.87224 15.0031 6.87224C15.2597 6.87224 15.5066 6.77469 15.6942 6.59945L15.6942 6.59943L18.0569 4.39116C18.0716 4.37944 18.0854 4.36665 18.0982 4.35292L17.9155 4.18233L18.0931 4.35832C18.5894 3.85757 19.1793 3.46007 19.8291 3.18855C20.4788 2.91703 21.1755 2.77684 21.8794 2.77599C22.5832 2.77515 23.2803 2.91366 23.9307 3.18361C24.5811 3.45356 25.172 3.84965 25.6695 4.34919C26.167 4.84874 26.5613 5.44191 26.8298 6.09472C27.0983 6.74753 27.2357 7.4471 27.2341 8.15332C27.2324 8.85953 27.0918 9.55846 26.8203 10.21C26.5488 10.8616 26.1517 11.4529 25.6519 11.9501L25.5782 12.0234V12.0263Z" fill="black" stroke="black" stroke-width="0.5"/>
</svg>
