<svg width="23" height="23" viewBox="0 0 23 23" fill="none" xmlns="http://www.w3.org/2000/svg">
<path d="M11.5 20.7C6.4285 20.7 2.3 16.5715 2.3 11.5C2.3 6.4285 6.4285 2.3 11.5 2.3C16.5715 2.3 20.7 6.4285 20.7 11.5C20.7 16.5715 16.5715 20.7 11.5 20.7ZM11.5 0C9.9898 0 8.49438 0.297456 7.09914 0.875385C5.7039 1.45331 4.43615 2.3004 3.36827 3.36827C1.2116 5.52494 0 8.45001 0 11.5C0 14.55 1.2116 17.4751 3.36827 19.6317C4.43615 20.6996 5.7039 21.5467 7.09914 22.1246C8.49438 22.7025 9.9898 23 11.5 23C14.55 23 17.4751 21.7884 19.6317 19.6317C21.7884 17.4751 23 14.55 23 11.5C23 9.9898 22.7025 8.49438 22.1246 7.09914C21.5467 5.7039 20.6996 4.43615 19.6317 3.36827C18.5639 2.3004 17.2961 1.45331 15.9009 0.875385C14.5056 0.297456 13.0102 0 11.5 0ZM12.65 5.75H10.35V10.35H5.75V12.65H10.35V17.25H12.65V12.65H17.25V10.35H12.65V5.75Z" fill="#1977BB"/>
</svg>
