<svg width="34" height="27" viewBox="0 0 34 27" fill="none" xmlns="http://www.w3.org/2000/svg">
<path d="M4.55566 22.3334C4.55566 23.2764 4.93027 24.1807 5.59706 24.8475C6.26386 25.5143 7.16823 25.8889 8.11122 25.8889C9.05421 25.8889 9.95858 25.5143 10.6254 24.8475C11.2922 24.1807 11.6668 23.2764 11.6668 22.3334C11.6668 21.3904 11.2922 20.486 10.6254 19.8192C9.95858 19.1524 9.05421 18.7778 8.11122 18.7778C7.16823 18.7778 6.26386 19.1524 5.59706 19.8192C4.93027 20.486 4.55566 21.3904 4.55566 22.3334ZM22.3334 22.3334C22.3334 23.2764 22.708 24.1807 23.3748 24.8475C24.0416 25.5143 24.946 25.8889 25.889 25.8889C26.832 25.8889 27.7364 25.5143 28.4032 24.8475C29.07 24.1807 29.4446 23.2764 29.4446 22.3334C29.4446 21.3904 29.07 20.486 28.4032 19.8192C27.7364 19.1524 26.832 18.7778 25.889 18.7778C24.946 18.7778 24.0416 19.1524 23.3748 19.8192C22.708 20.486 22.3334 21.3904 22.3334 22.3334Z" stroke="#ECB30A" stroke-width="2" stroke-linecap="round" stroke-linejoin="round"/>
<path d="M4.55556 22.3333H1V2.77778C1 2.30628 1.1873 1.8541 1.5207 1.5207C1.8541 1.1873 2.30628 1 2.77778 1H18.7778V11.6667H9.88889M9.88889 11.6667L13.4444 15.2222M9.88889 11.6667L13.4444 8.11111M11.6667 22.3333H22.3333M18.7778 2.77778H27.6667L33 11.6667V22.3333H29.4444" stroke="#ECB30A" stroke-width="2" stroke-linecap="round" stroke-linejoin="round"/>
</svg>
