<svg width="33" height="33" viewBox="0 0 33 33" fill="none" xmlns="http://www.w3.org/2000/svg">
<path d="M29.1893 27.0244C30.8831 24.9882 32.0611 22.5743 32.6238 19.987C33.1864 17.3996 33.1171 14.7149 32.4217 12.16C31.7263 9.60508 30.4253 7.25509 28.6287 5.30882C26.8321 3.36256 24.5928 1.87728 22.1002 0.97863C19.6076 0.0799827 16.935 -0.205596 14.3086 0.146052C11.6822 0.4977 9.17917 1.47623 7.01128 2.99886C4.8434 4.5215 3.07443 6.54344 1.85403 8.89365C0.633626 11.2439 -0.00231471 13.8532 6.33068e-06 16.5009C0.000896993 20.3499 1.35839 24.0757 3.83428 27.0244L3.81069 27.0445C3.89325 27.1435 3.9876 27.2283 4.07252 27.3261C4.17867 27.4475 4.29307 27.5618 4.40276 27.6796C4.73299 28.0379 5.07267 28.382 5.42885 28.7049C5.53735 28.8039 5.6494 28.8958 5.75908 28.9901C6.1365 29.3153 6.52452 29.6241 6.9267 29.9116C6.9786 29.947 7.02577 29.9929 7.07767 30.0295V30.0153C9.83998 31.9576 13.1353 33 16.513 33C19.8907 33 23.186 31.9576 25.9483 30.0153V30.0295C26.0002 29.9929 26.0462 29.947 26.0993 29.9116C26.5003 29.6229 26.8895 29.3153 27.2669 28.9901C27.3766 28.8958 27.4886 28.8027 27.5971 28.7049C27.9533 28.3808 28.293 28.0379 28.6232 27.6796C28.7329 27.5618 28.8461 27.4475 28.9534 27.3261C29.0372 27.2283 29.1327 27.1435 29.2153 27.0433L29.1893 27.0244ZM16.5118 7.07334C17.5615 7.07334 18.5876 7.38435 19.4604 7.96705C20.3332 8.54976 21.0135 9.37797 21.4152 10.347C21.8169 11.316 21.922 12.3822 21.7172 13.4109C21.5124 14.4396 21.0069 15.3845 20.2647 16.1261C19.5224 16.8678 18.5767 17.3728 17.5472 17.5775C16.5177 17.7821 15.4506 17.6771 14.4808 17.2757C13.511 16.8743 12.6821 16.1946 12.0989 15.3225C11.5157 14.4505 11.2044 13.4252 11.2044 12.3763C11.2044 10.9699 11.7636 9.62106 12.7589 8.62655C13.7543 7.63204 15.1042 7.07334 16.5118 7.07334ZM7.08474 27.0244C7.1052 25.4771 7.73454 24 8.8366 22.9128C9.93865 21.8255 11.4248 21.2155 12.9736 21.2147H20.05C21.5988 21.2155 23.0849 21.8255 24.187 22.9128C25.2891 24 25.9184 25.4771 25.9389 27.0244C23.3522 29.3534 19.9937 30.6423 16.5118 30.6423C13.0299 30.6423 9.67139 29.3534 7.08474 27.0244Z" fill="#ECB30A"/>
</svg>
