<svg width="32" height="32" viewBox="0 0 32 32" fill="none" xmlns="http://www.w3.org/2000/svg">
<path d="M5.87614 3.6115C12.1604 -1.53892 21.4477 -1.18052 27.3144 4.6867C33.5619 10.9347 33.5619 21.066 27.3144 27.314C21.0669 33.562 10.9365 33.562 4.68903 27.314C2.77208 25.399 1.37321 23.0283 0.623765 20.4243C-0.125677 17.8204 -0.201098 15.0686 0.404584 12.4275L0.527774 11.9267L3.62192 12.7427C2.85485 15.6584 3.14147 18.7512 4.43126 21.4762C5.72105 24.2012 7.93123 26.3834 10.6723 27.6383C13.4133 28.8931 16.5093 29.1401 19.4146 28.3357C22.3199 27.5313 24.8481 25.7271 26.5535 23.241C28.259 20.755 29.0322 17.7467 28.7371 14.7464C28.4419 11.746 27.0972 8.9461 24.94 6.84016C22.7828 4.73421 19.9515 3.45736 16.9451 3.23464C13.9388 3.01192 10.9503 3.85763 8.50632 5.62271L8.15435 5.88831L9.78142 7.51551L2.42842 9.21152L4.12428 1.85789L5.87614 3.6115ZM17.6016 6.40031V9.60032H21.6013V12.8003H12.802C12.6021 12.8 12.4093 12.8745 12.2616 13.0091C12.1138 13.1438 12.0219 13.329 12.0038 13.5281C11.9858 13.7271 12.0429 13.9258 12.164 14.0849C12.285 14.2439 12.4613 14.3519 12.658 14.3875L12.802 14.4003H19.2014C20.2622 14.4003 21.2796 14.8218 22.0296 15.5719C22.7797 16.3221 23.2011 17.3395 23.2011 18.4004C23.2011 19.4612 22.7797 20.4786 22.0296 21.2288C21.2796 21.9789 20.2622 22.4004 19.2014 22.4004H17.6016V25.6004H14.4018V22.4004H10.4022V19.2004H19.2014C19.4013 19.2007 19.5941 19.1262 19.7419 18.9915C19.8896 18.8569 19.9815 18.6717 19.9996 18.4726C20.0176 18.2735 19.9605 18.0749 19.8394 17.9158C19.7184 17.7567 19.5421 17.6488 19.3454 17.6132L19.2014 17.6004H12.802C11.7412 17.6004 10.7239 17.1789 9.97377 16.4288C9.22369 15.6786 8.8023 14.6612 8.8023 13.6003C8.8023 12.5395 9.22369 11.522 9.97377 10.7719C10.7239 10.0218 11.7412 9.60032 12.802 9.60032H14.4018V6.40031H17.6016Z" fill="#ECB30A"/>
</svg>
