<svg width="42" height="42" viewBox="0 0 42 42" fill="none" xmlns="http://www.w3.org/2000/svg">
<circle cx="21" cy="21" r="21" fill="#D55050"/>
<path d="M31.8305 20.01H21.4689V23.013H28.8249C28.452 27.204 24.8701 28.997 21.4802 28.997C17.1525 28.997 13.3559 25.675 13.3559 21C13.3559 16.49 16.9718 13.003 21.4915 13.003C24.9831 13.003 27.0282 15.17 27.0282 15.17L29.1751 12.992C29.1751 12.992 26.4181 10 21.3785 10C14.9605 10 10 15.28 10 21C10 26.555 14.6667 32 21.548 32C27.5932 32 32 27.963 32 22.001C32 20.736 31.8305 20.01 31.8305 20.01Z" fill="white"/>
</svg>
