<svg width="82" height="41" viewBox="0 0 82 41" fill="none" xmlns="http://www.w3.org/2000/svg">
<g clip-path="url(#clip0_353_450)">
<path d="M33.5565 0.513207C39.7422 0.513207 45.928 0.512328 52.1137 0.514086C52.9645 0.514086 53.3254 0.861196 53.3254 1.67493C53.3264 12.6295 53.3273 23.5833 53.3264 34.5379C53.3264 35.3015 52.9112 35.6856 52.0838 35.6856C46.5525 35.6873 41.0213 35.6908 35.49 35.6785C35.1029 35.6776 34.9664 35.7761 34.8879 36.1372C34.3624 38.5275 31.8249 40.4994 29.2192 40.6286C27.2258 40.727 25.5476 40.0952 24.1694 38.7797C23.4317 38.0749 22.9044 37.219 22.6754 36.2392C22.5744 35.8077 22.379 35.668 21.8928 35.6741C19.6031 35.7031 17.3133 35.6873 15.0227 35.6864C14.1139 35.6864 13.7146 35.3094 13.7146 34.457C13.7146 30.0791 13.7156 25.7002 13.7165 21.3222C13.7165 20.7484 13.7156 20.7484 13.1275 20.7484C9.14078 20.7484 5.15408 20.7502 1.16738 20.7466C0.241767 20.7458 -0.284619 19.9654 0.158555 19.2563C0.387622 18.8889 0.754129 18.7773 1.19076 18.7791C2.46699 18.7861 3.74322 18.7791 5.02038 18.78C10.0683 18.7809 15.1152 18.7817 20.1631 18.7835C20.7877 18.7835 21.1729 18.9891 21.3402 19.4004C21.6104 20.0647 21.1299 20.7361 20.3538 20.7431C18.9981 20.7554 17.6424 20.7589 16.2877 20.7414C15.9258 20.7361 15.8174 20.824 15.8183 21.1764C15.8323 25.2169 15.8323 29.2574 15.8192 33.298C15.8183 33.6319 15.9174 33.7101 16.2615 33.7075C18.209 33.6917 20.1566 33.6943 22.1041 33.7066C22.4061 33.7083 22.522 33.6398 22.5912 33.3401C23.471 29.5527 28.1486 27.5693 31.738 29.4411C33.4088 30.3119 34.4887 31.5976 34.9131 33.3533C34.9748 33.6108 35.088 33.7048 35.3797 33.704C40.5211 33.6952 45.6624 33.6917 50.8038 33.7066C51.2339 33.7075 51.2283 33.5203 51.2283 33.2294C51.2236 26.3461 51.2246 19.4637 51.2246 12.5803C51.2246 9.3588 51.218 6.13639 51.2348 2.91486C51.2367 2.53963 51.117 2.46317 50.7402 2.46317C43.2614 2.4746 35.7817 2.47284 28.3029 2.47284C24.3153 2.47284 20.3267 2.47636 16.3391 2.46317C15.9492 2.4623 15.794 2.52293 15.8136 2.93595C15.8538 3.78395 15.8426 4.63459 15.8174 5.48347C15.8071 5.82267 15.9296 5.89209 16.2699 5.89121C20.351 5.88067 24.4322 5.88331 28.5133 5.88506C29.3641 5.88506 29.8381 6.38156 29.6839 7.09687C29.581 7.5758 29.1752 7.84997 28.531 7.85085C26.49 7.85524 24.449 7.85436 22.408 7.85436C18.1707 7.85436 13.9334 7.85261 9.69615 7.85173C9.27074 7.85173 8.83878 7.85524 8.55362 7.48968C8.30679 7.17333 8.25069 6.82094 8.42179 6.45186C8.60504 6.05642 8.95098 5.88682 9.38948 5.88506C10.6517 5.87891 11.9139 5.86573 13.1752 5.89034C13.594 5.89912 13.7371 5.80422 13.7268 5.38944C13.6978 4.16006 13.7146 2.92892 13.7174 1.69953C13.7193 0.848893 14.0877 0.508813 15.0021 0.508813C18.7737 0.507935 22.5445 0.507935 26.3152 0.507935C28.7293 0.507935 31.1433 0.507935 33.5565 0.507935C33.5565 0.509692 33.5565 0.51145 33.5565 0.513207ZM24.5285 34.7549C24.5397 36.9369 26.4423 38.6883 28.7854 38.6733C31.0985 38.6593 32.9749 36.8666 32.9759 34.6715C32.9759 32.5044 31.0947 30.717 28.8069 30.71C26.4012 30.7021 24.5163 32.4842 24.5285 34.7549Z" fill="black"/>
<path d="M54.545 21.2836C54.545 16.6701 54.545 12.0566 54.545 7.4431C54.545 6.77788 54.5468 6.77788 55.2527 6.77788C59.4124 6.77788 63.573 6.79194 67.7327 6.76733C68.6938 6.76206 69.3941 7.10038 69.971 7.79812C72.9217 11.3632 75.8865 14.9187 78.8447 18.4786C79.7255 19.5392 80.5978 20.606 81.4841 21.6614C81.7964 22.034 81.9591 22.4453 81.9591 22.9154C81.961 26.5324 81.9703 30.1494 81.9563 33.7655C81.9526 34.8288 81.026 35.6627 79.8788 35.6785C78.7886 35.6935 77.6975 35.6926 76.6064 35.6803C76.3128 35.6768 76.1978 35.7409 76.1165 36.0397C75.0189 40.082 70.2973 41.8966 66.5481 39.7068C65.1157 38.8702 64.1882 37.6469 63.8002 36.0915C63.7254 35.7936 63.6235 35.6732 63.2645 35.675C60.5072 35.6926 57.75 35.6776 54.9928 35.6935C54.6179 35.6952 54.5337 35.5942 54.5347 35.255C54.5468 30.5975 54.5431 25.9401 54.5431 21.2827C54.5459 21.2836 54.5459 21.2836 54.545 21.2836ZM56.6477 21.143C56.6524 21.143 56.657 21.143 56.6617 21.143C56.6617 25.1703 56.6608 29.1977 56.6636 33.2259C56.6636 33.4412 56.5645 33.7022 56.9927 33.6996C59.1254 33.6873 61.2571 33.6916 63.3897 33.6996C63.6197 33.7004 63.7104 33.6231 63.7637 33.4175C63.86 33.0493 63.9601 32.6767 64.1181 32.3304C65.1952 29.9657 67.7972 28.5254 70.5516 28.7539C73.2321 28.9762 75.5284 30.8612 76.1259 33.3665C76.1978 33.6679 76.3334 33.6996 76.5924 33.6978C77.5115 33.6908 78.4315 33.6758 79.3506 33.7039C79.7638 33.7163 79.8947 33.6231 79.8919 33.2101C79.8704 29.9306 79.8723 26.6501 79.8807 23.3706C79.8816 23.0569 79.7891 22.8135 79.5843 22.5718C78.1173 20.8301 76.6588 19.0823 75.2021 17.3327C72.9105 14.5804 70.6198 11.8272 68.3404 9.06617C68.144 8.82802 67.9393 8.76036 67.6345 8.76124C64.0676 8.76739 60.5016 8.76212 56.9347 8.75157C56.7066 8.75069 56.643 8.80078 56.644 9.01871C56.6496 13.0593 56.6477 17.1007 56.6477 21.143ZM65.7384 34.6486C65.7328 36.8824 67.5924 38.6654 69.9345 38.6742C72.2607 38.683 74.1708 36.8833 74.1736 34.6802C74.1764 32.4798 72.2822 30.7118 69.9177 30.7074C67.6289 30.703 65.743 32.4807 65.7384 34.6486Z" fill="black"/>
<path d="M13.5009 10.1884C16.6629 10.1875 19.825 10.1857 22.987 10.1892C23.8023 10.1901 24.2268 10.5864 24.1679 11.2692C24.1277 11.7376 23.7771 12.0882 23.2806 12.1436C23.1263 12.1612 22.9693 12.1541 22.8141 12.1541C16.5507 12.155 10.2864 12.155 4.0231 12.155C3.37423 12.155 2.98622 11.916 2.83849 11.4283C2.71508 11.0214 2.90675 10.568 3.29195 10.3167C3.53037 10.1611 3.79777 10.1892 4.05956 10.1892C7.20666 10.1875 10.3538 10.1892 13.5009 10.1884Z" fill="black"/>
<path d="M16.8883 14.4925C20.0017 14.4925 23.1151 14.4916 26.2295 14.4934C26.4922 14.4934 26.7606 14.4714 27.0093 14.5865C27.4216 14.7781 27.6394 15.2061 27.5534 15.6533C27.4749 16.062 27.1056 16.3985 26.6736 16.446C26.5502 16.4592 26.4249 16.4556 26.3006 16.4556C20.012 16.4556 13.7234 16.453 7.43481 16.46C6.94115 16.4609 6.54753 16.3449 6.30163 15.9205C5.95382 15.3212 6.36334 14.576 7.08326 14.5048C7.23753 14.4899 7.39461 14.4951 7.54981 14.4951C10.6632 14.4943 13.7758 14.4951 16.8892 14.4951C16.8883 14.4951 16.8883 14.4934 16.8883 14.4925Z" fill="black"/>
<path d="M67.7212 23.3223C65.6035 23.3223 63.4839 23.2836 61.3681 23.3372C60.1152 23.3688 59.184 22.4532 59.1999 21.324C59.2439 18.1631 59.2448 15.0004 59.2008 11.8395C59.1859 10.7393 60.0685 9.79729 61.3242 9.83683C62.8332 9.88517 64.346 9.87198 65.855 9.83947C66.7713 9.81926 67.436 10.111 68.0017 10.8167C70.5467 13.9916 73.1384 17.1341 75.7058 20.2932C76.5903 21.3811 76.2602 22.6834 74.9906 23.2045C74.7082 23.3205 74.4156 23.3196 74.1201 23.3196C71.9865 23.3205 69.8539 23.3205 67.7203 23.3205C67.7212 23.3205 67.7212 23.3214 67.7212 23.3223ZM73.8228 21.3591C73.806 21.1632 73.7059 21.0858 73.632 20.9944C71.2058 18.0146 68.7768 15.0365 66.3571 12.0522C66.2028 11.8624 66.0317 11.8114 65.8008 11.8123C64.4928 11.8167 63.1838 11.8316 61.8767 11.8053C61.4476 11.7965 61.3242 11.9072 61.327 12.3149C61.3457 15.1709 61.3457 18.0269 61.3279 20.8828C61.3251 21.2677 61.4251 21.3714 61.8412 21.3697C65.7054 21.3539 69.5696 21.36 73.4348 21.36C73.5544 21.3591 73.676 21.3591 73.8228 21.3591Z" fill="black"/>
</g>
<defs>
<clipPath id="clip0_353_450">
<rect width="81.9657" height="40.1382" fill="white" transform="translate(0 0.507935)"/>
</clipPath>
</defs>
</svg>
