<svg width="85" height="75" viewBox="0 0 85 75" fill="none" xmlns="http://www.w3.org/2000/svg">
<g clip-path="url(#clip0_353_469)">
<path d="M34.541 33.3257C31.8179 34.4007 29.2923 35.3991 26.764 36.3962C23.9524 37.5049 21.1381 38.6091 18.3271 39.7197C17.9874 39.8534 17.7255 40.0279 17.5955 39.468C16.3732 34.2155 15.1244 28.9677 13.8831 23.7187C13.8633 23.6343 13.8667 23.5451 13.8469 23.322C14.4668 23.6217 14.9939 23.8765 15.521 24.1313C17.425 25.0517 19.3519 25.937 21.224 26.9121C21.9463 27.2883 22.2022 27.103 22.5799 26.5033C27.811 18.1824 35.6219 13.6243 45.9031 13.187C64.979 12.3745 79.1791 29.3684 73.9786 46.5845C69.9588 59.8912 55.2075 68.0406 40.7905 64.9189C38.6963 64.4657 36.6794 63.811 34.7443 62.9313C34.2963 62.7275 34.1437 62.5629 34.4246 62.1013C34.9982 61.1598 35.5241 60.1904 36.0258 59.2126C36.2354 58.8057 36.4318 58.805 36.8361 58.9829C43.7322 62.0314 50.6627 62.0168 57.4707 58.865C72.4392 51.9374 74.8702 32.7867 62.1265 22.6896C51.6426 14.3827 35.6567 16.3097 27.8639 26.8064C27.4019 27.4291 27.0468 28.1082 26.5802 28.7206C26.2565 29.1457 26.3053 29.3716 26.8413 29.6227C29.121 30.6865 31.375 31.7968 33.6388 32.8895C33.8795 33.0059 34.1229 33.1235 34.541 33.3257Z" fill="black"/>
</g>
<defs>
<clipPath id="clip0_353_469">
<rect width="64.5274" height="53.2572" fill="white" transform="matrix(0.900324 0.435221 -0.484002 0.875067 26.7441 0)"/>
</clipPath>
</defs>
</svg>
