<svg width="63" height="49" viewBox="0 0 63 49" fill="none" xmlns="http://www.w3.org/2000/svg">
<g clip-path="url(#clip0_353_461)">
<path d="M0.00279545 30.0284C0.00279545 31.4649 0.00188145 32.9022 0.00188145 34.3386C0.00188145 34.8306 0.0384415 35.4042 0.306244 35.9288C1.03379 37.3524 2.21102 38.0444 3.90558 38.0453C7.22249 38.0461 10.5403 38.0461 13.8572 38.0461H17.4758H20.693C26.4284 38.0461 32.1638 38.0461 37.9 38.0427C37.9055 38.0427 37.911 38.0427 37.9165 38.0427C38.2172 38.0427 38.7537 38.0538 38.9374 38.6918C39.5041 40.658 40.6768 42.4018 42.5231 44.0246C44.5576 45.8122 47.0428 47.2178 50.1212 48.3228C50.3707 48.4121 50.6312 48.4018 50.9419 48.2893C54.3576 47.0538 56.9003 45.5658 58.9449 43.6073C61.2747 41.3758 62.4163 38.9348 62.4364 36.1443C62.452 33.9411 62.4492 31.7001 62.4474 29.5339C62.4456 28.2039 62.4446 26.8739 62.4465 25.5448C62.4474 25.0219 62.2244 24.7222 61.7006 24.5428C60.6815 24.1942 59.6533 23.831 58.7466 23.5107C58.6205 23.4661 58.4788 23.4291 58.328 23.3888C57.924 23.2815 57.4652 23.1604 57.1745 22.8436C56.829 22.4666 56.8839 21.9721 56.9323 21.5359C56.9478 21.3925 56.9634 21.2577 56.9634 21.1384C56.9606 18.2157 56.9625 15.2921 56.9634 12.3694C56.9643 9.49734 56.9661 6.62615 56.9634 3.7541C56.9615 1.55263 55.405 0.0637975 53.0907 0.0500597C50.8076 0.036322 48.4851 0.0380392 46.2394 0.040615C45.3711 0.0414737 44.5028 0.0423323 43.6345 0.0423323C40.069 0.0414737 36.5034 0.0423323 32.937 0.0423323H28.0992V0.0397564H25.4678H18.3669C16.931 0.0397564 15.4951 0.0388978 14.0583 0.0371806C10.7103 0.0346048 7.24626 0.0311703 3.83977 0.0431909C1.60321 0.0509184 0.0302155 1.51742 0.0137635 3.609C-0.00268856 5.68941 5.34475e-05 7.80588 0.00188145 9.85195C0.00279545 10.6462 0.00370945 11.4395 0.00370945 12.2337C0.00370945 15.0663 0.00370945 17.8997 0.00370945 20.7323L0.00279545 30.0284ZM39.4849 24.4646C38.676 24.7428 38.5015 24.9729 38.5005 25.7577C38.5005 26.4386 38.4996 27.1186 38.4996 27.7995C38.4978 30.2671 38.496 32.8189 38.5106 35.3278C38.5115 35.5613 38.4859 35.8266 38.2794 36.0207C38.0737 36.2147 37.7949 36.2413 37.5482 36.2413C37.5472 36.2413 37.5454 36.2413 37.5445 36.2413C28.5754 36.2319 19.4555 36.2319 10.6354 36.2319H4.00338C3.30234 36.2319 2.79233 36.0705 2.44501 35.7399C2.10043 35.411 1.93317 34.9302 1.93317 34.27C1.93408 30.9643 1.93408 27.6595 1.93408 24.3539V18.3436C1.93408 17.995 1.93408 17.7649 2.12237 17.5812C2.31705 17.3897 2.57297 17.3897 2.92577 17.3897C8.13101 17.3888 13.3363 17.3888 18.5406 17.3888H28.0572L28.4685 17.3828H33.1271C36.6771 17.3828 40.2262 17.3828 43.7762 17.3828H45.7733C48.518 17.3837 51.356 17.3837 54.1473 17.3742C54.3402 17.3751 54.6144 17.3948 54.8118 17.5829C55.0083 17.7709 55.0266 18.0293 55.0229 18.2071C55.0028 19.2048 55.0028 20.2248 55.022 21.2405C55.0248 21.3676 55.0312 21.7042 54.7561 21.8845C54.4828 22.064 54.1629 21.948 54.0084 21.8922C53.5304 21.7188 53.0396 21.5496 52.5652 21.3865C52.0853 21.2208 51.589 21.0499 51.1019 20.8731C50.6805 20.7202 50.293 20.7219 49.846 20.8782C46.6635 21.9927 43.4206 23.1089 40.2856 24.1882L39.4849 24.4646ZM59.9293 25.8547C60.3315 25.9921 60.5262 26.254 60.5252 26.6549C60.5216 27.7462 60.5243 28.8573 60.528 29.9314C60.5335 32.0384 60.5399 34.2167 60.4951 36.3598C60.4485 38.6188 59.4184 40.6417 57.3454 42.5452C55.6847 44.0693 53.5971 45.31 50.9639 46.3377C50.8414 46.3858 50.6778 46.4373 50.4904 46.4373C50.3752 46.4373 50.25 46.4176 50.1193 46.366C46.6754 45.0069 44.3584 43.4957 42.6072 41.4685C41.1292 39.7565 40.4062 37.8203 40.4574 35.7141C40.4803 34.8014 40.4739 33.8698 40.4684 32.9692C40.4666 32.6858 40.4647 32.4016 40.4638 32.1183H40.4629L40.4565 31.7319C40.4565 31.306 40.4574 30.881 40.4574 30.4551C40.4593 29.2428 40.4602 27.9892 40.4492 26.7571C40.4446 26.2883 40.6622 25.9947 41.132 25.8333C44.1043 24.8149 47.0967 23.7752 49.9905 22.7689C50.3222 22.6538 50.622 22.6504 50.9346 22.7586C53.8713 23.7752 56.8967 24.8167 59.9293 25.8547ZM1.92768 5.74178C1.94139 5.3142 1.93774 4.87459 1.93408 4.44958C1.93225 4.21174 1.93042 3.97305 1.93134 3.73521C1.93591 2.55806 2.64517 1.88147 3.87816 1.8789C5.60106 1.87461 7.3532 1.87632 9.04776 1.87804C9.94439 1.8789 10.8392 1.8789 11.7367 1.87976C14.54 1.87976 17.3432 1.87976 20.1465 1.8789C23.51 1.8789 26.8744 1.87804 30.2389 1.87804C34.9725 1.87804 39.7061 1.8789 44.4406 1.87976L48.8781 1.88062H49.9841C50.9849 1.87976 52.0195 1.87976 53.0377 1.88405C54.3347 1.89006 54.9983 2.51599 55.0102 3.7438C55.012 3.97477 55.012 4.20487 55.0111 4.43584C55.0102 4.84024 55.0083 5.25753 55.0248 5.66365C55.0284 5.76668 55.0412 6.07922 54.8155 6.29988C54.6116 6.49822 54.3347 6.52569 54.1099 6.52226C50.1943 6.51625 46.2138 6.51797 42.3631 6.51968L38.7601 6.52054C36.3837 6.52054 34.0073 6.52054 31.6309 6.52054H28.4356H6.46113C6.14306 6.52054 5.81767 6.51968 5.49595 6.51968C4.60022 6.51883 3.67434 6.51711 2.76491 6.52655C2.7576 6.52655 2.74937 6.52655 2.74114 6.52655C2.54738 6.52655 2.30791 6.50079 2.12694 6.3265C1.91489 6.12387 1.92494 5.83623 1.92768 5.74178ZM2.14704 8.54343C2.35178 8.34852 2.63969 8.32191 2.89378 8.32191C2.8947 8.32191 2.89561 8.32191 2.89744 8.32191C13.8015 8.33221 24.8883 8.33135 35.6096 8.33135H38.9018H41.1822C45.3912 8.33221 49.7437 8.33221 54.0249 8.31847C54.0294 8.31847 54.0331 8.31847 54.0377 8.31847C54.3119 8.31847 54.5925 8.34681 54.7963 8.54085C55.0065 8.74177 55.0294 9.02339 55.0257 9.24663C55.0028 10.5191 55.0083 11.8156 55.0138 13.0692C55.0156 13.5672 55.0184 14.0643 55.0184 14.5623C55.0184 14.9306 55.0193 15.1745 54.8182 15.3634C54.618 15.5514 54.3585 15.5514 53.9709 15.5514H53.959C47.2229 15.5505 40.4858 15.5505 33.7486 15.5505H28.0974V15.548H22.9296C18.5899 15.548 14.2512 15.548 9.9124 15.548C9.2598 15.548 8.60812 15.5471 7.95552 15.5462C6.27559 15.5445 4.5399 15.5428 2.83254 15.5523C2.82797 15.5523 2.82249 15.5523 2.81701 15.5523C2.60313 15.5523 2.33716 15.5265 2.1443 15.3445C1.94413 15.1556 1.92311 14.892 1.92494 14.7108C1.94505 12.6819 1.94322 10.8874 1.91946 9.22602C1.91671 9.01137 1.94048 8.74005 2.14704 8.54343Z" fill="black"/>
<path d="M47.0662 33.9067C48.0442 34.8598 48.9491 35.7098 49.832 36.5031C50.0422 36.692 50.3018 36.7848 50.5632 36.7659C50.8228 36.747 51.0622 36.6182 51.2368 36.4035C52.3812 34.998 53.5264 33.5547 54.6333 32.1577L55.3983 31.1926C55.529 31.0278 55.5884 30.8612 55.5774 30.6835L55.5765 30.6663C55.5719 30.2997 55.2922 29.9365 54.9248 29.8206C54.4934 29.6849 54.0849 29.824 53.7741 30.2121C52.8573 31.3558 51.9095 32.5389 50.9964 33.7152C50.8941 33.8466 50.682 34.1205 50.3402 34.136C50.0349 34.1497 49.8128 33.9531 49.673 33.8045C49.2909 33.3993 48.8732 33.0249 48.4436 32.6454C48.2316 32.4582 47.9912 32.3647 47.7536 32.3647C47.5177 32.3647 47.2838 32.4565 47.0827 32.6403C46.6887 33 46.6824 33.5324 47.0662 33.9067Z" fill="black"/>
</g>
<defs>
<clipPath id="clip0_353_461">
<rect width="62.4501" height="48.3483" fill="white" transform="translate(0 0.0345459)"/>
</clipPath>
</defs>
</svg>
