<svg width="80" height="58" viewBox="0 0 80 58" fill="none" xmlns="http://www.w3.org/2000/svg">
<g opacity="0.8" filter="url(#filter0_d_353_525)">
<rect x="10" y="6" width="59.9688" height="38" rx="5" fill="#EBEBEB"/>
<g clip-path="url(#clip0_353_525)">
<path d="M30.8999 12C31.6322 12 32.3648 12 33.0971 12C33.1473 12.0552 33.1473 12.0552 33.2244 12.0621C33.9429 12.1264 34.65 12.2564 35.3463 12.4449C37.0483 12.9048 38.5884 13.6885 39.9796 14.77C39.9494 14.8012 39.9219 14.8356 39.8884 14.8629C38.7567 15.7861 37.7954 16.861 37.0241 18.103C35.4742 20.5988 34.8524 23.3169 35.1055 26.2369C35.2046 27.3804 35.4669 28.4911 35.8703 29.5667C36.477 31.1842 37.3691 32.6245 38.5474 33.8876C38.9918 34.3639 39.4778 34.795 39.9773 35.212C39.9396 35.2435 39.9035 35.277 39.8645 35.3062C36.8371 37.5716 33.4445 38.4514 29.7294 37.7804C25.4601 37.0095 22.334 34.6131 20.3424 30.7558C19.6127 29.3434 19.2047 27.8282 19.0551 26.2441C19.0509 26.2001 19.0889 26.1236 18.9951 26.1174C18.9951 25.3515 18.9951 24.5852 18.9951 23.8192C19.0656 23.8274 19.0541 23.7706 19.0561 23.7342C19.0715 23.4525 19.1188 23.1751 19.1604 22.8967C19.2496 22.2965 19.3883 21.7069 19.5703 21.13C19.9783 19.8365 20.566 18.6296 21.3495 17.5196C21.9513 16.667 22.6377 15.8905 23.4232 15.2056C23.9649 14.7332 24.5418 14.3054 25.1551 13.9272C26.0042 13.4039 26.8985 12.9741 27.8453 12.6648C28.8196 12.347 29.816 12.1198 30.8444 12.0621C30.8815 12.0601 30.9271 12.0617 30.8999 12Z" fill="#EA001B"/>
<path d="M60.9734 23.7864C60.9734 24.5963 60.9734 25.406 60.9734 26.2159C60.9652 26.2097 60.9577 26.2028 60.9488 26.1975C60.9479 26.1969 60.9393 26.2041 60.938 26.2087C60.9288 26.2451 60.9167 26.2812 60.9131 26.3183C60.856 26.9067 60.7537 27.4871 60.6166 28.0623C59.3051 33.5576 54.4704 37.6251 48.8427 37.9636C46.5143 38.1037 44.3009 37.6645 42.2118 36.6208C41.4287 36.2294 40.6868 35.7704 40.0083 35.2133C40.0385 35.1818 40.065 35.146 40.0988 35.1191C40.776 34.5796 41.3847 33.9703 41.9396 33.3065C42.9425 32.1068 43.7004 30.7673 44.2114 29.2902C44.6246 28.0955 44.8509 26.866 44.9138 25.6006C44.9555 24.7608 44.9096 23.9292 44.7922 23.1019C44.6246 21.9216 44.2914 20.7856 43.8018 19.6969C43.0097 17.9352 41.8865 16.4207 40.4333 15.1502C40.29 15.0251 40.1267 14.9216 40.0073 14.7696C41.2768 13.7663 42.6874 13.0319 44.233 12.5588C45.0601 12.3057 45.9039 12.1362 46.7661 12.0581C46.8019 12.0548 46.8776 12.0913 46.8717 12C47.6152 12 48.3584 12 49.1018 12C49.0985 12.0043 49.0946 12.0082 49.0917 12.0128C49.089 12.0167 49.0848 12.024 49.0858 12.0246C49.1254 12.0617 49.1769 12.0561 49.2251 12.0604C50.3677 12.1635 51.4808 12.4071 52.548 12.8264C56.2342 14.2749 58.7866 16.857 60.1991 20.5601C60.5825 21.5647 60.8095 22.6101 60.9164 23.6813C60.9193 23.7161 60.8796 23.7943 60.9734 23.7864Z" fill="#F69D1B"/>
<path d="M39.9798 14.7698C39.989 14.7656 39.9981 14.7656 40.0073 14.7695C40.1264 14.9215 40.29 15.0249 40.433 15.15C41.8865 16.4206 43.0094 17.9351 43.8014 19.6968C44.2911 20.7858 44.6243 21.9215 44.7918 23.1017C44.9093 23.9291 44.9555 24.7607 44.9135 25.6005C44.8505 26.8658 44.6243 28.0954 44.211 29.2901C43.7001 30.7675 42.9422 32.107 41.9393 33.3063C41.3844 33.9702 40.776 34.5795 40.0985 35.1189C40.0647 35.1459 40.0378 35.1817 40.008 35.2132L39.9922 35.2155L39.9768 35.2119C39.4773 34.7952 38.9913 34.3638 38.5469 33.8874C37.3689 32.6244 36.4766 31.1841 35.8698 29.5665C35.4665 28.4907 35.2041 27.3803 35.1051 26.2368C34.8519 23.3165 35.474 20.5987 37.0236 18.1029C37.7949 16.8605 38.7558 15.786 39.8879 14.8628C39.9217 14.8355 39.9493 14.801 39.9798 14.7698Z" fill="#FE5A00"/>
</g>
</g>
<defs>
<filter id="filter0_d_353_525" x="0" y="0" width="79.9688" height="58" filterUnits="userSpaceOnUse" color-interpolation-filters="sRGB">
<feFlood flood-opacity="0" result="BackgroundImageFix"/>
<feColorMatrix in="SourceAlpha" type="matrix" values="0 0 0 0 0 0 0 0 0 0 0 0 0 0 0 0 0 0 127 0" result="hardAlpha"/>
<feOffset dy="4"/>
<feGaussianBlur stdDeviation="5"/>
<feComposite in2="hardAlpha" operator="out"/>
<feColorMatrix type="matrix" values="0 0 0 0 0 0 0 0 0 0 0 0 0 0 0 0 0 0 0.25 0"/>
<feBlend mode="normal" in2="BackgroundImageFix" result="effect1_dropShadow_353_525"/>
<feBlend mode="normal" in="SourceGraphic" in2="effect1_dropShadow_353_525" result="shape"/>
</filter>
<clipPath id="clip0_353_525">
<rect width="41.9781" height="26" fill="white" transform="translate(18.9951 12)"/>
</clipPath>
</defs>
</svg>
