<svg width="80" height="58" viewBox="0 0 80 58" fill="none" xmlns="http://www.w3.org/2000/svg">
<g opacity="0.8" filter="url(#filter0_d_353_661)">
<rect x="10" y="6" width="59.9688" height="38" rx="5" fill="#EBEBEB"/>
<path d="M40.4293 39.0001C34.1388 39.0001 27.8491 39.0025 21.5587 38.9984C19.9801 38.9976 18.5617 37.9546 18.1319 36.4155C18.0429 36.0967 18.0045 35.7544 18.0045 35.4227C17.9971 28.4516 17.989 21.4805 18.0069 14.5094C18.011 13.0343 18.7603 11.9435 20.0822 11.297C20.5022 11.0914 21.0039 11 21.5039 11C34.0702 11.004 46.6373 11.004 59.2035 11.0016C60.7894 11.0016 62.2936 12.0851 62.6359 13.6525C62.7258 14.0644 62.7691 14.4601 62.7691 14.8671C62.7732 21.7977 62.7838 28.7283 62.7618 35.659C62.7577 36.9512 62.1269 37.9449 60.97 38.5858C60.4111 38.8957 59.8098 39.0009 59.1766 39.0009C52.9277 38.9992 46.6789 39.0001 40.4293 39.0001ZM40.3991 12.196C34.1772 12.196 27.9545 12.1952 21.7327 12.196C20.1738 12.196 19.2096 13.1395 19.2088 14.6874C19.2055 21.5914 19.2064 28.4953 19.2096 35.3992C19.2105 36.8468 20.2122 37.8324 21.6779 37.8324C34.1772 37.8348 46.6757 37.8356 59.1749 37.8348C60.5721 37.8348 61.595 36.825 61.5958 35.4348C61.5999 28.4904 61.5999 21.546 61.5958 14.6017C61.595 13.1783 60.5852 12.196 59.1471 12.196C52.8975 12.196 46.6487 12.196 40.3991 12.196Z" fill="#E8ECEE"/>
<path d="M40.399 12.1957C46.6486 12.1957 52.8983 12.1957 59.1471 12.1957C60.5859 12.1957 61.595 13.178 61.5958 14.6014C61.599 21.5457 61.5999 28.4901 61.5958 35.4345C61.595 36.8239 60.5712 37.8345 59.1748 37.8345C46.6756 37.8354 34.1771 37.8345 21.6779 37.8321C20.2129 37.8321 19.2104 36.8465 19.2096 35.3989C19.2055 28.495 19.2047 21.5911 19.2087 14.6871C19.2096 13.14 20.1737 12.1965 21.7326 12.1957C27.9545 12.1949 34.1763 12.1957 40.399 12.1957ZM22.7392 29.2945C24.0759 29.2945 25.353 29.2945 26.6308 29.2945C27.3597 29.2945 27.3597 29.2945 27.635 28.6277C27.9316 27.9091 27.9332 27.9358 28.6841 27.901C29.1163 27.8808 29.3737 27.9965 29.4725 28.4286C29.511 28.5969 29.6294 28.7466 29.6695 28.9141C29.7479 29.2394 29.9424 29.3025 30.261 29.3025C36.4273 29.2928 42.5936 29.2823 48.7599 29.3123C49.4903 29.3155 50.0476 29.1715 50.461 28.5654C50.5737 28.4003 50.7461 28.2757 50.8744 28.1195C51.01 27.9545 51.1163 27.952 51.2584 28.1155C51.533 28.4319 51.8353 28.7264 52.1 29.0501C52.2544 29.2386 52.4219 29.2993 52.6597 29.2977C54.2113 29.2888 55.7628 29.2928 57.3152 29.292C57.526 29.292 57.7377 29.292 57.9419 29.292C57.9591 29.148 57.8716 29.1092 57.821 29.0533C56.6216 27.7473 55.4262 26.4381 54.2137 25.1442C53.9874 24.9022 53.9923 24.7663 54.2194 24.5251C55.4262 23.245 56.6134 21.9455 57.8038 20.65C57.8782 20.5691 58.0048 20.506 57.9762 20.336C56.2057 20.336 54.4384 20.3376 52.6719 20.3336C52.5012 20.3328 52.3966 20.4161 52.292 20.5286C51.9979 20.8458 51.7013 21.1622 51.4014 21.4745C51.2413 21.6412 51.1032 21.7278 50.9095 21.4705C50.6669 21.1476 50.3597 20.8733 50.0982 20.5634C49.9528 20.3902 49.7894 20.336 49.5671 20.336C45.7017 20.3401 41.8354 20.3401 37.9699 20.3304C37.7362 20.3295 37.6308 20.4137 37.5516 20.6144C37.389 21.0271 37.2133 21.4349 37.0303 21.8395C36.9298 22.0604 36.8897 22.3169 36.6757 22.5208C36.3758 21.8751 36.0841 21.2682 35.8137 20.6516C35.7205 20.4388 35.6053 20.3522 35.3594 20.3522C32.5553 20.3538 29.752 20.3465 26.9479 20.3287C26.6889 20.3271 26.5753 20.4097 26.4748 20.6451C25.4886 22.9497 24.4861 25.2477 23.4893 27.5482C23.2433 28.1131 23.0023 28.6795 22.7392 29.2945Z" fill="#016CB6"/>
<path d="M22.7388 29.2948C23.0027 28.6807 23.2437 28.1134 23.488 27.5486C24.4848 25.2481 25.4873 22.9501 26.4735 20.6455C26.5748 20.41 26.6876 20.3275 26.9466 20.3291C29.7507 20.3461 32.554 20.3542 35.3581 20.3526C35.6041 20.3526 35.7193 20.4392 35.8124 20.652C36.0829 21.2686 36.3754 21.8763 36.6744 22.5212C36.8877 22.3181 36.9285 22.0616 37.029 21.8399C37.212 21.4353 37.3877 21.0274 37.5503 20.6148C37.6295 20.4141 37.7349 20.3307 37.9686 20.3307C41.8341 20.3405 45.7004 20.3405 49.5659 20.3364C49.7873 20.3364 49.9507 20.3906 50.0969 20.5638C50.3584 20.8737 50.6656 21.148 50.9083 21.4709C51.1019 21.7282 51.24 21.6416 51.4001 21.4749C51.7 21.1626 51.9966 20.8462 52.2907 20.529C52.3953 20.4165 52.4999 20.3332 52.6707 20.334C54.4371 20.338 56.2036 20.3364 57.975 20.3364C58.0036 20.5063 57.8777 20.5686 57.8026 20.6504C56.6121 21.9459 55.4258 23.2454 54.2182 24.5255C53.9902 24.7667 53.9853 24.9034 54.2124 25.1446C55.4249 26.4376 56.6203 27.7477 57.8197 29.0537C57.8712 29.1095 57.9578 29.1476 57.9406 29.2924C57.7356 29.2924 57.5248 29.2924 57.314 29.2924C55.7624 29.2924 54.2108 29.2884 52.6584 29.2981C52.4206 29.2997 52.2531 29.239 52.0987 29.0505C51.834 28.726 51.5317 28.4323 51.2572 28.1159C51.115 27.9524 51.0088 27.9548 50.8731 28.1199C50.7449 28.2761 50.5725 28.4007 50.4597 28.5658C50.0463 29.1727 49.4891 29.3167 48.7586 29.3126C42.5923 29.2827 36.426 29.2932 30.2597 29.3029C29.9411 29.3037 29.7466 29.2406 29.6682 28.9145C29.6282 28.7462 29.5097 28.5965 29.4713 28.429C29.3724 27.9969 29.115 27.8804 28.6828 27.9014C27.932 27.937 27.9303 27.9103 27.6337 28.6281C27.3584 29.2948 27.3584 29.2948 26.6296 29.2948C25.3525 29.2948 24.0755 29.2948 22.7388 29.2948ZM32.2231 27.0388C32.0867 26.9612 32.0777 26.8633 32.0417 26.7815C31.3366 25.1624 30.6266 23.5448 29.9337 21.9208C29.8365 21.6926 29.7352 21.5882 29.4688 21.5995C28.9116 21.623 28.3519 21.6206 27.7947 21.6003C27.5308 21.5906 27.4139 21.6974 27.3159 21.9248C26.4997 23.8191 25.6728 25.7086 24.8492 27.6004C24.6662 28.0204 24.667 28.0204 25.1229 28.0228C25.1638 28.0228 25.2063 28.0147 25.2455 28.0228C26.1696 28.1968 26.7783 27.8974 26.9474 26.9231C26.9907 26.6715 27.1639 26.6254 27.3968 26.6318C27.9001 26.6456 28.4042 26.6326 28.9075 26.6367C29.3013 26.6399 29.7613 26.5291 30.0694 26.6933C30.3823 26.8608 30.406 27.3666 30.5735 27.7161C30.5849 27.7404 30.5906 27.7671 30.5996 27.793C30.6576 27.9743 30.7802 28.0269 30.9706 28.0252C31.8415 28.0155 32.7133 28.0123 33.5843 28.0252C33.8384 28.0293 33.912 27.9435 33.9079 27.7008C33.8948 27 33.903 26.2984 33.903 25.5977C33.903 24.9439 33.903 24.2901 33.903 23.6354C34.0223 23.7123 34.0647 23.8046 34.1064 23.8968C34.689 25.1874 35.2715 26.4781 35.8533 27.7687C35.9129 27.9006 35.9415 28.026 36.1474 28.0438C37.3084 28.1426 37.3076 28.1498 37.7791 27.1125C37.8068 27.051 37.8314 26.9879 37.8591 26.9264C38.3535 25.8251 38.8478 24.7238 39.3413 23.6225C39.4156 24.6696 39.3985 25.7005 39.423 26.7314C39.4336 27.1602 39.1983 27.7477 39.5455 27.9775C39.8585 28.1855 40.4141 28.0277 40.8626 28.0447C41.0857 28.0536 41.1322 27.9548 41.1322 27.7542C41.1322 25.8129 41.1363 23.8709 41.1535 21.9297C41.1559 21.6473 41.0424 21.5971 40.7932 21.602C40.1534 21.6157 39.5128 21.6173 38.8739 21.6012C38.6206 21.5947 38.494 21.6683 38.3935 21.9127C37.9261 23.0464 37.4343 24.1711 36.9473 25.2967C36.8934 25.4205 36.8689 25.5669 36.7218 25.6721C36.1589 24.4519 35.5959 23.2567 35.0566 22.0503C34.9137 21.7298 34.7527 21.5672 34.3646 21.5963C33.7959 21.6384 33.2207 21.6254 32.6504 21.5995C32.3203 21.585 32.2035 21.6659 32.2125 22.0163C32.2378 23.0002 32.2223 23.9842 32.2223 24.969C32.2231 25.6495 32.2231 26.3292 32.2231 27.0388ZM55.0818 28.0333C54.9445 27.8755 54.8775 27.7938 54.8056 27.7161C53.9894 26.8301 53.178 25.94 52.352 25.0628C52.1821 24.8832 52.1886 24.778 52.3553 24.6032C53.1102 23.8078 53.8513 22.9994 54.5948 22.1943C54.7541 22.0219 54.9037 21.8415 55.1079 21.6068C54.4461 21.6068 53.8766 21.6173 53.308 21.602C53.0808 21.5955 52.9297 21.6732 52.7818 21.8366C52.3201 22.3496 51.8356 22.8424 51.3781 23.3587C51.191 23.5699 51.0774 23.6346 50.8617 23.3749C50.4303 22.8546 49.9499 22.3747 49.5103 21.8609C49.3542 21.678 49.1974 21.602 48.9572 21.6028C46.8745 21.6109 44.7918 21.6133 42.71 21.6036C42.4363 21.602 42.3341 21.6578 42.3358 21.9548C42.3497 23.8685 42.3488 25.783 42.3366 27.6967C42.3349 27.988 42.4297 28.0511 42.7083 28.0495C44.7632 28.0374 46.8189 28.039 48.8738 28.0471C49.101 28.0479 49.2562 27.9743 49.4033 27.8124C49.8861 27.2824 50.3886 26.7694 50.8666 26.2353C51.0406 26.0411 51.1436 26.0525 51.307 26.2434C51.7564 26.767 52.2245 27.2743 52.6845 27.789C52.7834 27.899 52.8651 28.0333 53.0391 28.0341C53.6895 28.0341 54.3391 28.0333 55.0818 28.0333Z" fill="#FEFEFE"/>
<path d="M32.2231 27.0388C32.2231 26.3292 32.2231 25.6495 32.2231 24.9697C32.2231 23.9858 32.2386 23.001 32.2133 22.017C32.2043 21.6667 32.3211 21.5858 32.6512 21.6003C33.2215 21.6262 33.7967 21.6392 34.3654 21.5971C34.7543 21.568 34.9145 21.7306 35.0574 22.051C35.5959 23.2575 36.1588 24.4527 36.7226 25.6729C36.8697 25.5677 36.895 25.4221 36.9481 25.2975C37.4351 24.1711 37.9269 23.0471 38.3943 21.9135C38.4948 21.6699 38.6214 21.5955 38.8747 21.6019C39.5145 21.6181 40.1542 21.6165 40.794 21.6027C41.0432 21.5979 41.1567 21.6481 41.1543 21.9305C41.1371 23.8717 41.133 25.8129 41.133 27.7549C41.133 27.9556 41.0865 28.0543 40.8634 28.0454C40.4157 28.0284 39.8601 28.1854 39.5463 27.9783C39.1999 27.7485 39.4344 27.161 39.4238 26.7321C39.3993 25.7012 39.4156 24.6703 39.3421 23.6233C38.8477 24.7246 38.3534 25.8259 37.8599 26.9272C37.8321 26.9886 37.8076 27.0518 37.7799 27.1133C37.3084 28.1506 37.3092 28.1433 36.1482 28.0446C35.9415 28.0268 35.9137 27.9022 35.8541 27.7695C35.2723 26.4789 34.6898 25.1882 34.1072 23.8976C34.0655 23.8053 34.0239 23.7131 33.9038 23.6362C33.9038 24.29 33.9038 24.9439 33.9038 25.5985C33.9038 26.2992 33.8956 27.0008 33.9087 27.7015C33.9127 27.9443 33.8392 28.0301 33.5851 28.026C32.7141 28.0123 31.8423 28.0163 30.9714 28.026C30.781 28.0284 30.6584 27.975 30.6004 27.7938C30.5922 27.7679 30.5865 27.7412 30.5743 27.7169C30.406 27.3673 30.3831 26.8616 30.0702 26.6941C29.7621 26.529 29.3013 26.6399 28.9083 26.6375C28.405 26.6334 27.9009 26.6464 27.3976 26.6326C27.1639 26.6261 26.9915 26.6723 26.9482 26.9239C26.7799 27.8982 26.1704 28.1976 25.2463 28.0236C25.2071 28.0163 25.1646 28.0244 25.1237 28.0236C24.6678 28.0212 24.667 28.0212 24.85 27.6012C25.6736 25.7101 26.5004 23.8199 27.3167 21.9256C27.4147 21.6982 27.5316 21.5922 27.7955 21.6011C28.3527 21.6214 28.9124 21.6238 29.4696 21.6003C29.736 21.589 29.8365 21.6934 29.9345 21.9216C30.6274 23.5456 31.3374 25.1631 32.0425 26.7823C32.0776 26.8632 32.0866 26.9611 32.2231 27.0388ZM28.5897 22.984C28.2947 23.7018 28.0373 24.337 27.7718 24.9673C27.7121 25.1081 27.7366 25.168 27.8919 25.168C28.4124 25.168 28.9328 25.168 29.508 25.168C29.1918 24.4179 28.9075 23.7398 28.5897 22.984Z" fill="#016CB6"/>
<path d="M55.0826 28.033C54.3399 28.033 53.6904 28.0338 53.0408 28.0322C52.8676 28.0322 52.7851 27.897 52.6862 27.787C52.2262 27.2723 51.7581 26.765 51.3087 26.2414C51.1444 26.0505 51.0415 26.0391 50.8683 26.2333C50.3903 26.7674 49.8878 27.2804 49.4049 27.8104C49.2571 27.9723 49.1018 28.0459 48.8755 28.0451C46.8206 28.037 44.7649 28.0362 42.71 28.0475C42.4314 28.0491 42.3358 27.986 42.3383 27.6947C42.3505 25.781 42.3513 23.8665 42.3374 21.9528C42.335 21.6558 42.4379 21.6 42.7117 21.6016C44.7943 21.6113 46.8762 21.6097 48.9588 21.6008C49.199 21.6 49.3559 21.676 49.512 21.8589C49.9516 22.3727 50.432 22.8526 50.8634 23.3729C51.0791 23.6326 51.1927 23.5679 51.3798 23.3567C51.8373 22.8405 52.3218 22.3477 52.7835 21.8346C52.9305 21.6712 53.0825 21.5935 53.3096 21.6C53.8783 21.6154 54.4478 21.6048 55.1096 21.6048C54.9053 21.8395 54.7558 22.0208 54.5965 22.1923C53.853 22.9982 53.1119 23.8058 52.357 24.6012C52.1903 24.7768 52.1846 24.8812 52.3537 25.0608C53.1797 25.9372 53.9919 26.8281 54.8073 27.7141C54.8776 27.7926 54.9454 27.8744 55.0826 28.033ZM47.5102 22.0539C47.5102 22.3193 47.493 22.4545 47.5135 22.5839C47.5723 22.957 47.4595 23.0953 47.0445 23.0792C46.1343 23.0436 45.2216 23.0743 44.3098 23.0646C44.0876 23.0622 43.9715 23.1164 44.0001 23.3551C44.01 23.4352 44.0124 23.5185 44.0001 23.597C43.9479 23.9393 44.0606 24.0745 44.4381 24.055C45.0762 24.0219 45.7168 24.0461 46.3565 24.0461C47.4939 24.0461 47.4873 24.0461 47.4595 25.1693C47.4538 25.4088 47.3958 25.4962 47.1384 25.4913C46.3361 25.4751 45.5329 25.4857 44.7298 25.4857C44.0083 25.4857 44.0247 25.4865 44.0083 26.1808C44.001 26.489 44.0998 26.5708 44.4021 26.5635C45.1906 26.5441 45.9807 26.5562 46.77 26.5578C47.4808 26.5586 47.4808 26.5594 47.5225 27.2626C47.5233 27.2812 47.5535 27.2974 47.6025 27.3484C48.3599 26.54 49.1149 25.7325 49.8715 24.9273C49.9769 24.8149 49.9107 24.7356 49.8347 24.6514C49.0879 23.8171 48.3411 22.9829 47.5102 22.0539Z" fill="#016CB6"/>
<path d="M28.5902 22.9844C28.9081 23.7401 29.1924 24.4182 29.5078 25.1684C28.9326 25.1684 28.4121 25.1684 27.8916 25.1684C27.7372 25.1684 27.7127 25.1085 27.7715 24.9677C28.0387 24.3373 28.2953 23.7029 28.5902 22.9844Z" fill="#FEFEFE"/>
<path d="M47.5102 22.0547C48.3412 22.9836 49.0871 23.8179 49.8339 24.6522C49.9099 24.7363 49.9761 24.8156 49.8707 24.9281C49.1141 25.7332 48.3591 26.5408 47.6017 27.3492C47.5535 27.2982 47.5233 27.282 47.5217 27.2634C47.48 26.5602 47.48 26.5594 46.7692 26.5586C45.9799 26.5578 45.1906 26.5448 44.4014 26.5642C44.0999 26.5715 44.0002 26.4906 44.0075 26.1815C44.0239 25.4864 44.0075 25.4864 44.729 25.4864C45.5321 25.4864 46.3345 25.4759 47.1377 25.4921C47.395 25.4969 47.453 25.4095 47.4588 25.17C47.4857 24.0461 47.4931 24.0469 46.3557 24.0469C45.716 24.0469 45.0754 24.0234 44.4373 24.0558C44.0598 24.0752 43.9471 23.9393 43.9994 23.5978C44.0116 23.5185 44.0083 23.4351 43.9994 23.3558C43.9708 23.1171 44.0876 23.0629 44.309 23.0654C45.2209 23.0751 46.1335 23.0443 47.0437 23.0799C47.4588 23.0961 47.5715 22.9577 47.5127 22.5847C47.4931 22.4552 47.5102 22.3193 47.5102 22.0547Z" fill="#FEFEFE"/>
</g>
<defs>
<filter id="filter0_d_353_661" x="0" y="0" width="79.9688" height="58" filterUnits="userSpaceOnUse" color-interpolation-filters="sRGB">
<feFlood flood-opacity="0" result="BackgroundImageFix"/>
<feColorMatrix in="SourceAlpha" type="matrix" values="0 0 0 0 0 0 0 0 0 0 0 0 0 0 0 0 0 0 127 0" result="hardAlpha"/>
<feOffset dy="4"/>
<feGaussianBlur stdDeviation="5"/>
<feComposite in2="hardAlpha" operator="out"/>
<feColorMatrix type="matrix" values="0 0 0 0 0 0 0 0 0 0 0 0 0 0 0 0 0 0 0.25 0"/>
<feBlend mode="normal" in2="BackgroundImageFix" result="effect1_dropShadow_353_661"/>
<feBlend mode="normal" in="SourceGraphic" in2="effect1_dropShadow_353_661" result="shape"/>
</filter>
</defs>
</svg>
