<svg width="80" height="58" viewBox="0 0 80 58" fill="none" xmlns="http://www.w3.org/2000/svg">
<g opacity="0.8" filter="url(#filter0_d_353_567)">
<rect x="10" y="6" width="59.9688" height="38" rx="5" fill="#EBEBEB"/>
<g clip-path="url(#clip0_353_567)">
<path d="M48.4963 27.1349C48.6126 27.3013 48.7095 27.4296 48.7959 27.5657C48.9679 27.8371 49.2182 27.9731 49.5436 27.9957C49.9409 28.0229 50.3204 27.963 50.6749 27.7819C50.8235 27.7057 50.9551 27.6092 51.0455 27.47C51.1804 27.264 51.1489 27.0564 51.0334 26.8573C50.9204 26.6621 50.7346 26.5852 50.5061 26.5945C50.4238 26.5976 50.3543 26.6342 50.2808 26.6629C49.517 26.96 48.7749 26.9032 48.095 26.4615C47.5636 26.1163 47.4264 25.5774 47.4651 24.9919C47.4934 24.5666 47.6856 24.2035 47.9811 23.8916C48.4664 23.38 49.0712 23.0876 49.7802 22.9702C50.6563 22.8256 51.438 23.0223 52.1534 23.5161C52.5127 23.7641 52.8479 24.0371 53.1604 24.3372C53.2161 24.3908 53.2556 24.4601 53.3122 24.5129C53.405 24.4624 53.3776 24.4056 53.3776 24.3636C53.38 24.072 53.3776 23.7797 53.3792 23.4881C53.3808 23.2012 53.4494 23.1358 53.7522 23.1358C56.6689 23.1351 59.5847 23.1358 62.5014 23.1358C63.187 23.1358 63.8733 23.1358 64.5589 23.1358C64.6235 23.1358 64.6897 23.1327 64.7535 23.1421C64.8956 23.1631 64.9699 23.2447 64.9707 23.3839C64.9723 23.6063 64.9707 23.8287 64.9626 24.051C64.9554 24.2594 64.8722 24.3349 64.6542 24.3434C64.5896 24.3457 64.5242 24.3442 64.4596 24.3442C62.6112 24.3442 60.7637 24.3434 58.9153 24.345C58.6311 24.345 58.6577 24.3154 58.6569 24.5884C58.6553 25.1863 58.6561 25.7843 58.6569 26.3814C58.6569 26.4429 58.644 26.5059 58.6723 26.5665C58.7369 26.5844 58.7595 26.5292 58.7934 26.4996C59.3603 26.0136 59.9409 25.5455 60.5844 25.1552C60.9583 24.9282 61.3483 24.7345 61.7795 24.6265C61.945 24.5852 62.1049 24.5852 62.2697 24.6327C62.6395 24.7384 62.9883 24.8838 63.3008 25.1039C63.5188 25.2571 63.703 25.4414 63.8475 25.6614C63.8943 25.7329 63.9315 25.8084 63.9533 25.8885C63.9904 26.0238 63.9428 26.1513 63.8087 26.2003C63.5439 26.2959 63.3977 26.4973 63.2709 26.7181C63.0909 27.0315 62.9907 27.3729 62.9156 27.7204C62.7445 28.5213 62.6928 29.3316 62.7372 30.1465C62.7509 30.3961 62.7929 30.6433 62.864 30.8852C62.8955 30.9925 62.9358 31.0967 62.9907 31.1946C63.1514 31.4823 63.363 31.571 63.6908 31.4886C63.7046 31.4847 63.7191 31.4816 63.7328 31.4785C64.0728 31.4023 64.0687 31.3704 64.2262 31.7234C64.3247 31.9442 64.336 32.1837 64.2965 32.4209C64.244 32.735 63.9775 32.9652 63.606 33.0204C63.149 33.0888 62.7485 32.9745 62.4118 32.6643C62.1728 32.4442 62.004 32.1798 61.8667 31.8937C61.6245 31.3898 61.513 30.8525 61.4371 30.3066C61.3766 29.872 61.3709 29.4334 61.3322 28.998C61.2724 28.3254 61.2522 27.6536 61.249 26.9794C61.249 26.9607 61.2385 26.9421 61.2296 26.9117C61.144 26.9234 61.0843 26.974 61.0197 27.0136C60.0765 27.5929 59.4814 28.4226 59.1503 29.4389C59.0405 29.7771 58.9565 30.1224 58.9161 30.4754C58.8895 30.7087 58.7337 30.8105 58.5051 30.7234C58.036 30.5446 57.5725 30.3502 57.1057 30.1651C57.0323 30.1364 57.0097 30.0905 57.0129 30.0213C57.0153 29.9661 57.0129 29.9101 57.0129 29.8541C57.0129 28.1022 57.0137 26.3503 57.0121 24.5992C57.0121 24.3178 57.0428 24.3442 56.7432 24.3442C56.2377 24.3434 55.7322 24.3434 55.2275 24.3442C55.0257 24.3442 55.024 24.3465 55.024 24.5363C55.0232 25.2454 55.024 25.9546 55.024 26.6637C55.024 28.8044 55.024 30.9458 55.024 33.0865C55.024 33.1487 55.0273 33.2117 55.0224 33.2739C55.0047 33.5048 54.8214 33.6012 54.613 33.4846C54.3199 33.3205 54.0308 33.1495 53.7401 32.9815C53.6408 32.924 53.5439 32.8641 53.4422 32.8112C53.3622 32.77 53.3275 32.7132 53.3364 32.6262C53.342 32.5709 53.3372 32.515 53.3372 32.4598C53.3372 30.4233 53.3356 28.386 53.3396 26.3496C53.3396 26.1886 53.2984 26.0556 53.2048 25.9235C52.948 25.5595 52.6629 25.2205 52.3335 24.9157C52.0056 24.6125 51.6374 24.3722 51.182 24.2882C50.8719 24.2314 50.5618 24.2408 50.2663 24.3543C49.9473 24.4772 49.7188 24.684 49.6389 25.0199C49.5751 25.2866 49.6728 25.4981 49.8763 25.6707C49.9611 25.7423 50.0628 25.7749 50.1783 25.7384C50.2671 25.7104 50.3567 25.684 50.4448 25.6536C51.0754 25.4351 51.6059 25.558 52.0501 26.0416C52.3206 26.3356 52.5345 26.6668 52.6363 27.0517C52.7461 27.4685 52.696 27.8853 52.5539 28.2842C52.0218 29.774 50.62 30.1262 49.5194 29.8137C48.9905 29.6628 48.6029 29.3222 48.334 28.8635C48.137 28.5268 48.0869 28.1722 48.2444 27.8021C48.3299 27.5976 48.4018 27.3868 48.4963 27.1349Z" fill="#EB1C24"/>
<path d="M19.7753 18.8096C19.6566 19.0848 19.529 19.357 19.42 19.6354C19.0946 20.472 18.8862 21.3367 18.8055 22.2262C18.6375 24.0854 18.879 25.8855 19.6768 27.5993C20.1669 28.6537 20.838 29.5821 21.7779 30.3146C22.5046 30.8814 23.3218 31.2632 24.2553 31.3752C24.8875 31.4514 25.5222 31.432 26.152 31.327C28.2733 30.9724 29.9416 29.5067 30.435 27.485C30.8767 25.6732 30.439 24.0598 29.1075 22.6889C29.0752 22.6555 29.0243 22.6337 29.0219 22.5676C29.164 22.5676 29.3053 22.5552 29.4442 22.5691C31.1351 22.7394 32.6887 23.2651 34.059 24.2503C34.1591 24.3226 34.3045 24.3304 34.3658 24.4548C34.3755 24.4882 34.3949 24.5209 34.3949 24.5543C34.3909 25.0745 34.4296 25.5947 34.3731 26.1165C34.2536 27.2222 33.933 28.2641 33.3775 29.2423C32.3293 31.089 30.7911 32.4094 28.7788 33.2095C27.2551 33.8152 25.6667 33.9583 24.0413 33.7258C23.5414 33.6543 23.0489 33.5477 22.5765 33.3673C22.5644 33.2857 22.499 33.26 22.4311 33.2328C22.0355 33.0758 21.6366 32.9249 21.27 32.7064C21.2159 32.6737 21.1561 32.6473 21.0891 32.6496C21.0552 32.6271 21.0188 32.61 20.9768 32.6092C20.9542 32.5524 20.9074 32.5283 20.8468 32.5252C20.8226 32.4716 20.7774 32.4459 20.7184 32.4405C20.6999 32.4063 20.67 32.3954 20.632 32.3985C20.6167 32.3347 20.5691 32.3137 20.5077 32.3091C20.4786 32.2336 20.4124 32.2025 20.3397 32.1792C20.3131 32.131 20.2679 32.1046 20.2162 32.0859C20.1782 32.0245 20.1177 31.9856 20.062 31.942C19.3764 31.404 18.7635 30.799 18.258 30.0984C17.2293 28.6755 16.6761 27.1001 16.6438 25.3622C16.6366 24.9874 16.6422 24.6126 16.6422 24.237C16.6552 24.0909 16.7173 23.9563 16.7432 23.8125C16.8166 23.412 16.8328 22.9976 17.0177 22.6205C17.0355 22.5847 17.0306 22.5388 17.0363 22.4976C17.1259 22.3475 17.1978 22.1912 17.2091 22.0147L17.2131 22.0093C17.2801 21.9945 17.289 21.9354 17.3124 21.8872C17.4134 21.6773 17.5135 21.4673 17.6136 21.2582C17.7881 20.9269 18.0012 20.619 18.2096 20.308C18.2451 20.2543 18.3186 20.2123 18.2895 20.1307C18.3832 20.1112 18.4114 20.0451 18.4187 19.9635C18.5221 19.9293 18.5778 19.8562 18.5988 19.7559H18.5915C18.7562 19.647 18.8895 19.5039 19.0227 19.3648C19.2391 19.1385 19.4999 18.9643 19.7422 18.7676C19.7535 18.7824 19.764 18.7963 19.7753 18.8096Z" fill="#F6931D"/>
<path d="M22.5772 33.3686C23.0496 33.549 23.5422 33.6555 24.042 33.7271C25.6675 33.9596 27.2566 33.8165 28.7796 33.2108C30.7926 32.4106 32.3301 31.0895 33.3782 29.2436C33.9338 28.2654 34.2544 27.2234 34.3739 26.1177C34.4304 25.5967 34.3908 25.0765 34.3957 24.5556C34.3957 24.5229 34.3771 24.4895 34.3666 24.456C34.369 24.4032 34.3585 24.3238 34.4514 24.3884C34.5442 24.4537 34.6298 24.5299 34.7146 24.6046C34.7736 24.6566 34.8107 24.6442 34.8511 24.5836C34.9472 24.4381 35.0473 24.2951 35.1571 24.1349C35.208 24.1932 35.2169 24.2445 35.2258 24.2959C35.359 25.0657 35.4398 25.8401 35.3929 26.62C35.3219 27.8074 35.0586 28.9512 34.5854 30.0569C33.5567 32.4588 31.0187 35.1065 27.1848 35.8016C23.8321 36.4089 20.8355 35.6174 18.2935 33.409C16.5517 31.8974 15.4972 29.9955 15.1265 27.7615C14.4434 23.6388 16.5065 19.6094 20.309 17.6064C20.3841 17.5667 20.4543 17.5138 20.544 17.5068C20.5521 17.5154 20.5609 17.5232 20.5698 17.5309C20.3397 17.8567 20.0869 18.1678 19.8956 18.5185C19.8721 18.5612 19.8423 18.6024 19.7801 18.5947C19.7591 18.5814 19.7389 18.5737 19.7308 18.6071L19.7486 18.6032C19.7486 18.6032 19.7534 18.6203 19.7526 18.6195C19.571 18.6437 19.4555 18.7502 19.4288 18.9174L19.4232 18.9345L19.4054 18.9337C19.3626 18.9166 19.3198 18.9181 19.2843 18.9454C19.1123 19.0775 18.954 19.2237 18.824 19.3956C18.8103 19.4135 18.8184 19.4469 18.8168 19.4733L18.8176 19.471C18.7877 19.4725 18.774 19.4881 18.7723 19.5161L18.7756 19.513C18.7465 19.5153 18.732 19.5309 18.7295 19.5589L18.7328 19.5557C18.7037 19.5581 18.6884 19.5736 18.6859 19.6008L18.6892 19.597C18.6609 19.6001 18.6456 19.6156 18.6423 19.6428L18.6464 19.6389C18.6181 19.6428 18.6036 19.6592 18.6003 19.6856L18.606 19.6817C18.5285 19.6934 18.4962 19.7361 18.5131 19.8108L18.5139 19.8046C18.4849 19.8069 18.4712 19.8232 18.4695 19.8505L18.4728 19.8473C18.4445 19.8505 18.43 19.8668 18.4275 19.894L18.4324 19.8909C18.3533 19.9002 18.3266 19.9445 18.3411 20.0169L18.3428 20.0137C18.3137 20.0169 18.3 20.0332 18.2983 20.0604L18.3024 20.0573C18.2216 20.0658 18.1974 20.1117 18.2119 20.1833L18.2128 20.1801C18.1837 20.1833 18.17 20.2004 18.1683 20.2268L18.1724 20.2237C18.0932 20.233 18.0698 20.2797 18.0827 20.3504L18.0844 20.3489C18.0036 20.3582 17.9826 20.4056 17.9963 20.4756L17.998 20.4741C17.9164 20.4826 17.8962 20.5316 17.9099 20.6008L17.9116 20.5993C17.8308 20.6094 17.8122 20.6584 17.8244 20.7276L17.8268 20.7237C17.7807 20.7369 17.7686 20.7672 17.7791 20.8092L17.7807 20.8084C17.662 20.8356 17.6402 20.9181 17.6515 21.0191L17.6653 21.0199C17.5409 21.0223 17.528 21.1303 17.4876 21.2042C16.6454 22.7547 16.3248 24.4016 16.5114 26.1403C16.6664 27.5858 17.1872 28.9022 18.0359 30.0997C18.2095 30.3446 18.3767 30.5989 18.6165 30.7941C18.7126 30.9636 18.8523 31.095 19.0114 31.2101C19.0259 31.2241 19.0404 31.2381 19.055 31.2513C19.0687 31.2645 19.0832 31.2785 19.097 31.2917C19.1123 31.3057 19.1268 31.3205 19.1422 31.3345C19.1559 31.3477 19.1704 31.3617 19.1842 31.3749C19.2746 31.4947 19.3739 31.6035 19.5241 31.6579C19.4571 31.5203 19.3424 31.427 19.2173 31.3438C19.2027 31.3298 19.189 31.3166 19.1745 31.3026C19.1599 31.2886 19.1454 31.2746 19.1301 31.2606C19.1155 31.2466 19.1018 31.2334 19.0873 31.2194C19.0727 31.2054 19.0582 31.1914 19.0445 31.1774C18.9355 31.0203 18.7885 30.8967 18.6545 30.7614C18.6302 30.7272 18.6092 30.6906 18.5818 30.6588C18.0408 30.0289 17.6039 29.34 17.268 28.5889C16.6955 27.3082 16.4904 25.9692 16.5744 24.5843C16.5816 24.4685 16.5945 24.3495 16.643 24.2391C16.643 24.6139 16.6373 24.9894 16.6446 25.3642C16.6769 27.1021 17.23 28.6775 18.2588 30.1005C18.7651 30.8003 19.3772 31.406 20.0627 31.9441C20.1184 31.9876 20.179 32.0265 20.2169 32.0879C20.2105 32.0957 20.204 32.1035 20.1976 32.1113C20.1725 32.1074 20.1467 32.1027 20.1217 32.0988C20.095 32.0825 20.0684 32.0654 20.0417 32.0491C20.024 32.0094 19.9925 31.9853 19.9513 31.9721C19.9359 31.9596 19.9206 31.9464 19.9053 31.934C19.8794 31.9161 19.8536 31.8982 19.8277 31.8803C19.7979 31.8243 19.751 31.7862 19.6905 31.7629C19.6719 31.7481 19.6533 31.724 19.6307 31.7551C19.6283 31.7583 19.6525 31.78 19.6638 31.7925C19.6953 31.8477 19.7413 31.8866 19.8027 31.9083C19.8293 31.9247 19.8552 31.941 19.8818 31.9565C19.8972 31.969 19.9125 31.9822 19.9271 31.9946C19.9481 32.0327 19.9795 32.0584 20.0215 32.0716C20.0482 32.0879 20.074 32.1051 20.1007 32.1214C20.1354 32.1704 20.179 32.2022 20.2444 32.1914L20.242 32.1898C20.2565 32.2606 20.3058 32.2823 20.3744 32.2746L20.372 32.2722C20.376 32.2979 20.393 32.3111 20.4172 32.3166L20.4148 32.315C20.4334 32.3795 20.4826 32.4013 20.5472 32.3998L20.5448 32.3982C20.5626 32.4363 20.5949 32.4456 20.6336 32.4417L20.6312 32.4402C20.6457 32.5117 20.6966 32.5304 20.7636 32.5257L20.7612 32.5242C20.7773 32.5926 20.829 32.6105 20.8936 32.6097L20.8912 32.6081C20.9098 32.6439 20.9413 32.6548 20.98 32.6517L20.9784 32.6501C20.997 32.731 21.0729 32.7489 21.1343 32.78C21.4193 32.9262 21.7068 33.07 22.008 33.1828C22.1945 33.2528 22.3738 33.3453 22.5772 33.3686Z" fill="#EC1C24"/>
<path d="M44.9966 27.7227C45.0483 27.6511 45.033 27.5944 45.033 27.5407C45.0338 26.533 45.0338 25.5252 45.0338 24.5167C45.0338 24.4817 45.0314 24.4475 45.033 24.4125C45.0362 24.3332 44.9966 24.2998 44.9159 24.3029C44.8585 24.3052 44.8004 24.3029 44.7423 24.3029C42.7785 24.3029 40.8154 24.3029 38.8516 24.3029C38.787 24.3029 38.7216 24.3029 38.657 24.3029C38.3114 24.3013 38.2541 24.2469 38.2533 23.9156C38.2525 23.7485 38.25 23.5821 38.2549 23.4149C38.2605 23.2166 38.3397 23.1443 38.548 23.1357C38.6053 23.1334 38.6635 23.135 38.7216 23.135C41.4937 23.135 44.265 23.1381 47.0372 23.1318C47.4635 23.1311 47.5628 23.215 47.5418 23.6287C47.5346 23.7741 47.5443 23.9211 47.5386 24.0665C47.5321 24.2516 47.4506 24.3316 47.26 24.3417C47.1373 24.348 47.0145 24.3464 46.8918 24.3433C46.8022 24.341 46.757 24.3721 46.7618 24.4631C46.765 24.5253 46.7618 24.5882 46.7618 24.6504C46.7618 27.4863 46.7618 30.3229 46.7618 33.1587C46.7618 33.2349 46.7658 33.3119 46.7578 33.3881C46.7368 33.584 46.5656 33.6734 46.3815 33.584C46.2918 33.5405 46.2079 33.4853 46.1207 33.4347C45.8178 33.259 45.5167 33.0802 45.2106 32.9106C45.1097 32.8547 45.0725 32.7886 45.0733 32.6774C45.0782 32.1564 45.0782 31.6346 45.075 31.1137C45.0669 30.0639 44.6341 29.1845 43.8847 28.445C43.4148 27.9824 42.8293 27.753 42.1518 27.7584C41.6407 27.7623 41.1812 28.1558 41.1166 28.648C41.1086 28.7102 41.1021 28.7724 41.0964 28.8346C41.0819 28.994 41.1255 29.1409 41.2216 29.2669C41.4945 29.623 42.1914 29.8237 42.6428 29.5064C42.8229 29.3804 42.9375 29.2296 42.9198 28.9994C42.906 28.8214 42.9173 28.6417 42.9173 28.4559C43.8807 28.784 44.1996 29.4294 44.1132 30.0663C44.068 30.396 43.9138 30.6736 43.6699 30.9045C43.3712 31.1875 43.007 31.3477 42.5943 31.3959C42.2035 31.4418 41.8151 31.4084 41.4372 31.2987C40.8364 31.1245 40.3649 30.784 40.075 30.2436C39.6139 29.3874 39.4758 28.494 39.819 27.5656C39.9789 27.1332 40.2518 26.767 40.6031 26.4552C41.1853 25.9373 41.8684 25.8223 42.6178 25.9957C43.3808 26.1722 43.9945 26.5882 44.5121 27.1418C44.6817 27.3245 44.8295 27.5213 44.9966 27.7227Z" fill="#EB1C24"/>
<path d="M22.7935 25.0539C22.8419 24.8494 22.9412 24.6628 23.0365 24.4769C24.2494 22.1154 26.2067 20.6979 28.8924 20.2127C30.0391 20.0059 31.1752 20.0727 32.3 20.3612C32.3558 20.3752 32.4115 20.3892 32.468 20.4024C32.4809 20.4056 32.4955 20.4017 32.5237 20.3993C32.556 20.3402 32.5399 20.271 32.5366 20.2057C32.5173 19.7267 32.4946 19.2477 32.4737 18.7688C32.4688 18.6576 32.4688 18.5464 32.4591 18.436C32.4502 18.3356 32.4914 18.3022 32.5948 18.3038C32.9565 18.3108 33.3159 18.3403 33.672 18.3963C35.0084 18.6055 36.2091 19.1187 37.2831 19.9102C37.3178 19.9359 37.3501 19.9623 37.3856 19.9864C37.4518 20.0308 37.4599 20.0782 37.4115 20.1435C37.3444 20.2337 37.2839 20.3286 37.2209 20.4219C36.4304 21.5758 35.6398 22.7289 34.8485 23.8821C34.8057 23.9443 34.7758 24.0182 34.7088 24.0586C34.6611 24.0633 34.641 24.0298 34.6167 24.0073C33.5387 23.0081 32.2411 22.4179 30.7868 22.1512C28.9142 21.8083 27.1265 22.0742 25.4428 22.9436C24.4956 23.4327 23.697 24.0959 23.0155 24.8937C22.9558 24.9629 22.8936 25.0306 22.833 25.099C22.8201 25.0834 22.8072 25.0687 22.7935 25.0539Z" fill="#F5931D"/>
<path d="M26.3958 18.3472C24.461 19.1201 22.9365 20.337 21.8658 22.0586C20.7926 23.784 20.4527 25.6603 20.6464 27.6564C20.6069 27.6027 20.5633 27.5506 20.5277 27.4946C19.8099 26.3625 19.3609 25.1394 19.2398 23.8159C18.9798 20.9731 19.9116 18.5494 22.0418 16.5619C22.6991 15.9484 23.4541 15.4624 24.2793 15.0783C24.3246 15.0573 24.3706 15.0371 24.4158 15.0145C24.482 14.9811 24.5248 15.0037 24.5547 15.0635C24.5636 15.0822 24.5749 15.1001 24.5854 15.1187C25.1773 16.1685 25.7692 17.2182 26.3611 18.2687C26.3707 18.2874 26.3772 18.3068 26.3958 18.3472Z" fill="#F5931D"/>
<path d="M31.9052 19.8342C29.8849 19.5465 27.9364 19.7899 26.0905 20.653C24.2502 21.513 22.8678 22.845 21.8584 24.551C22.0708 23.1498 22.6845 21.9267 23.6123 20.8451C24.5385 19.7658 25.6988 18.9999 27.0716 18.5209C27.0667 18.4292 27.015 18.3693 26.9795 18.3055C26.7041 17.8172 26.4264 17.3297 26.151 16.8413C26.0622 16.6843 26.0622 16.6812 26.218 16.5816C27.2565 15.9184 28.3918 15.5 29.6281 15.3367C30.2975 15.2481 30.9653 15.2427 31.6347 15.3321C31.8067 15.3554 31.8083 15.3546 31.8131 15.5187C31.8406 16.4082 31.8672 17.297 31.8939 18.1866C31.9084 18.6655 31.923 19.1453 31.9351 19.6243C31.9351 19.6919 31.9545 19.7627 31.9052 19.8342Z" fill="#EB1C24"/>
<path d="M18.8168 19.4727C18.8184 19.4462 18.8104 19.4128 18.8241 19.3949C18.9541 19.2231 19.1124 19.0769 19.2844 18.9447C19.3191 18.9175 19.3627 18.9159 19.4055 18.933C19.2287 19.1321 19.0324 19.3125 18.8168 19.4727Z" fill="#F27C1E"/>
<path d="M19.4287 18.917C19.4554 18.7498 19.57 18.6432 19.7525 18.6191C19.6839 18.7583 19.5458 18.8268 19.4287 18.917Z" fill="#F27C1E"/>
<path d="M22.7937 25.0537C22.8067 25.0685 22.8204 25.084 22.8333 25.0988C22.8212 25.147 22.7832 25.175 22.7202 25.231C22.7493 25.1486 22.7469 25.0934 22.7937 25.0537Z" fill="#F27C1E"/>
<path d="M18.5139 19.8117C18.4977 19.737 18.5292 19.6943 18.6068 19.6826C18.6375 19.7145 18.6028 19.7339 18.5914 19.758H18.5987C18.568 19.772 18.5559 19.814 18.5139 19.8117Z" fill="#F27C1E"/>
<path d="M20.5439 17.5063C20.5528 17.4985 20.5674 17.4829 20.5698 17.4845C20.5924 17.4985 20.5827 17.5148 20.5698 17.5311C20.5601 17.5226 20.552 17.5148 20.5439 17.5063Z" fill="#EC1C24"/>
<path d="M19.73 18.6068C19.7381 18.5733 19.7583 18.5811 19.7793 18.5943C19.768 18.6138 19.751 18.6177 19.73 18.6068Z" fill="#F27C1E"/>
<path d="M19.7432 18.7685C19.7609 18.7592 19.7739 18.7219 19.7989 18.7514C19.8191 18.7755 19.7957 18.795 19.7755 18.8097C19.7642 18.7965 19.7537 18.7825 19.7432 18.7685Z" fill="#F6931D"/>
<path d="M18.6011 19.6863C18.6043 19.6599 18.6197 19.6435 18.6471 19.6396C18.6576 19.6785 18.6487 19.7003 18.6011 19.6863Z" fill="#F27C1E"/>
<path d="M18.644 19.6435C18.6473 19.6163 18.6618 19.6008 18.6909 19.5977C18.699 19.635 18.6877 19.6544 18.644 19.6435Z" fill="#F27C1E"/>
<path d="M18.6865 19.6017C18.6889 19.5745 18.7043 19.559 18.7334 19.5566C18.7423 19.5947 18.7285 19.6111 18.6865 19.6017Z" fill="#F27C1E"/>
<path d="M18.7305 19.5595C18.7321 19.5316 18.7466 19.516 18.7765 19.5137C18.7814 19.5479 18.7709 19.5681 18.7305 19.5595Z" fill="#F27C1E"/>
<path d="M18.7729 19.5158C18.7738 19.4878 18.7883 19.4723 18.8182 19.4707C18.8198 19.5018 18.8085 19.5205 18.7729 19.5158Z" fill="#F27C1E"/>
<path d="M18.6165 30.7929C18.3766 30.5977 18.2095 30.3434 18.0359 30.0985C17.1872 28.901 16.6664 27.5846 16.5113 26.1391C16.3248 24.4004 16.6454 22.7535 17.4876 21.203C17.528 21.1292 17.5409 21.0219 17.6652 21.0195C17.6668 21.0934 17.6152 21.1463 17.5845 21.2077C17.4319 21.4627 17.2906 21.7232 17.2138 22.0109L17.2098 22.0164C17.1169 22.1657 17.041 22.3204 17.037 22.4993C17.0314 22.5405 17.0362 22.5863 17.0184 22.6221C16.8335 23 16.8174 23.4137 16.7439 23.8141C16.7172 23.958 16.6559 24.0925 16.643 24.2387C16.5953 24.3491 16.5816 24.4681 16.5743 24.5839C16.4903 25.9688 16.6962 27.3078 17.2679 28.5885C17.6031 29.3396 18.0407 30.0285 18.5817 30.6584C18.6092 30.6902 18.6302 30.7268 18.6544 30.761C18.6415 30.7711 18.6294 30.782 18.6165 30.7929Z" fill="#F27C1E"/>
<path d="M22.5773 33.3689C22.3739 33.3455 22.1946 33.253 22.0081 33.183C21.7061 33.0703 21.4194 32.9264 21.1344 32.7802C21.073 32.7491 20.9971 32.7305 20.9785 32.6504C21.0157 32.6512 21.0528 32.6512 21.0899 32.6519C21.157 32.6496 21.2167 32.6768 21.2708 32.7087C21.6366 32.9272 22.0355 33.0781 22.432 33.2351C22.4998 33.2616 22.5652 33.2872 22.5773 33.3689Z" fill="#F27C1E"/>
<path d="M17.5835 21.208C17.6142 21.1466 17.6659 21.0937 17.6642 21.0198L17.6505 21.0191C17.7426 20.9763 17.7749 20.9001 17.7797 20.8083L17.7781 20.8091C17.8266 20.7974 17.8508 20.7726 17.8257 20.7236L17.8233 20.7275C17.8968 20.7127 17.917 20.6645 17.9105 20.5992L17.9089 20.6007C17.9759 20.5821 18.0026 20.5385 17.9969 20.474L17.9953 20.4755C18.0607 20.4569 18.0906 20.4141 18.0833 20.3488L18.0817 20.3503C18.1479 20.3325 18.181 20.292 18.1713 20.2236L18.1673 20.2267C18.2117 20.2368 18.215 20.2119 18.2117 20.18L18.2109 20.1832C18.2529 20.1925 18.261 20.1435 18.2949 20.1381L18.2892 20.1318C18.3183 20.2135 18.2456 20.2562 18.2093 20.3091C18.0002 20.6202 17.787 20.9281 17.6134 21.2585C17.6037 21.2422 17.594 21.2251 17.5835 21.208Z" fill="#F6931D"/>
<path d="M17.5838 21.208C17.5943 21.2251 17.604 21.2422 17.6137 21.2593C17.5128 21.4693 17.4127 21.6792 17.3117 21.8892C17.2883 21.9374 17.2794 21.9965 17.2124 22.0112C17.2899 21.7235 17.4312 21.4631 17.5838 21.208Z" fill="#EB1C24"/>
<path d="M17.0371 22.4995C17.042 22.3206 17.1171 22.1659 17.21 22.0166C17.1979 22.1931 17.1268 22.3494 17.0371 22.4995Z" fill="#EB1C24"/>
<path d="M18.5138 19.8115C18.5558 19.8138 18.5679 19.7718 18.5986 19.7578C18.5776 19.8581 18.5219 19.9312 18.4185 19.9654L18.4257 19.9716C18.4282 19.9444 18.4572 19.9195 18.433 19.8908L18.4282 19.8939C18.4726 19.9056 18.4807 19.883 18.4734 19.8472L18.4702 19.8503C18.5098 19.8573 18.5178 19.8356 18.5146 19.8045L18.5138 19.8115Z" fill="#F6931D"/>
<path d="M18.4188 19.9648C18.4124 20.0465 18.3841 20.1126 18.2896 20.132L18.2952 20.1382C18.2968 20.111 18.3219 20.0861 18.3017 20.0574L18.2976 20.0605C18.3413 20.0706 18.3461 20.0465 18.3421 20.0138L18.3404 20.0169C18.3841 20.0286 18.3922 19.9781 18.4253 19.9718L18.4188 19.9648Z" fill="#F6931D"/>
<path d="M20.3406 32.1807C20.4133 32.204 20.4795 32.2351 20.5086 32.3105L20.5038 32.316C20.4739 32.316 20.4448 32.316 20.4149 32.316L20.4173 32.3175C20.4117 32.2942 20.3947 32.2802 20.3721 32.2732L20.3745 32.2755C20.3591 32.2483 20.343 32.2211 20.3276 32.1939L20.3406 32.1807Z" fill="#EC1C24"/>
<path d="M20.5078 32.3105C20.5692 32.3152 20.6168 32.3362 20.6322 32.4L20.6338 32.3984C20.6039 32.3984 20.574 32.3992 20.5441 32.3992L20.5466 32.4007C20.532 32.372 20.5175 32.344 20.5029 32.3152L20.5078 32.3105Z" fill="#EC1C24"/>
<path d="M20.2162 32.0869C20.2679 32.1056 20.3131 32.132 20.3398 32.1802L20.3269 32.1934C20.2986 32.1919 20.2695 32.1911 20.2412 32.1903L20.2436 32.1919C20.2283 32.1647 20.2121 32.1375 20.1968 32.1102C20.2032 32.1025 20.2097 32.0947 20.2162 32.0869Z" fill="#EC1C24"/>
<path d="M20.7192 32.442C20.7782 32.4474 20.8235 32.4723 20.8477 32.5267L20.8501 32.5236C20.8202 32.5236 20.7911 32.5236 20.7612 32.5244L20.7637 32.526C20.7491 32.4972 20.7346 32.4692 20.72 32.4404L20.7192 32.442Z" fill="#EC1C24"/>
<path d="M20.8477 32.5267C20.9082 32.5299 20.9543 32.5532 20.9777 32.6107L20.981 32.6076C20.9511 32.6076 20.9212 32.6076 20.8921 32.6084L20.8945 32.6099C20.88 32.5812 20.8654 32.5532 20.8509 32.5244L20.8477 32.5267Z" fill="#EC1C24"/>
<path d="M20.6326 32.4C20.6706 32.3969 20.7005 32.4078 20.7191 32.442L20.7207 32.4404C20.6908 32.4404 20.6617 32.4404 20.6318 32.4412L20.6343 32.4428C20.6343 32.428 20.6343 32.4132 20.6343 32.3984L20.6326 32.4Z" fill="#EC1C24"/>
<path d="M21.0897 32.651C21.0525 32.6502 21.0153 32.6502 20.9782 32.6494L20.9798 32.651C20.9798 32.6362 20.9798 32.6222 20.9798 32.6074L20.9766 32.6105C21.0194 32.6113 21.0549 32.6292 21.0897 32.651Z" fill="#EC1C24"/>
<path d="M19.0116 31.2096C18.8525 31.0945 18.7128 30.9631 18.6167 30.7936C18.6288 30.7827 18.6417 30.7718 18.6538 30.7617C18.7879 30.897 18.9349 31.0207 19.0439 31.1777C19.0334 31.1878 19.0229 31.1987 19.0116 31.2096Z" fill="#F27C1E"/>
<path d="M19.2167 31.3428C19.3427 31.426 19.4573 31.5193 19.5235 31.6569C19.3734 31.6025 19.274 31.4928 19.1836 31.3739C19.1957 31.3638 19.2062 31.3537 19.2167 31.3428Z" fill="#F27C1E"/>
<path d="M17.781 20.8086C17.7762 20.9003 17.7439 20.9773 17.6518 21.0193C17.6412 20.9182 17.6631 20.8358 17.781 20.8086Z" fill="#F27C1E"/>
<path d="M19.8025 31.9071C19.7411 31.8854 19.6951 31.8465 19.6636 31.7913C19.6725 31.7812 19.6813 31.771 19.6902 31.7617C19.7508 31.7843 19.7977 31.8231 19.8276 31.8791C19.8187 31.8885 19.8098 31.8978 19.8025 31.9071Z" fill="#F27C1E"/>
<path d="M20.6313 32.4412C20.6612 32.4412 20.6903 32.4412 20.7202 32.4404C20.7348 32.4692 20.7493 32.4972 20.7638 32.526C20.6968 32.5314 20.6459 32.5127 20.6313 32.4412Z" fill="#F27C1E"/>
<path d="M20.8501 32.5244C20.8646 32.5532 20.8792 32.5812 20.8937 32.6099C20.8291 32.6107 20.7774 32.5928 20.7612 32.5244C20.7911 32.5244 20.8202 32.5244 20.8501 32.5244Z" fill="#F27C1E"/>
<path d="M18.4252 19.9715C18.3921 19.9777 18.384 20.0283 18.3404 20.0166C18.3266 19.9443 18.3533 19.9 18.4317 19.8906C18.4575 19.9194 18.4284 19.9443 18.4252 19.9715Z" fill="#F27C1E"/>
<path d="M18.3016 20.0566C18.3218 20.0854 18.2968 20.1103 18.2952 20.1375C18.2612 20.143 18.2532 20.1919 18.2111 20.1826C18.1974 20.1111 18.2216 20.0652 18.3016 20.0566Z" fill="#F27C1E"/>
<path d="M18.1726 20.2246C18.1831 20.293 18.1492 20.3327 18.0829 20.3514C18.07 20.2814 18.0934 20.2347 18.1726 20.2246Z" fill="#F27C1E"/>
<path d="M17.9978 20.4736C18.0043 20.5389 17.9768 20.5825 17.9097 20.6004C17.896 20.5312 17.9162 20.483 17.9978 20.4736Z" fill="#F27C1E"/>
<path d="M17.9114 20.5996C17.9179 20.6649 17.8977 20.7131 17.8242 20.7279C17.8121 20.6587 17.8306 20.6089 17.9114 20.5996Z" fill="#F27C1E"/>
<path d="M18.0846 20.3496C18.0911 20.4149 18.062 20.4577 17.9966 20.4764C17.9828 20.4064 18.0038 20.3582 18.0846 20.3496Z" fill="#F27C1E"/>
<path d="M20.1966 32.1111C20.2119 32.1383 20.2281 32.1655 20.2434 32.1927C20.178 32.2028 20.1343 32.1717 20.0996 32.1227C20.1069 32.115 20.1133 32.1072 20.1206 32.0986C20.1465 32.1025 20.1715 32.1064 20.1966 32.1111Z" fill="#F27C1E"/>
<path d="M20.2412 32.1904C20.2695 32.1912 20.2986 32.1928 20.3268 32.1935C20.3422 32.2208 20.3584 32.248 20.3737 32.2752C20.305 32.283 20.2558 32.2612 20.2412 32.1904Z" fill="#F27C1E"/>
<path d="M20.5034 32.3154C20.518 32.3442 20.5325 32.3722 20.547 32.401C20.4824 32.4025 20.4331 32.3807 20.4146 32.3162C20.4436 32.3154 20.4735 32.3154 20.5034 32.3154Z" fill="#F27C1E"/>
<path d="M20.0218 32.0718C19.9798 32.0578 19.9474 32.0329 19.9272 31.994C19.9353 31.9863 19.9434 31.9785 19.9507 31.9707C19.9919 31.9839 20.0234 32.008 20.0412 32.0477C20.0347 32.0562 20.0282 32.064 20.0218 32.0718Z" fill="#F27C1E"/>
<path d="M19.6637 31.7927C19.6516 31.7795 19.6281 31.7585 19.6305 31.7554C19.6532 31.7243 19.6717 31.7484 19.6903 31.7631C19.6806 31.7725 19.6726 31.7826 19.6637 31.7927Z" fill="#F27C1E"/>
<path d="M19.8268 31.8789C19.8527 31.8968 19.8785 31.9147 19.9044 31.9326C19.8963 31.9403 19.8882 31.9481 19.8809 31.9559C19.8543 31.9396 19.8284 31.9232 19.8018 31.9077C19.8098 31.8976 19.8187 31.8882 19.8268 31.8789Z" fill="#F27C1E"/>
<path d="M17.827 20.7236C17.852 20.7734 17.8278 20.7975 17.7793 20.8092C17.7688 20.7672 17.7817 20.7369 17.827 20.7236Z" fill="#F27C1E"/>
<path d="M20.1007 32.1219C20.074 32.1056 20.0481 32.0885 20.0215 32.0722C20.0279 32.0644 20.0344 32.0566 20.0409 32.0488C20.0675 32.0652 20.0942 32.0823 20.1209 32.0986C20.1144 32.1056 20.1071 32.1141 20.1007 32.1219Z" fill="#F27C1E"/>
<path d="M20.98 32.6074C20.98 32.6222 20.98 32.6362 20.98 32.651C20.9412 32.6549 20.9097 32.644 20.8911 32.6074C20.921 32.6074 20.9501 32.6074 20.98 32.6074Z" fill="#F27C1E"/>
<path d="M20.6338 32.3984C20.6338 32.4132 20.6338 32.428 20.6338 32.4428C20.5942 32.4466 20.5619 32.4373 20.5449 32.3992C20.5748 32.3984 20.6039 32.3984 20.6338 32.3984Z" fill="#F27C1E"/>
<path d="M19.1421 31.3336C19.1267 31.3196 19.1122 31.3049 19.0977 31.2909C19.109 31.2808 19.1195 31.2707 19.13 31.2598C19.1445 31.2738 19.1591 31.2878 19.1736 31.3018C19.1631 31.3126 19.1526 31.3235 19.1421 31.3336Z" fill="#F27C1E"/>
<path d="M19.1841 31.3743C19.1704 31.3611 19.1558 31.3471 19.1421 31.3338C19.1526 31.3237 19.1631 31.3128 19.1736 31.3027C19.1881 31.3167 19.2019 31.3299 19.2164 31.3439C19.2059 31.3541 19.1954 31.3642 19.1841 31.3743Z" fill="#F27C1E"/>
<path d="M19.9045 31.9326C19.9198 31.9451 19.9352 31.9583 19.9505 31.9707C19.9424 31.9785 19.9352 31.9863 19.9271 31.994C19.9117 31.9816 19.8972 31.9684 19.8818 31.9559C19.8891 31.9482 19.8972 31.9404 19.9045 31.9326Z" fill="#F27C1E"/>
<path d="M18.2129 20.1807C18.2161 20.2125 18.2129 20.2374 18.1685 20.2273C18.1701 20.2009 18.1838 20.1838 18.2129 20.1807Z" fill="#F27C1E"/>
<path d="M18.3418 20.0137C18.3458 20.0463 18.3402 20.0704 18.2974 20.0603C18.299 20.0331 18.3135 20.0168 18.3418 20.0137Z" fill="#F27C1E"/>
<path d="M20.3711 32.2734C20.3945 32.2804 20.4107 32.2937 20.4163 32.3178C20.3921 32.3123 20.3751 32.2991 20.3711 32.2734Z" fill="#F27C1E"/>
<path d="M18.4735 19.8477C18.4799 19.8826 18.4727 19.9052 18.4282 19.8943C18.4298 19.8671 18.4444 19.8508 18.4735 19.8477Z" fill="#F27C1E"/>
<path d="M18.5147 19.8057C18.5179 19.8368 18.509 19.8585 18.4702 19.8515C18.4718 19.8243 18.4856 19.808 18.5147 19.8057Z" fill="#F27C1E"/>
<path d="M19.0444 31.1768C19.0589 31.1908 19.0734 31.2048 19.0872 31.2187C19.0767 31.2296 19.0662 31.2397 19.0549 31.2506C19.0403 31.2366 19.0258 31.2226 19.0112 31.2086C19.0225 31.1985 19.033 31.1876 19.0444 31.1768Z" fill="#F27C1E"/>
<path d="M19.0872 31.2188C19.1017 31.2327 19.1154 31.246 19.13 31.26C19.1195 31.2701 19.1082 31.2802 19.0977 31.2903C19.0839 31.2771 19.0694 31.2631 19.0557 31.2499C19.0662 31.2405 19.0767 31.2296 19.0872 31.2188Z" fill="#F27C1E"/>
</g>
</g>
<defs>
<filter id="filter0_d_353_567" x="0" y="0" width="79.9688" height="58" filterUnits="userSpaceOnUse" color-interpolation-filters="sRGB">
<feFlood flood-opacity="0" result="BackgroundImageFix"/>
<feColorMatrix in="SourceAlpha" type="matrix" values="0 0 0 0 0 0 0 0 0 0 0 0 0 0 0 0 0 0 127 0" result="hardAlpha"/>
<feOffset dy="4"/>
<feGaussianBlur stdDeviation="5"/>
<feComposite in2="hardAlpha" operator="out"/>
<feColorMatrix type="matrix" values="0 0 0 0 0 0 0 0 0 0 0 0 0 0 0 0 0 0 0.25 0"/>
<feBlend mode="normal" in2="BackgroundImageFix" result="effect1_dropShadow_353_567"/>
<feBlend mode="normal" in="SourceGraphic" in2="effect1_dropShadow_353_567" result="shape"/>
</filter>
<clipPath id="clip0_353_567">
<rect width="49.974" height="21" fill="white" transform="translate(14.9976 15)"/>
</clipPath>
</defs>
</svg>
