<svg width="35" height="31" viewBox="0 0 35 31" fill="none" xmlns="http://www.w3.org/2000/svg">
<path d="M20 0C16.0218 0 12.2064 1.63303 9.3934 4.53984C6.58035 7.44666 5 11.3891 5 15.5H0L6.48333 22.1994L6.6 22.4405L13.3333 15.5H8.33333C8.33333 8.835 13.55 3.44444 20 3.44444C26.45 3.44444 31.6667 8.835 31.6667 15.5C31.6667 22.165 26.45 27.5555 20 27.5555C16.7833 27.5555 13.8667 26.195 11.7667 24.0078L9.4 26.4533C10.789 27.8966 12.4408 29.0414 14.2601 29.8217C16.0794 30.6021 18.0302 31.0025 20 31C23.9782 31 27.7936 29.367 30.6066 26.4601C33.4196 23.5533 35 19.6108 35 15.5C35 11.3891 33.4196 7.44666 30.6066 4.53984C27.7936 1.63303 23.9782 6.12565e-08 20 0ZM18.3333 8.61111V17.2222L25.4167 21.5622L26.7 19.3578L20.8333 15.7583V8.61111H18.3333Z" fill="#999999"/>
</svg>
