<svg width="28" height="32" viewBox="0 0 28 32" fill="none" xmlns="http://www.w3.org/2000/svg">
<path d="M9 7C9 5.67392 9.52678 4.40215 10.4645 3.46447C11.4021 2.52678 12.6739 2 14 2C15.3261 2 16.5979 2.52678 17.5355 3.46447C18.4732 4.40215 19 5.67392 19 7V9.78H21V7C21 6.08075 20.8189 5.1705 20.4672 4.32122C20.1154 3.47194 19.5998 2.70026 18.9497 2.05025C18.2997 1.40024 17.5281 0.884626 16.6788 0.532843C15.8295 0.18106 14.9193 0 14 0C13.0807 0 12.1705 0.18106 11.3212 0.532843C10.4719 0.884626 9.70026 1.40024 9.05025 2.05025C8.40024 2.70026 7.88463 3.47194 7.53284 4.32122C7.18106 5.1705 7 6.08075 7 7V9.78H9V7Z" fill="#ECB30A"/>
<path d="M21 9.77979V12.8798C21 13.145 20.8946 13.3994 20.7071 13.5869C20.5196 13.7744 20.2652 13.8798 20 13.8798C19.7348 13.8798 19.4804 13.7744 19.2929 13.5869C19.1054 13.3994 19 13.145 19 12.8798V9.77979H9V12.8798C9 13.145 8.89464 13.3994 8.70711 13.5869C8.51957 13.7744 8.26522 13.8798 8 13.8798C7.73478 13.8798 7.48043 13.7744 7.29289 13.5869C7.10536 13.3994 7 13.145 7 12.8798V9.77979H0V29.7798C0 30.3102 0.210714 30.8189 0.585786 31.194C0.960859 31.5691 1.46957 31.7798 2 31.7798H26C26.5304 31.7798 27.0391 31.5691 27.4142 31.194C27.7893 30.8189 28 30.3102 28 29.7798V9.77979H21Z" fill="#ECB30A"/>
</svg>
