<svg width="32" height="32" viewBox="0 0 32 32" fill="none" xmlns="http://www.w3.org/2000/svg">
<path d="M12.7363 28.8C12.7363 30.56 11.3035 32 9.55224 32C7.801 32 6.36816 30.56 6.36816 28.8C6.36816 27.04 7.801 25.6 9.55224 25.6C11.3035 25.6 12.7363 27.04 12.7363 28.8ZM25.4726 25.6C23.7214 25.6 22.2886 27.04 22.2886 28.8C22.2886 30.56 23.7214 32 25.4726 32C27.2239 32 28.6567 30.56 28.6567 28.8C28.6567 27.04 27.2239 25.6 25.4726 25.6ZM9.87065 20.48V20.32L11.3035 17.6H23.0846C24.199 17.6 25.3134 16.96 25.791 16L32 4.8L29.2935 3.2L23.0846 14.4H11.9403L5.25373 0H0V3.2H3.18408L8.91542 15.36L6.68657 19.2C6.52736 19.68 6.36816 20.16 6.36816 20.8C6.36816 22.56 7.801 24 9.55224 24H28.6567V20.8H10.1891C10.0299 20.8 9.87065 20.64 9.87065 20.48ZM17.5124 11.68L16.5572 10.88C13.3731 7.84 11.1443 5.92 11.1443 3.52C11.1443 1.6 12.7363 0 14.6468 0C15.7612 0 16.8756 0.48 17.5124 1.28C18.1493 0.48 19.2637 0 20.3781 0C22.2886 0 23.8806 1.44 23.8806 3.52C23.8806 5.92 21.6517 7.84 18.4677 10.88L17.5124 11.68Z" fill="#ECB30A"/>
</svg>
