<svg width="30" height="30" viewBox="0 0 30 30" fill="none" xmlns="http://www.w3.org/2000/svg">
<path d="M27.9377 26.5668L29.3752 23.3653L21.4596 11.2679C21.4596 11.2679 22.666 9.4088 24.1976 6.52567C25.1125 4.68655 25.3735 2.59135 24.9373 0.587276L24.939 0.597043L24.7394 0.48182C22.7972 1.10228 21.1219 2.36607 19.9892 4.06514L19.9747 4.08761C18.2443 6.85442 17.2368 8.82983 17.2368 8.82983L2.80343 8.02412L0.74964 10.8698L9.62132 12.9492L13.8191 14.519C12.1535 17.0849 10.894 19.8927 10.0853 22.8424L10.1487 22.6413L6.46174 22.119L5.31956 24.0974L9.68764 25.4456C9.65941 25.8871 9.65706 26.2583 9.67185 26.6278L9.67105 26.5759L9.49191 26.8862C9.55623 26.8559 9.62088 26.8199 9.68473 26.7878C9.6906 26.8586 9.69064 26.932 9.69697 27.0046L9.87611 26.6943C10.1575 26.5487 10.4779 26.3611 10.7891 26.1564L10.8467 26.1148L14.1984 29.2235L15.3406 27.2452L13.0447 24.3133C14.6533 22.6997 16.2081 20.6779 17.511 18.4212C17.7809 17.9536 18.037 17.4823 18.2779 17.0067L18.2444 17.0724L21.7038 19.9236L27.9394 26.5663L27.9377 26.5668Z" fill="#ECB30A"/>
</svg>
