<svg width="80" height="58" viewBox="0 0 80 58" fill="none" xmlns="http://www.w3.org/2000/svg">
<g opacity="0.8" filter="url(#filter0_d_353_636)">
<rect x="10" y="6" width="59.9688" height="38" rx="5" fill="#EBEBEB"/>
<g clip-path="url(#clip0_353_636)">
<path d="M43.9648 27.4885C43.9648 28.6092 43.9648 29.73 43.9648 30.8508C43.9648 31.0638 43.9637 31.0584 43.751 31.0486C43.577 31.041 43.402 31.0377 43.2291 31.053C43.115 31.0627 43.0806 31.0247 43.084 30.9247C43.0851 30.8768 43.084 30.829 43.084 30.7801C43.084 29.7985 43.0939 28.8158 43.0795 27.8342C43.074 27.4526 43.0629 27.0678 42.9798 26.6895C42.8479 26.0883 42.5045 25.7611 41.966 25.7274C41.3388 25.6883 40.838 25.997 40.6341 26.5471C40.5255 26.8406 40.4701 27.1417 40.4701 27.4548C40.4735 28.5755 40.4712 29.6963 40.4712 30.8171C40.4712 31.0573 40.4701 31.053 40.2341 31.0464C40.0602 31.041 39.8851 31.041 39.7123 31.0562C39.6014 31.066 39.5605 31.029 39.5582 30.929C39.5571 30.8812 39.5571 30.8334 39.5571 30.7855V22.0597C39.5571 22.0118 39.5582 21.964 39.5582 21.9151C39.5582 21.8183 39.6103 21.7781 39.7045 21.7933C39.9106 21.8281 40.1145 21.8292 40.3206 21.7933C40.4125 21.7781 40.4679 21.8151 40.469 21.9129C40.469 21.9662 40.4701 22.0195 40.4701 22.0727V26.1372C40.6319 25.9318 40.7926 25.7405 40.9743 25.5644C41.5815 24.9752 42.6208 24.9002 43.2923 25.4187C43.6346 25.6829 43.7731 26.0677 43.8585 26.4721C43.9305 26.8069 43.9648 27.146 43.9648 27.4885Z" fill="black"/>
<path d="M38.0344 29.8066C37.8261 30.5893 37.086 31.0774 36.3081 31.1448C35.8261 31.1861 35.3829 31.0784 34.9519 30.8839C34.809 30.8197 34.7403 30.7469 34.8068 30.5751C34.8732 30.4023 34.8987 30.2131 34.943 30.0327C34.9575 29.974 34.9419 29.8892 35.0284 29.8783C35.1081 29.8675 35.1314 29.9479 35.1658 29.9979C35.3009 30.199 35.4494 30.386 35.6522 30.5295C36.0056 30.7795 36.3802 30.8458 36.7702 30.6447C37.1547 30.4469 37.3574 30.1294 37.3718 29.6903C37.3918 29.0793 37.086 28.8217 36.5242 28.6086C36.245 28.5021 35.9547 28.4304 35.6788 28.314C35.2045 28.1151 34.9153 27.7738 34.8433 27.2726C34.7824 26.8487 34.8045 26.428 34.994 26.0345C35.3165 25.3659 35.8882 25.0942 36.6139 25.0833C36.9718 25.0702 37.3042 25.1605 37.6289 25.2953C37.7707 25.354 37.8272 25.4322 37.763 25.592C37.6898 25.7747 37.6499 25.9703 37.5934 26.1595C37.579 26.2084 37.5768 26.2769 37.5081 26.2801C37.4416 26.2834 37.4283 26.2171 37.4062 26.1703C37.3109 25.9692 37.1879 25.7877 37.0084 25.6507C36.4854 25.2529 35.6854 25.5833 35.5768 26.2367C35.5214 26.5682 35.5602 26.8769 35.7785 27.1433C35.9469 27.3487 36.194 27.4476 36.4344 27.5477C36.6394 27.6324 36.8488 27.7075 37.0594 27.7814C38.0765 28.139 38.266 28.9391 38.0344 29.8066Z" fill="black"/>
<path d="M28.5245 31.0385C28.4868 31.0928 28.427 31.0602 28.3738 31.057C28.0802 31.0363 27.7865 31.0298 27.494 31.0591C27.3843 31.07 27.3201 31.045 27.268 30.9537C26.3638 29.3992 25.2669 27.9697 24.2664 26.4783C24.2575 26.4652 24.2475 26.4522 24.2375 26.4391C24.201 26.3924 24.1611 26.3304 24.0968 26.3467C24.0171 26.3663 24.0503 26.4446 24.0503 26.4978C24.0481 27.9067 24.0492 29.3155 24.0492 30.7243C24.0492 31.0472 24.0492 31.0461 23.7279 31.045C23.5484 31.045 23.3689 31.0439 23.1905 31.0559C23.0985 31.0613 23.073 31.0233 23.0719 30.9472C23.0708 30.8939 23.0708 30.8406 23.0708 30.7874V22.0452C23.0708 21.7843 23.0708 21.7898 23.3301 21.8126C23.4918 21.8267 23.6558 21.83 23.8187 21.8039C24.0204 21.7713 24.0503 21.7941 24.0503 21.993C24.0514 23.2529 24.0503 24.5129 24.0525 25.7717C24.0525 25.8423 24.0137 25.9445 24.0935 25.976C24.181 26.0108 24.2531 25.9282 24.3129 25.8684C24.6519 25.5358 24.9278 25.152 25.2181 24.7792C25.9627 23.8215 26.7084 22.8638 27.4519 21.9061C27.5173 21.8224 27.5915 21.7734 27.7012 21.7952C27.8796 21.83 28.0569 21.83 28.2353 21.7963C28.2763 21.7887 28.3295 21.7745 28.3538 21.8202C28.3804 21.8691 28.3272 21.8952 28.3007 21.9256C27.6392 22.7225 26.9821 23.5236 26.3129 24.315C25.9073 24.7955 25.5295 25.2966 25.1273 25.7793C25.0519 25.8706 25.0475 25.938 25.1206 26.0434C25.9838 27.286 26.8968 28.4948 27.7411 29.7503C27.996 30.1286 28.2397 30.5134 28.4879 30.8961C28.5134 30.9385 28.561 30.9852 28.5245 31.0385Z" fill="black"/>
<path d="M16.9966 21.7861C17.1683 21.7916 17.3379 21.8361 17.5118 21.8166C17.5384 21.8133 17.5661 21.8177 17.5938 21.8155C17.8797 21.7981 17.8797 21.7981 17.8797 22.0796C17.8797 23.4146 17.8797 24.7484 17.8797 26.0833C17.8797 26.1409 17.8797 26.1996 17.8797 26.2877C18.0503 26.0539 18.2032 25.8409 18.3883 25.6539C18.8304 25.2071 19.3722 25.0147 19.9938 25.0875C20.6253 25.1615 21.1096 25.4854 21.4409 26.0235C21.7489 26.5236 21.8841 27.0682 21.9339 27.6476C21.9971 28.39 21.8652 29.0945 21.5472 29.7587C21.2115 30.4609 20.6785 30.9762 19.8752 31.1305C19.1783 31.2642 18.457 31.0588 18.0093 30.4C17.9506 30.3141 17.9185 30.3098 17.8464 30.3837C17.6703 30.5653 17.4808 30.7348 17.3068 30.9186C17.2182 31.012 17.1273 31.0675 16.9966 31.0414C16.9966 27.9585 16.9966 24.8723 16.9966 21.7861ZM20.981 28.0487C20.9744 27.8183 20.9633 27.6541 20.9511 27.491C20.9179 27.0551 20.8126 26.6431 20.5943 26.2627C20.3439 25.8257 19.9439 25.6028 19.4475 25.6083C18.9921 25.6126 18.6209 25.8191 18.3661 26.2116C18.0437 26.7094 17.9351 27.2671 17.8841 27.8378C17.8531 28.1889 17.8287 28.5411 17.8719 28.8988C17.9306 29.3858 18.0481 29.8424 18.3373 30.25C18.5977 30.6174 19.1605 30.8229 19.6015 30.7294C20.0569 30.6327 20.3439 30.3413 20.5478 29.9641C20.8835 29.3456 20.9666 28.6694 20.981 28.0487Z" fill="#D02053"/>
<path d="M65.9712 23.0353C65.0117 23.0342 64.0532 23.1005 63.0737 23.0592C63.1735 22.7842 63.2698 22.5113 63.3707 22.2407C63.5169 21.8493 63.6698 21.4602 63.8128 21.0666C63.8516 20.9601 63.8748 20.9221 63.9746 21.0221C64.3313 21.3808 64.7081 21.721 65.0515 22.0896C65.3108 22.3689 65.5889 22.6287 65.856 22.8994C65.8859 22.9299 65.9003 22.9994 65.9712 22.9701C65.9712 22.9929 65.9712 23.0147 65.9712 23.0353Z" fill="#D02053"/>
<path d="M53.4261 15.3555C53.8538 15.937 54.2771 16.5143 54.7014 17.0915C55.2045 17.7753 55.7064 18.459 56.2094 19.1439C56.5751 19.6407 56.9396 20.1385 57.3053 20.6353C57.836 21.3582 58.3668 22.08 58.8953 22.804C59.3186 23.3823 59.7385 23.9639 60.1618 24.5422C60.5208 25.0314 60.882 25.5184 61.2454 26.0043C61.3152 26.0978 61.3418 26.1446 61.2022 26.2131C59.9922 26.8033 58.7834 27.3958 57.5834 28.0045C56.7213 28.4426 55.8438 28.8481 54.9851 29.2927C54.1408 29.7297 53.2776 30.1298 52.4311 30.5613C52.2128 30.6722 52.2128 30.67 52.1574 30.4309C51.9425 29.5036 51.7231 28.5763 51.5114 27.648C51.2799 26.6381 51.0549 25.626 50.8278 24.6151C50.7957 24.4738 50.8577 24.3422 50.8943 24.214C51.2112 23.0867 51.5458 21.9648 51.8582 20.8364C52.276 19.3309 52.6959 17.8253 53.1314 16.3251C53.2122 16.0447 53.2898 15.762 53.364 15.4794C53.3751 15.4348 53.3862 15.3935 53.4261 15.3555Z" fill="#D02053"/>
<path d="M42.2852 14.0114C42.4602 13.9766 42.6253 14.0244 42.786 14.0429C43.1261 14.0831 43.4663 14.1223 43.8065 14.1625C44.2209 14.2114 44.6342 14.2701 45.0497 14.319C45.4486 14.3658 45.8497 14.4038 46.2485 14.4516C46.6629 14.5006 47.0762 14.5582 47.4917 14.6071C47.8064 14.644 48.1222 14.6701 48.4358 14.7082C48.8502 14.7571 49.2635 14.8147 49.679 14.8636C49.9937 14.9006 50.3094 14.9267 50.623 14.9647C51.0374 15.0136 51.4507 15.0713 51.8662 15.1202C52.1753 15.1571 52.4845 15.1908 52.7947 15.218C52.8911 15.2267 52.982 15.2626 53.0817 15.2561C53.1615 15.2506 53.1371 15.305 53.1227 15.355C52.9864 15.8333 52.8523 16.3127 52.7183 16.791C52.5 17.5726 52.2828 18.3542 52.0623 19.1358C51.8806 19.7804 51.6956 20.4251 51.5139 21.0697C51.2923 21.8556 51.0751 22.6427 50.8546 23.4297C50.7726 23.7221 50.684 24.0124 50.5986 24.3026C50.5909 24.3298 50.6064 24.3754 50.5587 24.3744C50.5388 24.3744 50.5155 24.3472 50.5 24.3276C49.9482 23.6308 49.3998 22.9318 48.8457 22.2361C48.2784 21.5241 47.7034 20.8175 47.135 20.1055C46.7261 19.5924 46.3239 19.0749 45.9139 18.5618C45.4973 18.04 45.074 17.5248 44.6574 17.003C44.2907 16.5442 43.9328 16.079 43.5671 15.6202C43.1505 15.0984 42.7306 14.5799 42.3117 14.0603C42.3018 14.0472 42.2962 14.0331 42.2852 14.0114Z" fill="#D02053"/>
<path d="M47.3296 35.9995C48.4132 32.2697 49.4969 28.5411 50.5949 24.7646C50.7633 25.5115 50.9196 26.2104 51.078 26.9094C51.2021 27.4573 51.3307 28.0041 51.4536 28.552C51.6564 29.4532 51.8559 30.3554 52.0586 31.2577C52.1151 31.5088 52.1739 31.7588 52.2381 32.0078C52.2558 32.0784 52.247 32.1143 52.1827 32.1654C51.6797 32.5611 51.1833 32.9665 50.6825 33.3655C50.1318 33.8036 49.5755 34.2352 49.026 34.6743C48.5218 35.0776 48.021 35.4853 47.5213 35.8929C47.467 35.9364 47.3972 35.956 47.3296 35.9995Z" fill="#D02053"/>
<path d="M23.0698 26.4326C23.0698 24.9705 23.0698 23.5084 23.0698 22.0452C23.0698 21.7843 23.0698 21.7898 23.3291 21.8126C23.4909 21.8267 23.6549 21.83 23.8177 21.8039C24.0194 21.7713 24.0493 21.793 24.0493 21.993C24.0504 23.2529 24.0493 24.5118 24.0515 25.7717C24.0515 25.8423 24.0127 25.9445 24.0925 25.976C24.1801 26.0108 24.251 25.9282 24.3119 25.8684C24.651 25.5358 24.9269 25.152 25.2172 24.7792C25.9618 23.8215 26.7075 22.8649 27.4509 21.9061C27.5163 21.8224 27.5905 21.7734 27.7013 21.7952C27.8797 21.83 28.057 21.83 28.2354 21.7963C28.2764 21.7887 28.3296 21.7745 28.354 21.8202C28.3806 21.8691 28.3274 21.8941 28.3008 21.9256C27.6393 22.7225 26.9811 23.5236 26.313 24.315C25.9075 24.7955 25.5285 25.2966 25.1274 25.7793C25.0521 25.8706 25.0476 25.938 25.1208 26.0434C25.9839 27.286 26.8969 28.4948 27.7412 29.7503C27.995 30.1286 28.2398 30.5134 28.4869 30.8961C28.5157 30.9396 28.5634 30.9863 28.5268 31.0396C28.4892 31.0939 28.4293 31.0613 28.3761 31.057C28.0825 31.0363 27.7889 31.0298 27.4964 31.0591C27.3867 31.07 27.3224 31.045 27.2692 30.9537C26.3662 29.3992 25.2681 27.9697 24.2676 26.4783C24.2587 26.4652 24.2488 26.4522 24.2388 26.4391C24.2022 26.3924 24.1623 26.3315 24.0981 26.3467C24.0183 26.3663 24.0515 26.4457 24.0515 26.4978C24.0493 27.9067 24.0504 29.3155 24.0504 30.7243C24.0504 31.0472 24.0504 31.045 23.7291 31.045C23.5496 31.045 23.3701 31.0439 23.1906 31.0559C23.0986 31.0613 23.0731 31.0233 23.072 30.9472C23.0709 30.8939 23.0709 30.8406 23.0709 30.7874C23.0698 29.3362 23.0698 27.8838 23.0698 26.4326Z" fill="#231F20"/>
<path d="M40.4722 26.1389C40.634 25.9334 40.7947 25.7421 40.9764 25.566C41.5836 24.9768 42.6229 24.9018 43.2943 25.4204C43.6367 25.6845 43.7752 26.0693 43.8605 26.4737C43.9304 26.8085 43.9658 27.1477 43.9658 27.489C43.9658 28.6098 43.9658 29.7306 43.9658 30.8513C43.9658 31.0644 43.9647 31.059 43.752 31.0492C43.578 31.0416 43.4029 31.0383 43.2301 31.0535C43.116 31.0633 43.0805 31.0253 43.0838 30.9242C43.0849 30.8763 43.0838 30.8285 43.0838 30.7796C43.0838 29.798 43.0938 28.8153 43.0794 27.8336C43.0739 27.4521 43.0628 27.0673 42.9797 26.689C42.8478 26.0878 42.5043 25.7606 41.9658 25.7269C41.3387 25.6878 40.8379 25.9965 40.634 26.5466C40.5254 26.8401 40.47 27.1412 40.47 27.4543C40.4733 28.575 40.4711 29.6958 40.4711 30.8165C40.4711 31.0568 40.47 31.0524 40.234 31.0448C40.06 31.0394 39.885 31.0394 39.7132 31.0546C39.6024 31.0644 39.5614 31.0274 39.5592 30.9274C39.5581 30.8796 39.5581 30.8318 39.5581 30.7828C39.5581 27.8749 39.5581 24.966 39.5581 22.0581C39.5581 22.0102 39.5592 21.9624 39.5592 21.9135C39.5592 21.8167 39.6124 21.7754 39.7055 21.7917C39.9116 21.8265 40.1154 21.8265 40.3215 21.7917C40.4146 21.7754 40.4689 21.8135 40.47 21.9113C40.47 21.9646 40.4711 22.0178 40.4711 22.0711C40.4711 23.3625 40.4711 24.654 40.4711 25.9454C40.4722 26.0117 40.4722 26.0748 40.4722 26.1389Z" fill="#231F20"/>
<path d="M61.6088 26.0759C61.1667 25.4791 60.7301 24.8899 60.2947 24.2996C59.8149 23.6495 59.3362 22.9995 58.8565 22.3505C58.7434 22.1972 58.6337 22.0429 58.5185 21.8918C58.4587 21.8135 58.4786 21.7711 58.5695 21.7559C59.2531 21.6374 59.9368 21.5222 60.6193 21.4015C61.2077 21.2982 61.7949 21.1884 62.3822 21.0841C62.7445 21.0199 63.1068 20.958 63.4691 20.896C63.5744 20.8786 63.5556 20.9297 63.5301 20.9982C63.3672 21.4298 63.211 21.8635 63.0481 22.2951C62.8265 22.8842 62.6005 23.4713 62.38 24.0604C62.1462 24.6833 61.9168 25.3084 61.6841 25.9324C61.6686 25.9802 61.6387 26.0226 61.6088 26.0759Z" fill="#D02053"/>
<path d="M33.1581 28.6575C33.1581 29.1967 33.157 29.7348 33.1581 30.274C33.1592 30.574 33.2589 30.6588 33.5603 30.6164C33.6367 30.6056 33.721 30.5762 33.7387 30.6871C33.7531 30.7784 33.7531 30.8675 33.639 30.9121C33.3852 31.0132 33.1204 31.0436 32.8545 30.9969C32.5509 30.9436 32.4024 30.7251 32.3193 30.4523C32.3071 30.4142 32.3215 30.3555 32.2694 30.3436C32.2163 30.3305 32.2019 30.3881 32.1753 30.4186C31.7653 30.8925 31.2379 31.1567 30.6096 31.1578C29.9681 31.1589 29.434 30.8262 29.2169 30.1512C29.0783 29.7196 29.1083 29.2837 29.2789 28.8652C29.4141 28.5336 29.6722 28.3064 30.0013 28.1618C30.4013 27.9857 30.8323 27.9183 31.26 27.8379C31.4418 27.8042 31.6235 27.7694 31.7996 27.7183C32.1575 27.614 32.2949 27.4291 32.306 27.0639C32.3104 26.8976 32.2816 26.7345 32.2517 26.5725C32.0988 25.7583 31.3276 25.4627 30.6395 25.6572C30.2639 25.7627 29.988 25.9866 29.8107 26.329C29.7853 26.378 29.7686 26.4551 29.6922 26.441C29.6124 26.4258 29.6335 26.3486 29.6312 26.2943C29.6279 26.204 29.6423 26.1105 29.6279 26.0225C29.5903 25.7975 29.7066 25.6659 29.8861 25.5551C30.4556 25.2028 31.0628 25.0115 31.7431 25.1061C32.4667 25.2072 32.8789 25.6366 33.0539 26.3116C33.1215 26.5704 33.1548 26.8356 33.1559 27.1019C33.1603 27.6226 33.1581 28.1401 33.1581 28.6575ZM32.2761 28.9989C32.2672 28.738 32.296 28.4336 32.2451 28.1325C32.2307 28.0488 32.2096 28.0042 32.1121 28.0259C31.6578 28.1292 31.1902 28.1857 30.7625 28.3792C30.3991 28.5445 30.1354 28.7999 30.0689 29.2065C30.039 29.3859 30.0456 29.5685 30.0612 29.7489C30.0988 30.1783 30.3769 30.5001 30.7803 30.5969C31.1326 30.6816 31.4506 30.6012 31.7287 30.3838C32.0578 30.1272 32.3559 29.8522 32.2783 29.3761C32.2617 29.2674 32.2761 29.1532 32.2761 28.9989Z" fill="#231F20"/>
<path d="M36.6151 25.0833C36.9729 25.0702 37.3053 25.1605 37.6289 25.2953C37.7707 25.354 37.8272 25.4311 37.763 25.592C37.6898 25.7747 37.6499 25.9703 37.5934 26.1595C37.579 26.2084 37.5768 26.2769 37.5081 26.2801C37.4416 26.2834 37.4283 26.2171 37.4062 26.1703C37.3109 25.9692 37.1879 25.7877 37.0073 25.6507C36.4843 25.2529 35.6843 25.5833 35.5757 26.2367C35.5203 26.5682 35.5591 26.8769 35.7774 27.1433C35.9458 27.3498 36.1929 27.4476 36.4333 27.5477C36.6383 27.6335 36.8477 27.7075 37.0583 27.7814C38.0765 28.1379 38.2649 28.9391 38.0344 29.8055C37.8261 30.5882 37.086 31.0763 36.3081 31.1426C35.8261 31.1839 35.3829 31.0763 34.9519 30.8817C34.809 30.8175 34.7403 30.7447 34.8068 30.573C34.8732 30.4001 34.8976 30.211 34.943 30.0305C34.9575 29.9718 34.9419 29.887 35.0284 29.8761C35.1093 29.8653 35.1314 29.9457 35.1658 29.9957C35.3009 30.1968 35.4494 30.3838 35.6522 30.5273C36.0056 30.7773 36.3802 30.8436 36.7702 30.6425C37.1547 30.4447 37.3574 30.1273 37.3718 29.6881C37.3918 29.0772 37.086 28.8195 36.5242 28.6054C36.2461 28.4999 35.9547 28.4271 35.6788 28.3119C35.2034 28.1129 34.9153 27.7716 34.8433 27.2705C34.7824 26.8476 34.8045 26.4258 34.9951 26.0323C35.3187 25.3659 35.8893 25.0942 36.6151 25.0833Z" fill="#231F20"/>
<path d="M53.8315 30.1587C54.1928 29.9435 54.5817 29.7793 54.9584 29.5913C55.8792 29.1325 56.8077 28.6868 57.7218 28.2151C58.4043 27.8628 59.1035 27.5443 59.7838 27.1878C60.2702 26.9323 60.7677 26.6986 61.2586 26.4529C61.2996 26.4323 61.3417 26.416 61.4038 26.3877C61.3195 26.704 61.2198 26.9878 61.1201 27.2715C61.0846 27.3726 60.9882 27.39 60.9074 27.4226C60.0442 27.7661 59.1788 28.1053 58.3146 28.4466C57.3118 28.8423 56.3091 29.238 55.3052 29.6326C54.8653 29.8054 54.4243 29.9761 53.9856 30.1511C53.9446 30.1674 53.9069 30.1837 53.8626 30.1837C53.8515 30.175 53.8415 30.1674 53.8315 30.1587Z" fill="#D02053"/>
<path d="M46.5828 19.7797C46.4864 19.8101 46.4587 19.7536 46.4221 19.7199C45.9124 19.2427 45.4094 18.7589 44.893 18.2882C44.5207 17.948 44.1518 17.6045 43.7806 17.2621C43.3983 16.9088 43.0138 16.5587 42.6338 16.2022C42.5019 16.0782 42.3623 15.9619 42.2017 15.801C42.3258 15.801 42.4133 15.801 42.5019 15.801C42.6981 15.801 42.8964 15.8228 43.0881 15.7956C43.3429 15.7586 43.4825 15.8826 43.6221 16.0608C44.1185 16.6957 44.626 17.3229 45.1268 17.9545C45.5257 18.4567 45.9191 18.9633 46.3168 19.4666C46.3988 19.571 46.4875 19.6688 46.5828 19.7797Z" fill="#D02053"/>
<path d="M53.8618 30.1841C53.823 30.2199 53.7797 30.2471 53.7188 30.2449C53.7332 30.1797 53.7963 30.1884 53.8307 30.1602C53.8418 30.1678 53.8518 30.1754 53.8618 30.1841Z" fill="#D02053"/>
<path d="M46.6648 19.8966C46.6615 19.8999 46.657 19.9021 46.6537 19.9053C46.6482 19.8977 46.6437 19.8901 46.6382 19.8825C46.6426 19.8803 46.6493 19.876 46.6504 19.876C46.6559 19.8825 46.6604 19.889 46.6648 19.8966Z" fill="#D02053"/>
<path d="M43.9648 27.4885C43.9648 28.6092 43.9648 29.73 43.9648 30.8508C43.9648 31.0638 43.9637 31.0584 43.751 31.0486C43.577 31.041 43.402 31.0377 43.2291 31.053C43.115 31.0627 43.0806 31.0247 43.084 30.9247C43.0851 30.8768 43.084 30.829 43.084 30.7801C43.084 29.7985 43.0939 28.8158 43.0795 27.8342C43.074 27.4526 43.0629 27.0678 42.9798 26.6895C42.8479 26.0883 42.5045 25.7611 41.966 25.7274C41.3388 25.6883 40.838 25.997 40.6341 26.5471C40.5255 26.8406 40.4701 27.1417 40.4701 27.4548C40.4735 28.5755 40.4712 29.6963 40.4712 30.8171C40.4712 31.0573 40.4701 31.053 40.2341 31.0464C40.0602 31.041 39.8851 31.041 39.7123 31.0562C39.6014 31.066 39.5605 31.029 39.5582 30.929C39.5571 30.8812 39.5571 30.8334 39.5571 30.7855V22.0597C39.5571 22.0118 39.5582 21.964 39.5582 21.9151C39.5582 21.8183 39.6103 21.7781 39.7045 21.7933C39.9106 21.8281 40.1145 21.8292 40.3206 21.7933C40.4125 21.7781 40.4679 21.8151 40.469 21.9129C40.469 21.9662 40.4701 22.0195 40.4701 22.0727V26.1372C40.6319 25.9318 40.7926 25.7405 40.9743 25.5644C41.5815 24.9752 42.6208 24.9002 43.2923 25.4187C43.6346 25.6829 43.7731 26.0677 43.8585 26.4721C43.9305 26.8069 43.9648 27.146 43.9648 27.4885Z" fill="#383838"/>
<path d="M38.0344 29.8066C37.8261 30.5893 37.086 31.0774 36.3081 31.1448C35.8261 31.1861 35.3829 31.0784 34.9519 30.8839C34.809 30.8197 34.7403 30.7469 34.8068 30.5751C34.8732 30.4023 34.8987 30.2131 34.943 30.0327C34.9575 29.974 34.9419 29.8892 35.0284 29.8783C35.1081 29.8675 35.1314 29.9479 35.1658 29.9979C35.3009 30.199 35.4494 30.386 35.6522 30.5295C36.0056 30.7795 36.3802 30.8458 36.7702 30.6447C37.1547 30.4469 37.3574 30.1294 37.3718 29.6903C37.3918 29.0793 37.086 28.8217 36.5242 28.6086C36.245 28.5021 35.9547 28.4304 35.6788 28.314C35.2045 28.1151 34.9153 27.7738 34.8433 27.2726C34.7824 26.8487 34.8045 26.428 34.994 26.0345C35.3165 25.3659 35.8882 25.0942 36.6139 25.0833C36.9718 25.0702 37.3042 25.1605 37.6289 25.2953C37.7707 25.354 37.8272 25.4322 37.763 25.592C37.6898 25.7747 37.6499 25.9703 37.5934 26.1595C37.579 26.2084 37.5768 26.2769 37.5081 26.2801C37.4416 26.2834 37.4283 26.2171 37.4062 26.1703C37.3109 25.9692 37.1879 25.7877 37.0084 25.6507C36.4854 25.2529 35.6854 25.5833 35.5768 26.2367C35.5214 26.5682 35.5602 26.8769 35.7785 27.1433C35.9469 27.3487 36.194 27.4476 36.4344 27.5477C36.6394 27.6324 36.8488 27.7075 37.0594 27.7814C38.0765 28.139 38.266 28.9391 38.0344 29.8066Z" fill="#383838"/>
<path d="M28.5245 31.0385C28.4868 31.0928 28.427 31.0602 28.3738 31.057C28.0802 31.0363 27.7865 31.0298 27.494 31.0591C27.3843 31.07 27.3201 31.045 27.268 30.9537C26.3638 29.3992 25.2669 27.9697 24.2664 26.4783C24.2575 26.4652 24.2475 26.4522 24.2375 26.4391C24.201 26.3924 24.1611 26.3304 24.0968 26.3467C24.0171 26.3663 24.0503 26.4446 24.0503 26.4978C24.0481 27.9067 24.0492 29.3155 24.0492 30.7243C24.0492 31.0472 24.0492 31.0461 23.7279 31.045C23.5484 31.045 23.3689 31.0439 23.1905 31.0559C23.0985 31.0613 23.073 31.0233 23.0719 30.9472C23.0708 30.8939 23.0708 30.8406 23.0708 30.7874V22.0452C23.0708 21.7843 23.0708 21.7898 23.3301 21.8126C23.4918 21.8267 23.6558 21.83 23.8187 21.8039C24.0204 21.7713 24.0503 21.7941 24.0503 21.993C24.0514 23.2529 24.0503 24.5129 24.0525 25.7717C24.0525 25.8423 24.0137 25.9445 24.0935 25.976C24.181 26.0108 24.2531 25.9282 24.3129 25.8684C24.6519 25.5358 24.9278 25.152 25.2181 24.7792C25.9627 23.8215 26.7084 22.8638 27.4519 21.9061C27.5173 21.8224 27.5915 21.7734 27.7012 21.7952C27.8796 21.83 28.0569 21.83 28.2353 21.7963C28.2763 21.7887 28.3295 21.7745 28.3538 21.8202C28.3804 21.8691 28.3272 21.8952 28.3007 21.9256C27.6392 22.7225 26.9821 23.5236 26.3129 24.315C25.9073 24.7955 25.5295 25.2966 25.1273 25.7793C25.0519 25.8706 25.0475 25.938 25.1206 26.0434C25.9838 27.286 26.8968 28.4948 27.7411 29.7503C27.996 30.1286 28.2397 30.5134 28.4879 30.8961C28.5134 30.9385 28.561 30.9852 28.5245 31.0385Z" fill="#383838"/>
</g>
</g>
<defs>
<filter id="filter0_d_353_636" x="0" y="0" width="79.9688" height="58" filterUnits="userSpaceOnUse" color-interpolation-filters="sRGB">
<feFlood flood-opacity="0" result="BackgroundImageFix"/>
<feColorMatrix in="SourceAlpha" type="matrix" values="0 0 0 0 0 0 0 0 0 0 0 0 0 0 0 0 0 0 127 0" result="hardAlpha"/>
<feOffset dy="4"/>
<feGaussianBlur stdDeviation="5"/>
<feComposite in2="hardAlpha" operator="out"/>
<feColorMatrix type="matrix" values="0 0 0 0 0 0 0 0 0 0 0 0 0 0 0 0 0 0 0.25 0"/>
<feBlend mode="normal" in2="BackgroundImageFix" result="effect1_dropShadow_353_636"/>
<feBlend mode="normal" in="SourceGraphic" in2="effect1_dropShadow_353_636" result="shape"/>
</filter>
<clipPath id="clip0_353_636">
<rect width="48.9745" height="22" fill="white" transform="translate(16.9966 14)"/>
</clipPath>
</defs>
</svg>
