<svg width="80" height="58" viewBox="0 0 80 58" fill="none" xmlns="http://www.w3.org/2000/svg">
<g opacity="0.8" filter="url(#filter0_d_353_671)">
<rect x="10" y="6" width="59.9688" height="38" rx="5" fill="#EBEBEB"/>
<path d="M64.971 33.2196C63.7703 33.2196 62.6275 33.2276 61.4866 33.2046C61.3898 33.2026 61.2451 33.0039 61.2132 32.8741C61.0824 32.3428 60.9816 31.8036 60.8818 31.2653C60.8289 30.9797 60.7012 30.8439 60.3838 30.8469C58.8866 30.8609 57.3905 30.8599 55.8934 30.8469C55.584 30.8439 55.4542 30.9817 55.3644 31.2523C55.1758 31.8196 54.9771 32.3838 54.7476 32.935C54.6947 33.0608 54.5001 33.2066 54.3673 33.2086C53.1047 33.2296 51.8422 33.2206 50.4888 33.2206C50.5656 33.0089 50.6165 32.8471 50.6824 32.6913C52.5947 28.1277 54.508 23.5641 56.4214 19.0015C56.8905 17.8831 57.3476 17.5765 58.5433 17.5755C59.4086 17.5745 60.274 17.5945 61.1373 17.5675C61.5495 17.5545 61.7402 17.6534 61.831 18.1007C62.6195 21.9873 63.4379 25.8679 64.2473 29.7504C64.4839 30.8839 64.7204 32.0173 64.971 33.2196ZM56.6739 27.6634C57.8526 27.6634 58.9535 27.6634 60.1053 27.6634C59.6961 25.7091 59.2978 23.8028 58.8986 21.8964C58.8527 21.8964 58.8068 21.8974 58.7609 21.8974C58.0702 23.8038 57.3805 25.7101 56.6739 27.6634Z" fill="#1534CC"/>
<path d="M25.2984 28.0934C25.3613 27.9516 25.4281 27.8128 25.485 27.669C26.7396 24.5054 28.0072 21.3468 29.2338 18.1722C29.4235 17.6809 29.662 17.5331 30.168 17.5501C31.3098 17.5891 32.4546 17.5621 33.6603 17.5621C33.5815 17.7858 33.5346 17.9416 33.4717 18.0904C31.4186 22.9905 29.3596 27.8886 27.3165 32.7928C27.1778 33.1243 27.0031 33.2312 26.6528 33.2242C25.5559 33.2022 24.457 33.2012 23.3601 33.2242C22.9988 33.2312 22.8471 33.1283 22.7543 32.7618C21.7412 28.7924 20.6892 24.8309 19.6932 20.8565C19.4646 19.9458 19.0125 19.3276 18.1282 19.033C17.1381 18.7035 16.144 18.3859 15.1559 18.0504C14.9912 17.9945 14.8495 17.8677 14.6978 17.7748C14.8764 17.7039 15.0551 17.5741 15.2347 17.5731C17.3127 17.5581 19.3917 17.5591 21.4707 17.5641C22.6126 17.5671 23.2902 18.1083 23.5028 19.2118C23.92 21.3788 24.3173 23.5497 24.7255 25.7187C24.8742 26.5076 25.0299 27.2955 25.1816 28.0834C25.2205 28.0874 25.2595 28.0904 25.2984 28.0934Z" fill="#1534CC"/>
<path d="M39.0649 32.615C39.3055 31.4936 39.537 30.4121 39.7616 29.3636C40.6329 29.6232 41.4583 29.9218 42.3087 30.1065C43.203 30.3013 44.1232 30.3492 45.0205 30.0746C45.287 29.9927 45.5565 29.8829 45.787 29.7291C46.5466 29.2198 46.6394 28.349 45.9577 27.7458C45.5535 27.3873 45.0594 27.1267 44.5913 26.8461C43.9516 26.4626 43.2719 26.1401 42.654 25.7247C39.6458 23.6995 40.576 20.3792 42.4405 18.8653C43.6192 17.9086 44.9955 17.4532 46.4707 17.3134C47.9698 17.1716 49.455 17.3045 50.8972 17.7878C51.1627 17.8767 51.3444 17.9645 51.2665 18.3011C51.0499 19.2367 50.8493 20.1764 50.6347 21.1501C50.1217 20.9973 49.6406 20.8305 49.1486 20.7117C48.1395 20.469 47.1205 20.3432 46.0994 20.6428C45.8649 20.7117 45.6293 20.8185 45.4297 20.9583C44.737 21.4417 44.6812 22.1657 45.3189 22.7149C45.6553 23.0045 46.0515 23.2292 46.4368 23.4558C47.1374 23.8683 47.866 24.2358 48.5547 24.6662C51.6178 26.5815 50.7804 30.1944 48.9749 31.7383C47.9708 32.5971 46.7991 33.0784 45.5205 33.2881C43.4535 33.6266 41.4174 33.4449 39.4262 32.7908C39.3185 32.7558 39.2196 32.6919 39.0649 32.615Z" fill="#1534CC"/>
<path d="M36.1795 33.2078C34.8431 33.2078 33.5655 33.2078 32.2021 33.2078C32.3618 32.4249 32.5096 31.6709 32.6712 30.919C33.5925 26.62 34.5217 22.323 35.4329 18.023C35.5068 17.6745 35.6415 17.5627 35.9909 17.5696C37.0049 17.5906 38.019 17.5756 39.034 17.5786C39.1778 17.5786 39.3205 17.5996 39.5071 17.6146C38.3933 22.8313 37.2904 28.003 36.1795 33.2078Z" fill="#1534CC"/>
</g>
<defs>
<filter id="filter0_d_353_671" x="0" y="0" width="79.9688" height="58" filterUnits="userSpaceOnUse" color-interpolation-filters="sRGB">
<feFlood flood-opacity="0" result="BackgroundImageFix"/>
<feColorMatrix in="SourceAlpha" type="matrix" values="0 0 0 0 0 0 0 0 0 0 0 0 0 0 0 0 0 0 127 0" result="hardAlpha"/>
<feOffset dy="4"/>
<feGaussianBlur stdDeviation="5"/>
<feComposite in2="hardAlpha" operator="out"/>
<feColorMatrix type="matrix" values="0 0 0 0 0 0 0 0 0 0 0 0 0 0 0 0 0 0 0.25 0"/>
<feBlend mode="normal" in2="BackgroundImageFix" result="effect1_dropShadow_353_671"/>
<feBlend mode="normal" in="SourceGraphic" in2="effect1_dropShadow_353_671" result="shape"/>
</filter>
</defs>
</svg>
