<svg width="80" height="58" viewBox="0 0 80 58" fill="none" xmlns="http://www.w3.org/2000/svg">
<g opacity="0.8" filter="url(#filter0_d_353_550)">
<rect x="10" y="6" width="59.9688" height="38" rx="5" fill="#EBEBEB"/>
<g clip-path="url(#clip0_353_550)">
<path d="M49.9625 21.0092H49.9642C49.9642 18.8622 49.9625 16.7152 49.9675 14.5682C49.9675 14.4177 49.9322 14.3197 49.7907 14.2554C49.2282 13.9968 48.6792 13.7043 48.1049 13.4761C45.8432 12.5717 43.4753 12.1608 41.0569 12.0425C38.5947 11.9208 36.1477 12.051 33.7344 12.5987C32.1631 12.9537 30.6491 13.4626 29.2244 14.2284C29.0526 14.3214 28.9886 14.4228 28.9903 14.6223C28.997 17.7194 28.9886 20.8148 28.997 23.9119C29.0004 25.2103 28.9869 26.512 29.0644 27.8053C29.1418 29.0969 29.5747 30.2955 30.2786 31.3876C31.0432 32.576 32.1059 33.423 33.3201 34.1043C35.2619 35.1964 37.2862 36.1127 39.3374 36.9749C39.4233 37.0121 39.553 37.0087 39.6406 36.9732C41.8232 36.0451 43.9906 35.0882 46.0352 33.8727C48.5883 32.3546 49.8732 30.0723 49.9524 27.124C50.0063 25.0869 49.9625 23.0481 49.9625 21.0092ZM48.7937 26.5458C48.792 28.1113 48.4636 29.5838 47.5542 30.8906C46.9614 31.7443 46.18 32.3799 45.2925 32.8973C43.4736 33.9589 41.5655 34.8329 39.6372 35.663C39.5547 35.6985 39.4318 35.707 39.3509 35.6715C37.2222 34.74 35.0867 33.8152 33.1281 32.5439C31.599 31.5482 30.6811 30.1163 30.3527 28.3277C30.2264 27.643 30.1894 26.9363 30.1809 26.2398C30.1607 24.1554 30.1759 22.0692 30.1708 19.9848C30.1691 19.8022 30.2331 19.6855 30.3628 19.5655C32.7997 17.2951 35.6829 15.9054 38.9063 15.1819C41.0889 14.6916 43.3035 14.5344 45.5333 14.6054C46.5151 14.6358 47.4953 14.7271 48.4771 14.7812C48.6893 14.7914 48.7668 14.8607 48.7651 15.0855C48.7617 16.6577 48.7735 18.2283 48.7786 19.8005C48.7803 20.2586 48.7786 20.7185 48.7786 21.1766H48.7937V26.5458Z" fill="#FEB501"/>
<path d="M48.7784 21.1763C48.7784 20.7181 48.7801 20.2583 48.7784 19.8002C48.7734 18.2279 48.7616 16.6574 48.765 15.0852C48.7666 14.8603 48.6892 14.791 48.477 14.7809C47.4951 14.7268 46.515 14.6355 45.5331 14.6051C43.3034 14.5341 41.0888 14.6913 38.9062 15.1815C35.6828 15.9051 32.7996 17.2947 30.3627 19.5652C30.233 19.6852 30.169 19.8018 30.1707 19.9844C30.1757 22.0689 30.1606 24.155 30.1808 26.2395C30.1892 26.936 30.2263 27.6427 30.3526 28.3273C30.681 30.1159 31.5988 31.5478 33.128 32.5436C35.0866 33.8149 37.2221 34.7396 39.3508 35.6711C39.4316 35.7066 39.5546 35.6982 39.6371 35.6627C41.5654 34.8326 43.4735 33.9586 45.2923 32.8969C46.1798 32.3796 46.9613 31.744 47.5541 30.8902C48.4635 29.5834 48.7919 28.1109 48.7936 26.5455V21.1763H48.7784ZM36.3177 28.4609C35.3931 28.9985 34.3894 29.1574 33.3402 29.1033C32.8467 29.0763 32.3752 28.9681 31.9474 28.7077C31.2569 28.2885 30.9235 27.6359 30.8123 26.8684C30.7483 26.4153 30.7382 25.9538 30.7365 25.4956C30.7281 23.7544 30.7382 22.0114 30.7315 20.2684C30.7298 20.0605 30.7938 20.0013 30.9959 20.0047C31.5533 20.0165 32.1125 20.0182 32.6699 20.0047C32.8821 19.9996 32.9259 20.0757 32.9242 20.2735C32.9141 21.8288 32.9124 23.3841 32.9091 24.9411C32.9091 25.3519 32.9141 25.7644 32.9225 26.1769C32.9242 26.2767 32.9394 26.3781 32.9579 26.4779C33.0674 27.0898 33.704 27.3772 34.2277 27.0442C34.2799 27.0104 34.3052 26.9005 34.3052 26.8261C34.3102 25.1778 34.3069 23.5278 34.3085 21.8795C34.3085 21.3183 34.3153 20.7587 34.3153 20.1991C34.3153 20.0723 34.3389 19.9912 34.4921 19.9912C35.1338 19.9929 35.7771 19.9861 36.4204 19.9844C36.4507 19.9844 36.4794 19.9963 36.5417 20.0081V22.4509C36.5417 24.319 36.5383 26.1854 36.5467 28.0518C36.5467 28.2496 36.4844 28.3645 36.3177 28.4609ZM42.7089 27.2589C42.1733 28.4203 41.2471 29.0627 39.9503 29.1118C39.7364 29.1202 39.5192 29.0898 39.2632 29.0746C39.2632 29.4854 39.2632 29.8725 39.2649 30.2596C39.2649 31.0458 39.2632 31.8319 39.2699 32.618C39.2699 32.7735 39.2329 32.8411 39.0628 32.8394C38.4599 32.8293 37.8553 32.8293 37.2507 32.8361C37.0806 32.8377 37.0216 32.7853 37.0216 32.6095C37.0284 31.864 37.0233 31.1168 37.0216 30.3695C37.0149 27.5074 37.0099 24.6453 37.0031 21.7832C37.0031 21.4484 37.0166 21.112 37.0014 20.779C36.993 20.5947 37.0671 20.4967 37.2153 20.4104C37.9378 19.9878 38.7209 19.8069 39.5478 19.7968C41.3128 19.7714 42.5118 20.6167 43.0087 22.3174C43.4971 23.991 43.4448 25.6596 42.7089 27.2589ZM46.323 29.0424C45.843 29.1473 45.3664 29.1371 44.8999 28.9934C44.4654 28.8582 44.036 28.7009 43.6082 28.5387C43.5358 28.5116 43.4415 28.4068 43.4398 28.3358C43.4314 27.7001 43.4432 27.0628 43.4499 26.4255C43.4499 26.3798 43.4566 26.3342 43.4684 26.2209C43.6065 26.3409 43.7042 26.4238 43.8019 26.5083C44.164 26.8261 44.5749 27.0476 45.0464 27.1524C45.0767 27.1592 45.1071 27.1676 45.1374 27.1727C45.6157 27.2606 46.0232 27.0983 46.1798 26.7602C46.3533 26.3866 46.2489 25.9301 45.8716 25.6377C45.5315 25.3722 45.1525 25.1542 44.7955 24.909C44.2701 24.5506 43.7783 24.1432 43.5577 23.5261C42.7662 21.3031 44.4048 19.6497 46.4038 19.8407C46.9764 19.8965 47.5086 20.0689 47.9835 20.4054C48.0997 20.4882 48.1587 20.5761 48.157 20.73C48.1486 21.3741 48.1536 22.0182 48.1536 22.7282C48.0155 22.5896 47.9128 22.4864 47.8101 22.3816C47.3638 21.9387 46.8552 21.6395 46.2017 21.6868C45.9053 21.7088 45.6527 21.8187 45.5534 22.1264C45.454 22.4374 45.5163 22.7282 45.7723 22.9294C46.0636 23.1576 46.3836 23.352 46.6952 23.5532C47.3082 23.9471 47.8909 24.3782 48.194 25.0696C48.8054 26.4711 48.3305 28.6046 46.323 29.0424Z" fill="#351C15"/>
<path d="M43.0088 22.3176C42.512 20.6169 41.3129 19.7716 39.548 19.7969C38.7211 19.8071 37.938 19.988 37.2155 20.4106C37.0673 20.4968 36.9932 20.5949 37.0016 20.7792C37.0168 21.1122 37.0033 21.4486 37.0033 21.7833C37.01 24.6455 37.0151 27.5076 37.0218 30.3697C37.0235 31.1169 37.0286 31.8642 37.0218 32.6097C37.0218 32.7855 37.0808 32.8379 37.2509 32.8362C37.8555 32.8295 38.4601 32.8295 39.063 32.8396C39.2331 32.8413 39.2701 32.7737 39.2701 32.6181C39.2634 31.832 39.2651 31.0459 39.2651 30.2598C39.2634 29.8727 39.2634 29.4855 39.2634 29.0747C39.5194 29.0899 39.7366 29.1204 39.9505 29.1119C41.2473 29.0629 42.1735 28.4205 42.7091 27.2591C43.445 25.6598 43.4972 23.9912 43.0088 22.3176ZM40.998 23.9963C40.9845 24.6911 40.9307 25.391 40.8195 26.0774C40.7387 26.5778 40.4945 27.0241 39.932 27.1661C39.9168 27.1695 39.9017 27.1745 39.8865 27.1779C39.3863 27.2861 39.2668 27.1931 39.2668 26.6944V24.4341C39.2668 23.6176 39.2752 22.8011 39.26 21.9862C39.2566 21.7766 39.3392 21.7208 39.516 21.6954C40.0785 21.6177 40.5029 21.856 40.7286 22.375C40.9525 22.894 41.0098 23.4469 40.998 23.9963Z" fill="#FEB501"/>
<path d="M40.9979 23.9964C40.9844 24.6912 40.9305 25.3911 40.8194 26.0775C40.7385 26.5779 40.4943 27.0242 39.9318 27.1662C39.9167 27.1696 39.9015 27.1747 39.8864 27.1781C39.3862 27.2862 39.2666 27.1933 39.2666 26.6946V24.4343C39.2666 23.6177 39.275 22.8012 39.2599 21.9863C39.2565 21.7767 39.339 21.7209 39.5158 21.6956C40.0783 21.6178 40.5027 21.8562 40.7284 22.3752C40.9524 22.8942 41.0097 23.447 40.9979 23.9964Z" fill="#351C15"/>
<path d="M36.5467 28.0517C36.5467 28.2495 36.4844 28.3645 36.3177 28.4608C35.3931 28.9984 34.3894 29.1574 33.3402 29.1033C32.8467 29.0762 32.3752 28.968 31.9474 28.7077C31.2569 28.2884 30.9235 27.6358 30.8123 26.8683C30.7483 26.4153 30.7382 25.9537 30.7365 25.4956C30.7281 23.7543 30.7382 22.0114 30.7315 20.2684C30.7298 20.0605 30.7938 20.0013 30.9959 20.0047C31.5533 20.0165 32.1124 20.0182 32.6699 20.0047C32.8821 19.9996 32.9259 20.0757 32.9242 20.2735C32.9141 21.8288 32.9124 23.3841 32.909 24.9411C32.909 25.3519 32.9141 25.7644 32.9225 26.1769C32.9242 26.2766 32.9393 26.3781 32.9579 26.4778C33.0673 27.0898 33.7039 27.3772 34.2277 27.0442C34.2799 27.0103 34.3052 26.9005 34.3052 26.8261C34.3102 25.1778 34.3068 23.5278 34.3085 21.8795C34.3085 21.3182 34.3153 20.7587 34.3153 20.1991C34.3153 20.0723 34.3388 19.9911 34.4921 19.9911C35.1337 19.9928 35.7771 19.9861 36.4204 19.9844C36.4507 19.9844 36.4793 19.9962 36.5417 20.008V22.4509C36.5417 24.319 36.5383 26.1853 36.5467 28.0517Z" fill="#FEB501"/>
<path d="M46.3232 29.0424C45.8432 29.1472 45.3666 29.1371 44.9001 28.9934C44.4656 28.8582 44.0362 28.7009 43.6084 28.5386C43.536 28.5116 43.4417 28.4068 43.44 28.3358C43.4316 27.7001 43.4434 27.0628 43.4501 26.4254C43.4501 26.3798 43.4568 26.3341 43.4686 26.2209C43.6067 26.3409 43.7044 26.4237 43.8021 26.5083C44.1642 26.8261 44.5751 27.0476 45.0466 27.1524C45.0769 27.1591 45.1073 27.1676 45.1376 27.1727C45.6159 27.2606 46.0234 27.0983 46.18 26.7602C46.3535 26.3866 46.2491 25.9301 45.8718 25.6376C45.5317 25.3722 45.1527 25.1541 44.7957 24.909C44.2703 24.5506 43.7785 24.1432 43.5579 23.5261C42.7663 21.303 44.405 19.6497 46.404 19.8407C46.9766 19.8965 47.5088 20.0689 47.9837 20.4054C48.0999 20.4882 48.1589 20.5761 48.1572 20.7299C48.1488 21.374 48.1538 22.0181 48.1538 22.7282C48.0157 22.5896 47.913 22.4864 47.8103 22.3816C47.364 21.9387 46.8554 21.6395 46.2019 21.6868C45.9055 21.7088 45.6529 21.8187 45.5535 22.1263C45.4542 22.4374 45.5165 22.7282 45.7725 22.9294C46.0638 23.1576 46.3838 23.352 46.6954 23.5532C47.3084 23.9471 47.8911 24.3782 48.1942 25.0696C48.8056 26.4711 48.3306 28.6046 46.3232 29.0424Z" fill="#FEB501"/>
</g>
</g>
<defs>
<filter id="filter0_d_353_550" x="0" y="0" width="79.9688" height="58" filterUnits="userSpaceOnUse" color-interpolation-filters="sRGB">
<feFlood flood-opacity="0" result="BackgroundImageFix"/>
<feColorMatrix in="SourceAlpha" type="matrix" values="0 0 0 0 0 0 0 0 0 0 0 0 0 0 0 0 0 0 127 0" result="hardAlpha"/>
<feOffset dy="4"/>
<feGaussianBlur stdDeviation="5"/>
<feComposite in2="hardAlpha" operator="out"/>
<feColorMatrix type="matrix" values="0 0 0 0 0 0 0 0 0 0 0 0 0 0 0 0 0 0 0.25 0"/>
<feBlend mode="normal" in2="BackgroundImageFix" result="effect1_dropShadow_353_550"/>
<feBlend mode="normal" in="SourceGraphic" in2="effect1_dropShadow_353_550" result="shape"/>
</filter>
<clipPath id="clip0_353_550">
<rect width="20.9891" height="25" fill="white" transform="translate(28.9902 12)"/>
</clipPath>
</defs>
</svg>
