<svg width="81" height="58" viewBox="0 0 81 58" fill="none" xmlns="http://www.w3.org/2000/svg">
<g opacity="0.8" filter="url(#filter0_d_353_560)">
<rect x="10.96" y="6" width="59.9688" height="38" rx="5" fill="#EBEBEB"/>
<g clip-path="url(#clip0_353_560)">
<path d="M42.0541 18.0036C43.225 18.0036 44.3978 18.0036 45.5687 18.0036C45.5687 18.0307 45.5706 18.0559 45.5706 18.083C45.5706 22.8725 45.5706 27.6639 45.5706 32.4534C44.5221 32.4552 43.4716 32.457 42.4231 32.4588C42.0428 32.4588 42.0428 32.4588 42.0428 32.0926C42.0428 31.9104 42.0428 31.7282 42.0428 31.537C42.0014 31.5514 41.9901 31.5532 41.9826 31.5586C41.9694 31.5676 41.9581 31.5803 41.9487 31.5929C41.3896 32.3307 40.6404 32.7745 39.7067 32.9387C39.6747 32.9441 39.622 32.9387 39.6352 32.9982C39.2926 32.9982 38.9499 32.9982 38.6073 32.9982C38.5979 32.917 38.5264 32.9423 38.4793 32.9369C37.5569 32.8124 36.7418 32.4498 36.0472 31.8635C35.0514 31.0229 34.4716 29.9567 34.2607 28.7048C34.2438 28.6091 34.2532 28.5153 34.0894 28.5153C31.8568 28.5207 29.6242 28.5207 27.3935 28.5171C27.2636 28.5171 27.2354 28.5568 27.2466 28.6741C27.3276 29.5039 27.9055 30.2057 28.7583 30.4167C29.4736 30.5953 30.4017 30.5358 30.9212 29.7529C30.9626 29.6897 31.0153 29.6627 31.0982 29.6627C32.1599 29.6645 33.2197 29.6663 34.2814 29.6627C34.3944 29.6627 34.4151 29.6933 34.3699 29.7907C33.8635 30.9074 33.1181 31.8274 31.9585 32.374C30.6426 32.9946 29.2534 33.0938 27.8396 32.7817C26.3807 32.4606 25.2418 31.6813 24.4888 30.433C23.7678 29.2369 23.6361 27.9471 23.9128 26.6085C23.958 26.3867 23.9655 26.3867 23.7302 26.3867C22.5537 26.3867 21.3771 26.3867 20.1987 26.3867C19.9728 26.3867 19.9728 26.3867 19.9728 26.5977C19.9728 28.4883 19.9709 30.3788 19.9766 32.2694C19.9766 32.4191 19.9427 32.466 19.777 32.4642C18.5064 32.457 17.2357 32.4606 15.965 32.4606C15.965 27.6891 15.965 22.9176 15.9613 18.1461C15.9575 18.0271 15.9857 18 16.11 18C19.0334 18.0036 21.9569 18.0036 24.8804 18.0036C24.8785 18.0722 24.8729 18.1407 24.8729 18.2093C24.8729 19.1419 24.8729 20.0728 24.8729 21.0054C24.8729 21.2309 24.8729 21.2309 24.6413 21.2309C23.1542 21.2309 21.6689 21.2327 20.1817 21.2273C20.0236 21.2273 19.9596 21.2544 19.9634 21.4257C19.9766 21.9814 19.9747 22.537 19.9634 23.0926C19.9615 23.2477 20.0086 23.2856 20.1667 23.2856C21.5371 23.2802 22.9076 23.2838 24.278 23.2802C24.4135 23.2802 24.4606 23.3127 24.4587 23.448C24.4512 23.9621 24.455 24.4744 24.4568 24.9886C24.4568 25.0283 24.4324 25.0806 24.4926 25.1203C24.5284 25.0661 24.5604 25.0174 24.5924 24.9687C25.063 24.2598 25.6917 23.7168 26.4692 23.3325C27.6194 22.7643 28.8449 22.6182 30.1099 22.7751C32.1674 23.0313 33.5812 24.092 34.3078 25.9663C34.3398 26.0475 34.3718 26.1287 34.4188 26.2477C34.4509 26.163 34.4716 26.1161 34.4885 26.0673C35.1662 24.1281 36.9545 22.7084 39.2342 22.7625C40.2658 22.7877 41.1769 23.0764 41.8979 23.816C41.9299 23.8503 41.9581 23.8936 42.0165 23.9026C42.0673 23.8413 42.0428 23.7709 42.0428 23.7041C42.0447 21.8767 42.0447 20.0511 42.0447 18.2237C42.0428 18.1515 42.0504 18.0776 42.0541 18.0036ZM41.9337 27.9308C41.9355 27.3247 41.8414 26.8034 41.5835 26.3145C40.9115 25.0391 39.2398 25.1383 38.5226 25.8815C37.6172 26.8178 37.54 28.5424 38.3645 29.5436C39.2606 30.6332 41.1411 30.4979 41.7115 29.08C41.8678 28.6867 41.9393 28.2844 41.9337 27.9308ZM29.2477 26.4227C29.8332 26.4227 30.4186 26.4227 31.0041 26.4209C31.0643 26.4209 31.1641 26.457 31.1302 26.3271C31.021 25.9158 30.829 25.5532 30.4751 25.288C29.5696 24.6115 27.8867 24.7541 27.3916 26.2694C27.3464 26.4083 27.3954 26.4263 27.5234 26.4263C28.0994 26.4209 28.6736 26.4227 29.2477 26.4227Z" fill="#462895"/>
<path d="M53.9571 32.4496C53.9025 32.4532 53.8479 32.4586 53.7914 32.4586C51.0995 32.4586 48.4094 32.4586 45.7175 32.4586C45.6685 32.4586 45.6177 32.455 45.5688 32.4532C45.5688 27.6637 45.5688 22.8723 45.5688 18.0828C45.5688 18.0557 45.5669 18.0305 45.5669 18.0034C48.3624 18.0034 51.1597 18.0034 53.9552 18.0034C53.9269 18.0648 53.9401 18.1297 53.9401 18.191C53.9401 19.1435 53.9363 20.0978 53.9439 21.0503C53.9458 21.2019 53.8949 21.2325 53.7481 21.2307C52.2779 21.2253 50.8096 21.2271 49.3394 21.2289C49.0721 21.2289 49.1172 21.2019 49.1153 21.4508C49.1135 22.001 49.1191 22.553 49.1116 23.1032C49.1097 23.2439 49.1417 23.2872 49.2979 23.2872C50.7794 23.2818 52.2591 23.2836 53.7406 23.2836C53.8234 23.2836 53.9062 23.2872 53.9891 23.2908C53.9891 23.3035 53.9891 23.3161 53.9891 23.3269C53.9025 23.363 53.942 23.437 53.942 23.4929C53.9382 24.3985 53.9363 25.3041 53.9439 26.2079C53.9458 26.3576 53.8968 26.3883 53.75 26.3883C52.2591 26.3829 50.7663 26.3865 49.2754 26.3829C49.1436 26.3829 49.1116 26.4171 49.1135 26.5398C49.1191 27.3823 49.121 28.2229 49.1135 29.0654C49.1116 29.2043 49.1586 29.2259 49.2904 29.2259C50.7813 29.2223 52.2741 29.2259 53.765 29.2187C53.9156 29.2187 53.9458 29.2602 53.9458 29.3973C53.9401 30.3444 53.942 31.2933 53.9439 32.2403C53.9439 32.2963 53.9025 32.3702 53.9928 32.4045C53.9796 32.4207 53.9683 32.4352 53.9571 32.4496Z" fill="#FF7A08"/>
<path d="M53.957 32.4495C53.9683 32.4351 53.9796 32.4207 53.9909 32.4044C54.2281 32.1465 54.4615 31.8867 54.7006 31.6305C55.8339 30.4093 56.9671 29.188 58.1041 27.9685C58.1719 27.8945 58.1794 27.8548 58.1079 27.7773C57.2834 26.8951 56.4626 26.0094 55.6418 25.1218C55.0884 24.5247 54.5406 23.924 53.989 23.3233C53.989 23.3106 53.989 23.298 53.989 23.2872C54.0549 23.2854 54.1208 23.28 54.1867 23.28C55.5345 23.28 56.8824 23.2818 58.2302 23.2764C58.3771 23.2764 58.475 23.3215 58.5691 23.4225C59.1846 24.0809 59.8059 24.734 60.4177 25.3942C60.5118 25.4952 60.5551 25.4971 60.6473 25.3942C61.2384 24.7358 61.8389 24.0863 62.43 23.4297C62.5279 23.3197 62.6296 23.2764 62.782 23.2764C64.0809 23.2836 65.378 23.28 66.6769 23.28C66.7371 23.28 66.7973 23.28 66.8595 23.28C66.8783 23.3521 66.818 23.3774 66.7842 23.4135C65.4514 24.8494 64.1186 26.2836 62.782 27.7159C62.6841 27.8206 62.6841 27.8729 62.7839 27.9793C64.1638 29.4514 65.538 30.9306 66.9122 32.4081C66.9197 32.4153 66.9216 32.4261 66.9272 32.4369C66.8933 32.4766 66.8463 32.4568 66.8049 32.4568C65.3968 32.4586 63.9868 32.4568 62.5787 32.4604C62.4808 32.4604 62.4168 32.4315 62.3528 32.3612C61.7241 31.6793 61.0897 31.001 60.4647 30.3173C60.3781 30.2234 60.3405 30.2271 60.2576 30.3191C59.6289 31.0082 58.9926 31.6919 58.3601 32.3774C58.3149 32.4261 58.2716 32.4604 58.1945 32.4586C56.7977 32.455 55.399 32.4568 54.0022 32.455C53.9909 32.4586 53.974 32.4532 53.957 32.4495Z" fill="#FF7A08"/>
</g>
</g>
<defs>
<filter id="filter0_d_353_560" x="0.959961" y="0" width="79.9688" height="58" filterUnits="userSpaceOnUse" color-interpolation-filters="sRGB">
<feFlood flood-opacity="0" result="BackgroundImageFix"/>
<feColorMatrix in="SourceAlpha" type="matrix" values="0 0 0 0 0 0 0 0 0 0 0 0 0 0 0 0 0 0 127 0" result="hardAlpha"/>
<feOffset dy="4"/>
<feGaussianBlur stdDeviation="5"/>
<feComposite in2="hardAlpha" operator="out"/>
<feColorMatrix type="matrix" values="0 0 0 0 0 0 0 0 0 0 0 0 0 0 0 0 0 0 0.25 0"/>
<feBlend mode="normal" in2="BackgroundImageFix" result="effect1_dropShadow_353_560"/>
<feBlend mode="normal" in="SourceGraphic" in2="effect1_dropShadow_353_560" result="shape"/>
</filter>
<clipPath id="clip0_353_560">
<rect width="50.9734" height="15" fill="white" transform="translate(15.9575 18)"/>
</clipPath>
</defs>
</svg>
