<svg width="81" height="58" viewBox="0 0 81 58" fill="none" xmlns="http://www.w3.org/2000/svg">
<g opacity="0.8" filter="url(#filter0_d_353_531)">
<rect x="10.9199" y="6" width="59.9688" height="38" rx="5" fill="#EBEBEB"/>
<g clip-path="url(#clip0_353_531)">
<path d="M63.4017 34H18.4073C17.5842 34 16.917 33.36 16.917 32.5706V17.4294C16.917 16.64 17.5842 16 18.4073 16H63.4017C64.2248 16 64.892 16.64 64.892 17.4294V32.5706C64.892 33.36 64.2248 34 63.4017 34Z" fill="#FECC00"/>
<path d="M19.5186 25.9448C19.5723 25.9461 19.6247 25.9501 19.6785 25.9501C21.6967 25.9501 23.7136 25.9501 25.7319 25.9501C25.7843 25.9501 25.8353 25.9554 25.8987 25.958C25.8821 25.9885 25.8739 26.0083 25.8628 26.0242C25.787 26.1233 25.7098 26.2212 25.6354 26.3217C25.605 26.3613 25.5706 26.3838 25.5196 26.3785C25.4948 26.3759 25.4699 26.3785 25.4451 26.3785C23.5123 26.3785 21.5809 26.3785 19.6481 26.3785C19.6054 26.3785 19.5627 26.3759 19.5199 26.3759C19.5186 26.2318 19.5186 26.089 19.5186 25.9448Z" fill="#D50029"/>
<path d="M19.5186 26.7249C19.5613 26.7222 19.604 26.7183 19.6468 26.7183C21.4899 26.7183 23.3331 26.7183 25.1763 26.7183C25.2149 26.7183 25.2535 26.7183 25.3073 26.7183C25.2935 26.7513 25.288 26.7725 25.2756 26.7897C25.2011 26.8902 25.1225 26.988 25.0481 27.0885C25.0178 27.1295 24.9805 27.1467 24.9309 27.1427C24.9102 27.1414 24.8882 27.1427 24.8661 27.1427C23.1305 27.1427 21.3934 27.1427 19.6578 27.1427C19.6123 27.1427 19.5654 27.1387 19.5199 27.1361C19.5186 26.9986 19.5186 26.8611 19.5186 26.7249Z" fill="#D50029"/>
<path d="M19.5185 27.4836C19.5612 27.4823 19.6039 27.481 19.6467 27.481C21.2858 27.481 22.9263 27.481 24.5655 27.481C24.611 27.481 24.6579 27.481 24.7171 27.481C24.7034 27.514 24.6992 27.5365 24.6868 27.5537C24.6124 27.6542 24.5338 27.752 24.4593 27.8512C24.4318 27.8882 24.3987 27.9067 24.3504 27.9028C24.3215 27.9001 24.2939 27.9028 24.265 27.9028C22.732 27.9028 21.199 27.9028 19.666 27.9028C19.6163 27.9028 19.5667 27.8975 19.5171 27.8948C19.5185 27.7573 19.5185 27.6211 19.5185 27.4836Z" fill="#D50029"/>
<path d="M37.2705 25.5032C37.2898 25.4754 37.3091 25.4463 37.3298 25.4199C38.1583 24.3396 38.9882 23.2606 39.8154 22.1803C39.8595 22.1221 39.9064 22.097 39.9836 22.097C41.2174 22.0997 42.4513 22.0983 43.6865 22.0983C43.7209 22.0983 43.754 22.1023 43.8119 22.1063C43.6424 22.3377 43.4783 22.5466 43.317 22.7568C43.153 22.9724 42.9875 23.1866 42.8221 23.4021C42.6608 23.6137 42.4995 23.8239 42.3272 24.0487C42.3782 24.0513 42.4099 24.0553 42.4402 24.0553C42.9434 24.0553 43.4466 24.054 43.9484 24.0566C44.0242 24.0566 44.0725 24.0341 44.1166 23.9746C44.5674 23.3836 45.0223 22.7965 45.4718 22.2041C45.531 22.1261 45.5903 22.0957 45.6909 22.0957C46.9069 22.0983 48.1228 22.0983 49.3401 22.0983C49.3814 22.0983 49.4228 22.0983 49.489 22.0983C49.4545 22.1486 49.4338 22.179 49.4118 22.2081C48.7418 23.0821 48.0718 23.9548 47.4018 24.8275C47.2405 25.0364 47.0792 25.2453 46.9207 25.4569C46.8807 25.5098 46.8379 25.5389 46.769 25.5323C46.7414 25.5296 46.7125 25.5323 46.6835 25.5323C43.6024 25.5323 40.5199 25.5323 37.4387 25.5323C37.3863 25.5323 37.3339 25.5323 37.2815 25.5323C37.2774 25.5217 37.2746 25.5124 37.2705 25.5032Z" fill="#D50029"/>
<path d="M25.6821 23.8913C25.7152 23.8424 25.7304 23.816 25.7483 23.7922C26.1605 23.2553 26.5741 22.7185 26.9835 22.179C27.0318 22.1155 27.0828 22.0957 27.1614 22.0957C29.7476 22.097 32.3338 22.097 34.9201 22.097C35.284 22.097 35.6383 22.1407 35.9788 22.2676C36.34 22.4025 36.6447 22.6114 36.857 22.9261C37.0652 23.2342 37.1465 23.57 37.0748 23.935C37.0445 24.0884 36.9797 24.2285 36.8832 24.3541C36.602 24.7204 36.3193 25.0867 36.0409 25.4543C35.9981 25.5111 35.9499 25.5309 35.8796 25.5309C34.9063 25.5296 33.9316 25.5309 32.9583 25.5283C32.8591 25.5283 32.7584 25.519 32.6619 25.4966C32.5199 25.4635 32.4869 25.3802 32.5572 25.2572C32.5806 25.2149 32.6123 25.1766 32.6413 25.1382C32.8605 24.8473 33.0824 24.5578 33.3002 24.2655C33.3402 24.2127 33.3774 24.1584 33.4064 24.1003C33.4588 23.9932 33.4243 23.9323 33.3044 23.9046C33.274 23.8966 33.241 23.894 33.2092 23.894C33.1376 23.8913 33.0672 23.8913 32.9956 23.8913C30.6161 23.8913 28.2367 23.8913 25.8572 23.8913C25.809 23.8913 25.7593 23.8913 25.6821 23.8913Z" fill="#D50029"/>
<path d="M25.1499 27.8776C25.1692 27.8498 25.1857 27.8208 25.2064 27.7943C26.0749 26.6625 26.9448 25.5293 27.812 24.3961C27.8575 24.3366 27.9057 24.3154 27.9815 24.3154C29.0761 24.3168 30.1721 24.3168 31.2667 24.3168C31.3205 24.3168 31.3742 24.3168 31.4266 24.326C31.5962 24.3538 31.6389 24.4344 31.559 24.5786C31.5314 24.6301 31.4956 24.6777 31.4597 24.7253C31.235 25.0202 31.0075 25.3151 30.7828 25.6113C30.7497 25.6549 30.718 25.7025 30.6974 25.7527C30.667 25.8215 30.6891 25.8731 30.7608 25.9035C30.8063 25.922 30.8559 25.9352 30.9041 25.9405C30.9896 25.9484 31.0751 25.9511 31.1606 25.9511C32.6012 25.9537 34.0432 25.955 35.4838 25.9564C35.5293 25.9564 35.5748 25.9564 35.6355 25.9564C35.6176 25.9921 35.612 26.0145 35.5983 26.0317C34.8759 26.9335 33.9646 27.5589 32.7942 27.8102C32.5254 27.867 32.2538 27.9001 31.9781 27.9027C31.9036 27.9041 31.8278 27.9041 31.7534 27.9041C29.6055 27.9041 27.459 27.9041 25.3112 27.9041C25.2616 27.9041 25.2119 27.9041 25.1637 27.9041C25.1568 27.8948 25.1527 27.8869 25.1499 27.8776Z" fill="#D50029"/>
<path d="M56.6979 25.9805C56.6786 26.0082 56.6621 26.0373 56.6414 26.0638C56.192 26.6508 55.7398 27.2366 55.2918 27.825C55.2463 27.8845 55.1967 27.9043 55.1222 27.9043C53.046 27.903 50.9713 27.903 48.8951 27.903C48.5615 27.903 48.2334 27.8726 47.9135 27.7734C47.7495 27.7219 47.5951 27.6531 47.46 27.5473C47.2697 27.3979 47.1581 27.2115 47.1732 26.9695C47.1829 26.8267 47.2339 26.6945 47.3194 26.5781C47.4614 26.3851 47.6089 26.196 47.7523 26.0043C47.7771 25.9712 47.8074 25.9527 47.8515 25.9553C47.8874 25.9566 47.9232 25.9553 47.959 25.9553C50.8155 25.9553 53.6719 25.9553 56.5284 25.9553C56.5808 25.9553 56.6345 25.9553 56.6869 25.9553C56.691 25.9646 56.6952 25.9725 56.6979 25.9805Z" fill="#D50029"/>
<path d="M54.9168 22.1035C54.8823 22.1524 54.8644 22.1815 54.8437 22.208C54.0152 23.2882 53.1853 24.3672 52.3581 25.4475C52.314 25.5057 52.2657 25.5321 52.1899 25.5308C50.8775 25.5295 49.5651 25.5295 48.2527 25.5295C48.2182 25.5295 48.1851 25.5242 48.1313 25.5202C48.1617 25.4779 48.1796 25.4488 48.1989 25.4224C49.0302 24.3408 49.8615 23.2578 50.6914 22.1749C50.7369 22.1167 50.7865 22.0942 50.861 22.0942C52.1692 22.0956 53.4789 22.0956 54.7872 22.0956C54.8244 22.0969 54.8589 22.1008 54.9168 22.1035Z" fill="#D50029"/>
<path d="M40.8507 25.9581C40.8163 26.0071 40.7984 26.0348 40.7777 26.0626C40.3324 26.6444 39.8844 27.2249 39.4418 27.808C39.3881 27.8794 39.3302 27.9058 39.2378 27.9058C38.0177 27.9032 36.7977 27.9045 35.5776 27.9032C35.5363 27.9032 35.4963 27.8992 35.437 27.8966C35.466 27.8516 35.4825 27.8238 35.5032 27.7974C35.9526 27.2103 36.4048 26.6246 36.8528 26.0361C36.8969 25.978 36.9452 25.9449 37.021 25.9555C37.0252 25.9555 37.0279 25.9555 37.032 25.9555C38.2521 25.9542 39.4722 25.9515 40.6908 25.9502C40.7363 25.9502 40.7818 25.9542 40.8507 25.9581Z" fill="#D50029"/>
<path d="M46.5086 25.9832C46.4865 26.0136 46.4659 26.0453 46.4438 26.0744C46.0027 26.6496 45.5588 27.2248 45.119 27.8026C45.0625 27.8767 45.0046 27.9058 44.9081 27.9058C43.6921 27.9031 42.4762 27.9031 41.2589 27.9031C41.2176 27.9031 41.1762 27.9031 41.1128 27.9031C41.139 27.8595 41.1514 27.8317 41.1693 27.8092C41.6256 27.2142 42.0833 26.6205 42.5383 26.0229C42.5838 25.9634 42.6361 25.9541 42.7023 25.9541C43.6825 25.9554 44.664 25.9541 45.6442 25.9541C45.891 25.9541 46.1364 25.9541 46.3832 25.9541C46.4218 25.9541 46.459 25.9541 46.4976 25.9541C46.5017 25.9647 46.5045 25.9739 46.5086 25.9832Z" fill="#D50029"/>
<path d="M62.2796 27.481C62.2948 27.6291 62.292 27.76 62.281 27.9028C60.1676 27.9028 58.0667 27.9028 55.9478 27.9028C55.9684 27.8632 55.9767 27.842 55.9905 27.8235C56.0608 27.7296 56.1352 27.6371 56.2042 27.5418C56.2359 27.4995 56.2731 27.4744 56.3296 27.4797C56.3544 27.4823 56.3793 27.4797 56.4041 27.4797C58.3079 27.4797 60.2117 27.4797 62.1156 27.4797C62.1666 27.481 62.2162 27.481 62.2796 27.481Z" fill="#D50029"/>
<path d="M62.2798 26.7184C62.2798 26.8665 62.2798 26.9974 62.2798 27.1349C60.3649 27.1349 58.4583 27.1349 56.5435 27.1349C56.5517 27.1124 56.5545 27.0912 56.5655 27.0767C56.6427 26.9736 56.7227 26.8731 56.7985 26.7699C56.8261 26.7329 56.8592 26.7144 56.906 26.717C56.935 26.7184 56.9625 26.717 56.9915 26.717C58.6996 26.717 60.4076 26.717 62.1157 26.717C62.1654 26.7184 62.215 26.7184 62.2798 26.7184Z" fill="#D50029"/>
<path d="M57.1196 26.3717C57.1334 26.344 57.1389 26.3281 57.1486 26.3149C57.2258 26.2131 57.3057 26.1112 57.3816 26.0081C57.4119 25.9684 57.4477 25.9473 57.4987 25.9499C57.5277 25.9513 57.5553 25.9499 57.5842 25.9499C59.0924 25.9499 60.602 25.9499 62.1101 25.9499C62.1625 25.9499 62.2149 25.9499 62.2797 25.9499C62.2935 26.098 62.2894 26.2316 62.2825 26.3717C60.5592 26.3717 58.8484 26.3717 57.1196 26.3717Z" fill="#D50029"/>
</g>
</g>
<defs>
<filter id="filter0_d_353_531" x="0.919922" y="0" width="79.9688" height="58" filterUnits="userSpaceOnUse" color-interpolation-filters="sRGB">
<feFlood flood-opacity="0" result="BackgroundImageFix"/>
<feColorMatrix in="SourceAlpha" type="matrix" values="0 0 0 0 0 0 0 0 0 0 0 0 0 0 0 0 0 0 127 0" result="hardAlpha"/>
<feOffset dy="4"/>
<feGaussianBlur stdDeviation="5"/>
<feComposite in2="hardAlpha" operator="out"/>
<feColorMatrix type="matrix" values="0 0 0 0 0 0 0 0 0 0 0 0 0 0 0 0 0 0 0.25 0"/>
<feBlend mode="normal" in2="BackgroundImageFix" result="effect1_dropShadow_353_531"/>
<feBlend mode="normal" in="SourceGraphic" in2="effect1_dropShadow_353_531" result="shape"/>
</filter>
<clipPath id="clip0_353_531">
<rect width="47.975" height="18" fill="white" transform="translate(16.917 16)"/>
</clipPath>
</defs>
</svg>
