<svg width="127" height="58" viewBox="0 0 127 58" fill="none" xmlns="http://www.w3.org/2000/svg">
<g opacity="0.6" clip-path="url(#clip0_353_402)">
<path d="M0.277832 20.3545C0.725203 20.369 1.1668 20.4884 1.61994 20.436C1.68921 20.4273 1.76137 20.4389 1.83353 20.4331C2.57818 20.3865 2.57818 20.3865 2.57818 21.1404C2.57818 24.7147 2.57818 28.2861 2.57818 31.8604C2.57818 32.0147 2.57818 32.1718 2.57818 32.4076C3.02267 31.7818 3.42097 31.2113 3.90298 30.7107C5.05459 29.5144 6.46598 28.9992 8.08517 29.1942C9.73034 29.3921 10.9916 30.2595 11.8546 31.7003C12.657 33.0392 13.0091 34.4975 13.139 36.0489C13.3035 38.0369 12.9601 39.923 12.1317 41.7014C11.2572 43.5817 9.86888 44.9614 7.77634 45.3747C5.96088 45.7327 4.08192 45.1826 2.91588 43.4187C2.7629 43.1888 2.6792 43.1771 2.49159 43.375C2.03268 43.8611 1.53913 44.3152 1.08599 44.8071C0.855084 45.0574 0.618411 45.2059 0.277832 45.136C0.277832 36.8784 0.277832 28.6179 0.277832 20.3545ZM10.6568 37.12C10.6395 36.5029 10.6106 36.0634 10.5789 35.6268C10.4923 34.4596 10.2181 33.3565 9.64952 32.3377C8.99723 31.1677 7.95529 30.571 6.66224 30.5855C5.47599 30.5972 4.50909 31.1502 3.84525 32.2009C3.00535 33.534 2.7225 35.0272 2.58973 36.5553C2.50891 37.4955 2.44541 38.4385 2.55798 39.3961C2.71095 40.7001 3.01689 41.9226 3.77021 43.0141C4.44848 43.9979 5.9147 44.548 7.06343 44.2977C8.24969 44.0387 8.99723 43.2586 9.5283 42.2486C10.4028 40.5953 10.6193 38.7849 10.6568 37.12Z" fill="#383838"/>
<path d="M16.0977 32.7944C16.0977 28.8795 16.0977 24.9647 16.0977 21.0469C16.0977 20.3483 16.0977 20.3629 16.773 20.424C17.1944 20.4618 17.6216 20.4706 18.0459 20.4007C18.5712 20.3134 18.6491 20.3716 18.6491 20.9072C18.652 24.2806 18.6491 27.6512 18.6549 31.0247C18.6549 31.2139 18.5539 31.4875 18.7617 31.5719C18.9897 31.665 19.1744 31.4438 19.3332 31.2837C20.2163 30.3931 20.935 29.3656 21.6912 28.3672C23.6308 25.8029 25.5733 23.2415 27.5099 20.6743C27.6802 20.4502 27.8736 20.3192 28.1622 20.3774C28.6269 20.4706 29.0887 20.4706 29.5534 20.3803C29.6602 20.36 29.7987 20.3221 29.8622 20.4444C29.9315 20.5754 29.793 20.6423 29.7237 20.7267C28.0006 22.8602 26.2862 25.0054 24.5457 27.1244C23.4894 28.4109 22.5023 29.7527 21.4574 31.0451C21.2612 31.2896 21.2496 31.47 21.4401 31.7523C23.6885 35.0792 26.0668 38.3159 28.2661 41.6778C28.9271 42.6907 29.5649 43.721 30.2086 44.7456C30.2836 44.862 30.4077 44.9872 30.3125 45.1298C30.2144 45.2754 30.0585 45.188 29.92 45.1764C29.1551 45.1211 28.3902 45.1036 27.6283 45.1822C27.3425 45.2113 27.1751 45.1444 27.0366 44.8999C24.6843 40.7376 21.824 36.9101 19.2177 32.9166C19.1946 32.8817 19.1686 32.8468 19.1427 32.8118C19.0474 32.6867 18.9435 32.5237 18.7761 32.5644C18.5683 32.6168 18.6549 32.8293 18.6549 32.969C18.6491 36.7412 18.652 40.5135 18.652 44.2857C18.652 45.1502 18.652 45.1444 17.815 45.1444C17.3474 45.1444 16.8798 45.1415 16.4123 45.1735C16.1727 45.188 16.1063 45.0862 16.1034 44.8824C16.1005 44.7398 16.1005 44.5972 16.1005 44.4545C16.0977 40.5688 16.0977 36.6801 16.0977 32.7944Z" fill="#383838"/>
<path d="M61.429 32.0089C61.8504 31.4588 62.2689 30.9465 62.7423 30.475C64.3239 28.8974 67.0313 28.6966 68.7803 30.085C69.6722 30.7923 70.033 31.8227 70.2552 32.9054C70.437 33.8019 70.5294 34.7101 70.5294 35.624C70.5294 38.6249 70.5294 41.6258 70.5294 44.6267C70.5294 45.1972 70.5265 45.1827 69.9724 45.1565C69.5192 45.1361 69.0632 45.1274 68.6129 45.1681C68.3156 45.1943 68.2233 45.0924 68.2319 44.8217C68.2348 44.6937 68.2319 44.5656 68.2319 44.4346C68.2319 41.8063 68.2579 39.175 68.2204 36.5467C68.206 35.525 68.1771 34.4947 67.9606 33.4817C67.6172 31.8721 66.7224 30.996 65.3197 30.9058C63.6861 30.801 62.3815 31.6276 61.8504 33.1005C61.5676 33.8863 61.4232 34.6926 61.4232 35.5309C61.4319 38.5318 61.4261 41.5327 61.4261 44.5336C61.4261 45.1768 61.4232 45.1652 60.8085 45.1448C60.3553 45.1303 59.8993 45.1303 59.4519 45.171C59.1633 45.1972 59.0565 45.0983 59.0507 44.8305C59.0479 44.7024 59.0479 44.5743 59.0479 44.4434C59.0479 36.6573 59.0479 28.8683 59.0479 21.0823C59.0479 20.9542 59.0507 20.8261 59.0507 20.6951C59.0507 20.4361 59.1893 20.3255 59.4317 20.3691C59.9686 20.4623 60.4996 20.4623 61.0365 20.3691C61.2789 20.3255 61.4204 20.4274 61.4232 20.6893C61.4232 20.8319 61.4261 20.9746 61.4261 21.1172C61.4261 24.5751 61.4261 28.033 61.4261 31.4908C61.429 31.6684 61.429 31.8372 61.429 32.0089Z" fill="#383838"/>
<path d="M42.3771 38.7528C42.3771 40.1965 42.3742 41.6373 42.3771 43.081C42.3799 43.8843 42.6397 44.1114 43.4248 43.9978C43.6239 43.9687 43.8433 43.8902 43.8895 44.187C43.927 44.4315 43.927 44.6702 43.6297 44.7896C42.9687 45.0602 42.2789 45.1417 41.5862 45.0166C40.7954 44.874 40.4086 44.2889 40.1922 43.5583C40.1604 43.4565 40.1979 43.2993 40.0623 43.2673C39.9237 43.2323 39.8862 43.3866 39.8169 43.4681C38.749 44.7372 37.3752 45.4445 35.7387 45.4474C34.0675 45.4503 32.6763 44.5596 32.1106 42.7521C31.7498 41.5965 31.8278 40.4294 32.2723 39.3087C32.6244 38.421 33.2969 37.8127 34.1541 37.4255C35.196 36.954 36.3188 36.7735 37.4329 36.5582C37.9062 36.4679 38.3796 36.3748 38.8385 36.238C39.7708 35.9586 40.1287 35.4637 40.1575 34.4858C40.1691 34.0404 40.094 33.6038 40.0161 33.1701C39.6178 30.99 37.609 30.1983 35.8166 30.7193C34.8381 31.0017 34.1195 31.6013 33.6577 32.5181C33.5913 32.6491 33.548 32.8558 33.3488 32.8179C33.141 32.7772 33.1959 32.5705 33.1901 32.425C33.1814 32.1834 33.2189 31.9331 33.1814 31.6973C33.0833 31.0948 33.3864 30.7426 33.8539 30.4457C35.3375 29.5027 36.9191 28.9904 38.6913 29.2436C40.576 29.5143 41.6497 30.664 42.1057 32.4716C42.2818 33.1643 42.3684 33.8745 42.3713 34.5876C42.3828 35.9818 42.3771 37.3673 42.3771 38.7528ZM40.0796 39.6668C40.0565 38.9682 40.1315 38.1532 39.9988 37.3469C39.9613 37.1228 39.9064 37.0035 39.6524 37.0617C38.4691 37.3382 37.2511 37.4896 36.137 38.0077C35.1903 38.4501 34.5033 39.1341 34.3302 40.2227C34.2522 40.703 34.2695 41.1949 34.31 41.6751C34.4081 42.8248 35.1325 43.6864 36.1831 43.9455C37.101 44.1725 37.9293 43.9571 38.6538 43.375C39.511 42.688 40.2874 41.9516 40.0854 40.6768C40.0421 40.3857 40.0796 40.0772 40.0796 39.6668Z" fill="#383838"/>
<path d="M51.3818 29.1825C52.3141 29.1476 53.18 29.3892 54.0227 29.7501C54.3922 29.9073 54.5394 30.114 54.372 30.5447C54.1815 31.0337 54.0776 31.5577 53.9304 32.0641C53.8929 32.1951 53.8871 32.3785 53.7081 32.3872C53.535 32.3959 53.5003 32.2184 53.4426 32.0932C53.1944 31.5548 52.874 31.0687 52.4036 30.7019C51.0412 29.6366 48.9574 30.5215 48.6745 32.2708C48.5302 33.1585 48.6312 33.9852 49.1998 34.6983C49.6385 35.2513 50.2821 35.5133 50.9085 35.7811C51.4424 36.011 51.9879 36.2089 52.5363 36.4068C55.1888 37.3616 55.6795 39.5067 55.0791 41.8265C54.5365 43.9222 52.6085 45.2291 50.5823 45.4067C49.3268 45.5173 48.1723 45.2291 47.0495 44.7081C46.6772 44.5364 46.4983 44.3414 46.6714 43.8815C46.8446 43.4187 46.9081 42.9122 47.0264 42.429C47.064 42.2719 47.0236 42.0448 47.2487 42.0157C47.4594 41.9866 47.5171 42.202 47.6066 42.3359C47.9587 42.8744 48.3455 43.375 48.8737 43.7592C49.7944 44.4287 50.7699 44.6062 51.7859 44.0677C52.7874 43.538 53.3156 42.6881 53.3531 41.5122C53.4051 39.8764 52.6085 39.1865 51.1451 38.6131C50.4207 38.3308 49.6616 38.1358 48.9429 37.8273C47.7047 37.2946 46.9543 36.3807 46.7667 35.0388C46.6079 33.9066 46.6657 32.7772 47.1621 31.7236C48.0049 29.9393 49.4913 29.2117 51.3818 29.1825Z" fill="#383838"/>
<path d="M126.298 23.2708C125.657 23.2795 125.016 23.297 124.387 23.3145C123.062 23.3494 121.697 23.3843 120.329 23.3494L120.375 23.2213C120.551 22.7207 120.725 22.22 120.906 21.7223C121.059 21.3003 121.215 20.8782 121.371 20.4562C121.573 19.9119 121.772 19.3705 121.968 18.8291C122.257 19.1202 122.549 19.4083 122.84 19.6994C123.415 20.2699 124.009 20.8578 124.557 21.4633C125.002 21.9552 125.47 22.4296 125.923 22.8895C126.05 23.0147 126.174 23.1427 126.298 23.2708Z" fill="#383838"/>
<path d="M114.577 31.8546C111.269 33.5137 108.276 35.0214 105.225 36.6136C104.221 37.1375 103.19 37.6527 102.194 38.1533C100.965 38.7675 99.6921 39.4049 98.4539 40.0656C97.2647 40.6972 96.0381 41.3143 94.8518 41.9081C93.8503 42.4116 92.8141 42.9326 91.8039 43.4595C91.7808 43.4711 91.7577 43.4857 91.7317 43.4973C91.726 43.4653 91.7173 43.4333 91.7116 43.4013C91.5095 42.5106 91.3075 41.6199 91.1054 40.7263C90.7447 39.1342 90.381 37.545 90.0289 35.9499C89.5728 33.9066 89.1255 31.8633 88.681 29.8171L88.2451 27.832C88.2047 27.6458 88.2711 27.4391 88.3462 27.1975C88.3693 27.1218 88.3923 27.0462 88.4125 26.9705C88.7849 25.6112 89.1659 24.2519 89.5469 22.8955C90.0058 21.2685 90.4791 19.5861 90.9265 17.927C91.9627 14.0791 93.0825 9.95758 94.2399 5.85061C94.3929 5.30923 94.5459 4.74456 94.7248 4.06055L105.41 19.0156C106.437 20.4535 107.465 21.8914 108.489 23.3321C108.989 24.0365 109.488 24.7409 109.987 25.4453C110.588 26.2923 111.185 27.1422 111.788 27.9863C112.689 29.2466 113.627 30.5477 114.577 31.8546Z" fill="#383838"/>
<path d="M93.3108 3.27451C93.0049 4.38348 92.7047 5.49245 92.4016 6.5985L91.7118 9.14535C91.3482 10.4755 90.9874 11.8086 90.6237 13.1388C90.3928 13.9858 90.1561 14.8328 89.9223 15.6798C89.6799 16.5588 89.4346 17.4379 89.195 18.3169C88.9122 19.3531 88.6293 20.3893 88.3493 21.4284C88.0578 22.4966 87.7692 23.5648 87.4777 24.6331C87.316 25.2152 87.1486 25.7915 86.9812 26.3707L86.9639 26.4377C86.5598 25.9138 86.1587 25.3898 85.7575 24.8659C84.8396 23.6725 83.9247 22.4762 83.0011 21.2858C82.2247 20.2845 81.4425 19.2891 80.6603 18.2907C79.9532 17.3884 79.2461 16.4861 78.5447 15.5809C78.005 14.8881 77.4739 14.1925 76.9399 13.4968C76.4175 12.8128 75.8922 12.1288 75.364 11.4477C74.8214 10.7491 74.273 10.0535 73.7275 9.35783C73.1791 8.66508 72.6336 7.97234 72.091 7.27378C71.609 6.6509 71.1328 6.0251 70.6537 5.3993C70.189 4.78806 69.7214 4.17973 69.2509 3.5714C68.5265 2.63998 67.7991 1.71148 67.0689 0.782972L66.457 0C66.4657 0.00291068 66.4744 0.00582135 66.4859 0.00582135C66.6013 0.0261961 66.7139 0.0436601 66.8265 0.0582135C67.7126 0.162998 68.5986 0.270693 69.4847 0.378388C70.0245 0.442423 70.5642 0.51519 71.101 0.587957C71.6408 0.657813 72.1805 0.73058 72.7202 0.794615C73.2455 0.85865 73.7708 0.916863 74.2961 0.975077C74.8128 1.03038 75.3294 1.08859 75.846 1.14972C76.3887 1.21666 76.9313 1.28652 77.4739 1.35929C78.0107 1.42914 78.5447 1.50191 79.0815 1.56594C79.4943 1.61543 79.907 1.65909 80.3197 1.70275C80.7267 1.7435 81.1337 1.78716 81.5406 1.83664C82.0804 1.90067 82.6201 1.97344 83.1598 2.04329C83.6996 2.11606 84.2393 2.18592 84.779 2.25286C85.1918 2.30235 85.6045 2.34601 86.0172 2.38967C86.4242 2.43041 86.8312 2.47408 87.2381 2.52065C87.7865 2.58759 88.3349 2.66036 88.8862 2.73313C89.4144 2.80298 89.9454 2.87284 90.4736 2.93978C91.4088 3.0533 92.1794 3.13771 92.9067 3.20174C92.9875 3.20757 93.0684 3.22503 93.1463 3.24249C93.2011 3.25414 93.256 3.26578 93.3108 3.27451Z" fill="#383838"/>
<path d="M91.0768 47.8107C90.3032 48.4365 89.5384 49.0681 88.7735 49.7026C88.2425 50.1421 87.7114 50.5816 87.1774 51.0182C86.5078 51.5654 85.8353 52.1097 85.1628 52.654C84.3922 53.274 83.6244 53.8969 82.8625 54.5227C81.7253 55.4541 80.5823 56.4117 79.4653 57.346L87.1659 30.1108L87.1717 30.1312C87.4718 31.508 87.7633 32.8352 88.0548 34.1654C88.202 34.832 88.3521 35.4956 88.4993 36.1592C88.6812 36.9626 88.8601 37.763 89.0362 38.5634C89.3133 39.8325 89.5875 41.1016 89.8645 42.3706C90.1128 43.5174 90.361 44.6613 90.6121 45.8081C90.7679 46.5271 90.9209 47.182 91.0768 47.8107Z" fill="#383838"/>
<path d="M120.372 18.4829C120.208 18.937 120.043 19.394 119.882 19.848C119.674 20.4214 119.469 20.9948 119.258 21.5682C118.987 22.3104 118.713 23.0498 118.438 23.792C118.13 24.6244 117.824 25.4598 117.518 26.2923C117.18 27.2179 116.848 28.1464 116.513 29.0719C116.285 29.7094 116.054 30.3439 115.826 30.9784L115.16 30.0528C114.383 28.9759 113.61 27.9019 112.839 26.8278C111.881 25.4947 110.923 24.1616 109.967 22.8256L108.807 21.2073C108.674 21.0181 108.541 20.8318 108.406 20.6426C108.989 20.5408 109.575 20.436 110.158 20.3341C111.243 20.142 112.328 19.9499 113.411 19.7549C114.285 19.5977 115.16 19.4347 116.034 19.2717C116.692 19.1465 117.347 19.0243 118.005 18.905C118.791 18.7623 119.576 18.6226 120.372 18.4829Z" fill="#383838"/>
<path d="M114.692 33.4961C114.548 33.9589 114.392 34.4159 114.227 34.899C114.219 34.9252 114.178 34.9456 114.037 34.998C113.996 35.0126 113.956 35.0271 113.918 35.0417C112.175 35.7548 110.432 36.4592 108.686 37.1665L104.645 38.8052C104.198 38.9856 103.753 39.1661 103.306 39.3466C104.2 38.8896 105.101 38.4268 105.987 37.9552C106.815 37.5157 107.67 37.0879 108.498 36.6746C109.439 36.2001 110.415 35.714 111.361 35.2018C112.161 34.771 112.989 34.3547 113.789 33.9502C114.092 33.7988 114.392 33.6474 114.692 33.4961Z" fill="#383838"/>
<path d="M72.6364 10.3651C72.899 10.7057 73.1617 11.0462 73.4243 11.3868C73.1703 11.1481 72.9164 10.9065 72.6624 10.6707C71.9725 10.0187 71.2827 9.36385 70.5958 8.71185L69.7703 7.92306C69.4384 7.61162 69.1094 7.30018 68.7775 6.98582C68.1107 6.35712 67.444 5.7255 66.783 5.09097C66.6734 4.98328 66.5608 4.87849 66.4482 4.77371C66.4973 4.77662 66.5464 4.77662 66.5983 4.77953C66.9649 4.79117 67.3459 4.80573 67.7326 4.74751C68.1252 4.69221 68.3532 4.81737 68.7168 5.29181C69.5192 6.34547 70.3447 7.41078 71.1442 8.43825C71.6435 9.08151 72.14 9.72186 72.6364 10.3651Z" fill="#383838"/>
</g>
<defs>
<clipPath id="clip0_353_402">
<rect width="126.02" height="57.3462" fill="white" transform="translate(0.277832)"/>
</clipPath>
</defs>
</svg>
