<svg width="45" height="52" viewBox="0 0 45 52" fill="none" xmlns="http://www.w3.org/2000/svg">
<g opacity="0.6" clip-path="url(#clip0_353_437)">
<path d="M44.0788 18.9089C44.0788 23.0646 44.1702 27.2232 44.0574 31.376C43.894 37.3878 41.2059 42.0394 35.8655 45.1347C31.5921 47.6124 27.0571 49.5646 22.4928 51.4558C22.311 51.531 22.0406 51.5358 21.8587 51.4616C17.5707 49.7035 13.3362 47.836 9.27476 45.6097C6.73735 44.2181 4.51504 42.4906 2.91421 40.07C1.44175 37.8428 0.537271 35.4004 0.375826 32.7666C0.213408 30.1272 0.242585 27.4745 0.234805 24.8265C0.218271 18.5139 0.233832 12.2004 0.219244 5.88788C0.218271 5.4805 0.349567 5.27395 0.712332 5.08359C3.69031 3.52258 6.85697 2.48414 10.1413 1.75884C15.1889 0.645199 20.3065 0.378686 25.4543 0.62521C30.5126 0.867927 35.4648 1.70554 40.1954 3.54733C41.3955 4.01468 42.5441 4.61053 43.7219 5.13689C44.0175 5.26919 44.0905 5.46813 44.0905 5.77557C44.0808 10.153 44.0837 14.5315 44.0837 18.9089C44.0817 18.9089 44.0798 18.9089 44.0788 18.9089ZM41.6338 19.2497C41.6231 19.2497 41.6134 19.2497 41.6027 19.2497C41.6027 18.314 41.6056 17.3784 41.6017 16.4427C41.591 13.2389 41.5677 10.035 41.5754 6.83115C41.5764 6.37141 41.4159 6.23245 40.9734 6.20865C38.9204 6.09919 36.8702 5.91454 34.8162 5.85076C30.1517 5.70608 25.5214 6.02685 20.9572 7.02627C14.2173 8.50161 8.18646 11.3371 3.08927 15.964C2.8189 16.2095 2.68663 16.4485 2.6876 16.8197C2.70025 21.0705 2.66718 25.3224 2.71192 29.5732C2.72651 30.9943 2.80626 32.4345 3.06885 33.8279C3.75645 37.4754 5.67434 40.3975 8.87503 42.4249C12.9695 45.0186 17.4355 46.9023 21.8889 48.8031C22.0562 48.8745 22.3129 48.8573 22.486 48.785C26.5202 47.0907 30.5106 45.3099 34.3124 43.1464C36.17 42.0898 37.8039 40.7953 39.0448 39.0544C40.9443 36.3893 41.6319 33.3882 41.6338 30.1938C41.6348 26.5474 41.6338 22.8981 41.6338 19.2497Z" fill="#383838"/>
<path d="M21.7061 35.3523C21.7061 36.1919 21.7051 36.9809 21.7061 37.7709C21.7071 39.3729 21.7022 40.9748 21.7168 42.5767C21.7197 42.8937 21.6419 43.0327 21.2869 43.0279C20.0226 43.0098 18.7583 43.0089 17.4949 43.0231C17.1399 43.027 17.0154 42.9194 17.0184 42.5625C17.032 41.0395 17.0184 39.5176 17.0154 37.9946C17.0028 32.158 16.9902 26.3223 16.9785 20.4857C16.9775 19.8032 17.0067 19.1208 16.9736 18.4402C16.9551 18.0633 17.1127 17.8653 17.422 17.6883C18.9304 16.8249 20.5682 16.4594 22.2994 16.4356C25.9893 16.3852 28.4975 18.1071 29.5362 21.5774C30.5574 24.9879 30.4475 28.3906 28.9079 31.6507C27.7885 34.0207 25.8512 35.3295 23.1406 35.4294C22.6933 35.4466 22.24 35.3837 21.7061 35.3523ZM21.711 25.8902C21.711 27.4264 21.711 28.9636 21.711 30.4999C21.711 31.5174 21.9619 31.7078 23.0074 31.4879C23.0385 31.4812 23.0696 31.4698 23.1008 31.4622C24.2785 31.1719 24.7891 30.2639 24.9593 29.2435C25.1918 27.8443 25.3026 26.4165 25.3318 24.9983C25.3552 23.8809 25.2375 22.751 24.7687 21.6945C24.298 20.6342 23.41 20.1497 22.2332 20.3096C21.8637 20.36 21.6896 20.4724 21.6974 20.9016C21.7304 22.5635 21.711 24.2273 21.711 25.8902Z" fill="#383838"/>
<path d="M16.0125 16.8698C16.0125 18.5536 16.0125 20.2012 16.0125 21.8498C16.0125 25.6562 16.0057 29.4635 16.0223 33.2699C16.0242 33.6725 15.8929 33.9057 15.5438 34.1027C13.6103 35.1973 11.5135 35.5238 9.31937 35.4105C8.28651 35.3572 7.30033 35.1364 6.4046 34.6043C4.96327 33.7486 4.264 32.4208 4.0335 30.8532C3.89734 29.9327 3.87692 28.9904 3.87303 28.0567C3.85747 24.5035 3.87692 20.9513 3.8633 17.3981C3.86136 16.9745 3.99557 16.8527 4.41669 16.8612C5.58279 16.885 6.75084 16.8888 7.91694 16.8593C8.3614 16.8479 8.45476 17.0031 8.45087 17.4066C8.42753 20.5781 8.42364 23.7506 8.41878 26.923C8.4178 27.7635 8.42947 28.604 8.44601 29.4445C8.4499 29.6491 8.48199 29.8547 8.51895 30.0574C8.75042 31.3072 10.0789 31.8926 11.175 31.212C11.2839 31.1444 11.3384 30.9207 11.3394 30.7694C11.3481 27.4066 11.3433 24.0438 11.3452 20.6819C11.3462 19.5397 11.3608 18.3984 11.3598 17.2563C11.3598 16.9974 11.4084 16.8336 11.7274 16.8346C13.0725 16.8365 14.4166 16.8251 15.7616 16.8203C15.8209 16.8203 15.8832 16.8432 16.0125 16.8698Z" fill="#383838"/>
<path d="M30.498 29.5359C30.7888 29.7786 30.994 29.9481 31.1963 30.1203C31.9549 30.7676 32.8146 31.2197 33.8008 31.4348C33.864 31.4481 33.9272 31.4653 33.9905 31.4757C34.9893 31.6528 35.8432 31.3225 36.17 30.6343C36.5318 29.871 36.3139 28.942 35.5271 28.3452C34.8132 27.8036 34.0226 27.3591 33.2737 26.8594C32.1757 26.1274 31.1486 25.2993 30.6876 24.0381C29.0323 19.5084 32.4577 16.1341 36.6397 16.5272C37.8369 16.6396 38.9476 16.9917 39.9406 17.678C40.1847 17.8465 40.3092 18.0264 40.3053 18.3386C40.2868 19.6521 40.2975 20.9666 40.2975 22.4124C40.0106 22.1316 39.7957 21.9184 39.5788 21.7081C38.6481 20.8038 37.585 20.1918 36.2167 20.2908C35.5971 20.3355 35.0681 20.5582 34.8609 21.1884C34.6528 21.8194 34.785 22.4153 35.32 22.8227C35.9297 23.289 36.5969 23.6841 37.2505 24.0933C38.5323 24.8967 39.7519 25.7762 40.3831 27.1877C41.662 30.0461 40.67 34.3941 36.4724 35.2869C35.4697 35.5001 34.4729 35.4801 33.4974 35.1869C32.5861 34.9128 31.6874 34.593 30.7956 34.2618C30.641 34.2046 30.4445 33.9914 30.4426 33.8477C30.427 32.5485 30.4494 31.2492 30.462 29.95C30.4591 29.8586 30.4756 29.7653 30.498 29.5359Z" fill="#383838"/>
</g>
<defs>
<clipPath id="clip0_353_437">
<rect width="43.8946" height="50.9744" fill="white" transform="translate(0.219238 0.540039)"/>
</clipPath>
</defs>
</svg>
