<svg width="88" height="27" viewBox="0 0 88 27" fill="none" xmlns="http://www.w3.org/2000/svg">
<g opacity="0.6" clip-path="url(#clip0_353_417)">
<path d="M44.5883 0.580357C46.5813 0.580357 48.5757 0.580357 50.5688 0.580357C50.5701 0.626811 50.5727 0.673266 50.5727 0.71843C50.5727 9.08411 50.5727 17.4498 50.5714 25.8155C48.7856 25.8193 47.0012 25.8232 45.2155 25.8258C44.5686 25.8271 44.5686 25.8258 44.5686 25.187C44.5686 24.8696 44.5686 24.5509 44.5686 24.2166C44.4977 24.2412 44.4781 24.2437 44.4649 24.2541C44.4439 24.2708 44.4243 24.2915 44.4072 24.3147C43.4573 25.6038 42.1793 26.3781 40.5903 26.6645C40.5339 26.6749 40.446 26.6645 40.4683 26.7691C39.8858 26.7691 39.3019 26.7691 38.7193 26.7691C38.7022 26.6271 38.5802 26.6723 38.5015 26.662C36.9309 26.4439 35.5454 25.8116 34.3619 24.787C32.6666 23.3198 31.6826 21.4578 31.3231 19.2705C31.2955 19.1028 31.3099 18.9389 31.0331 18.9402C27.2346 18.9492 23.4361 18.9479 19.6376 18.9415C19.4159 18.9415 19.3686 19.0099 19.3883 19.2138C19.5261 20.6629 20.5088 21.8875 21.9587 22.2578C23.1763 22.5688 24.7534 22.4643 25.6404 21.0977C25.7126 20.9868 25.8005 20.939 25.9409 20.939C27.7463 20.9442 29.5517 20.9442 31.3572 20.939C31.5501 20.939 31.5829 20.9919 31.5068 21.1636C30.6447 23.1134 29.3772 24.7199 27.4025 25.6748C25.1641 26.7574 22.7997 26.9329 20.3934 26.3884C17.9109 25.8258 15.9743 24.467 14.691 22.2849C13.4629 20.1958 13.2399 17.9453 13.7096 15.6058C13.7883 15.2174 13.7988 15.2187 13.3999 15.2187C11.3977 15.2187 9.39414 15.2187 7.3919 15.2187C7.00614 15.2187 7.00614 15.2187 7.00614 15.5864C7.00614 18.8873 7.00352 22.1894 7.01139 25.4903C7.01271 25.7522 6.95235 25.8335 6.67287 25.8322C4.51055 25.8206 2.34823 25.8258 0.1846 25.8258C0.185912 17.4949 0.187225 9.16282 0.180664 0.830695C0.180664 0.62165 0.227899 0.575195 0.440457 0.575195C5.41458 0.581647 10.3887 0.580357 15.3628 0.580357C15.3589 0.700364 15.351 0.820372 15.351 0.940379C15.3497 2.56758 15.351 4.19477 15.351 5.82326C15.351 6.21554 15.351 6.21554 14.9561 6.21554C12.4264 6.21554 9.89799 6.21941 7.36828 6.21038C7.0993 6.20909 6.99171 6.25812 6.99827 6.5575C7.01927 7.52788 7.01664 8.49955 6.99958 9.46994C6.99434 9.74092 7.077 9.80673 7.34598 9.80673C9.67756 9.79641 12.0091 9.80415 14.3407 9.79641C14.5703 9.79512 14.6504 9.85448 14.6464 10.0893C14.6333 10.9862 14.6399 11.883 14.6438 12.7798C14.6438 12.8508 14.6031 12.9398 14.7042 13.0108C14.7658 12.9153 14.8196 12.8301 14.8734 12.7463C15.6751 11.5088 16.7431 10.5603 18.0684 9.88932C20.0247 8.89829 22.1122 8.64021 24.2627 8.91506C27.7647 9.36283 30.1684 11.2133 31.4084 14.4883C31.4621 14.6315 31.5186 14.7735 31.5973 14.9787C31.6524 14.8303 31.6865 14.7477 31.7154 14.6638C32.8687 11.2765 35.9114 8.79764 39.7913 8.89313C41.5469 8.93571 43.0964 9.44155 44.3219 10.7345C44.377 10.7926 44.4243 10.87 44.5227 10.8842C44.608 10.7784 44.5673 10.6532 44.5686 10.5397C44.5712 7.34981 44.5699 4.15864 44.5712 0.968768C44.5699 0.838437 44.5817 0.709397 44.5883 0.580357ZM44.3823 17.9169C44.3849 16.8588 44.2261 15.9478 43.7879 15.0948C42.6451 12.8676 39.7992 13.0405 38.5776 14.3373C37.0372 15.9723 36.9073 18.9828 38.3086 20.7313C39.8333 22.6333 43.0321 22.3959 44.0044 19.9209C44.2721 19.2396 44.3928 18.5337 44.3823 17.9169ZM22.7971 15.2845C23.7943 15.2845 24.7902 15.2858 25.7874 15.2819C25.8884 15.2819 26.0603 15.3464 26.0012 15.118C25.8175 14.4006 25.4895 13.7657 24.886 13.3024C23.3456 12.1204 20.4813 12.3708 19.6389 15.0148C19.5615 15.2561 19.6455 15.2909 19.8646 15.2884C20.8421 15.2793 21.8196 15.2845 22.7971 15.2845Z" fill="#383838"/>
<path d="M65.894 25.8102C65.8009 25.8153 65.7077 25.827 65.6132 25.827C61.0327 25.8283 56.4535 25.8283 51.873 25.827C51.7891 25.827 51.7051 25.8205 51.6198 25.8166C51.6198 17.451 51.6211 9.08529 51.6211 0.719616C51.6211 0.673161 51.6185 0.626707 51.6172 0.581543C56.3748 0.581543 61.1338 0.581543 65.8914 0.581543C65.8442 0.688646 65.8651 0.800911 65.8651 0.910595C65.8638 2.57521 65.8573 4.23983 65.8704 5.90316C65.873 6.1664 65.7877 6.21931 65.5384 6.21931C63.0376 6.21028 60.5368 6.21286 58.0359 6.21544C57.5793 6.21544 57.6567 6.16898 57.6554 6.60256C57.6515 7.56391 57.662 8.52655 57.6489 9.48789C57.6449 9.73307 57.7013 9.81049 57.9664 9.8092C60.4856 9.79888 63.0061 9.80275 65.5253 9.80275C65.6657 9.80275 65.8074 9.8105 65.9478 9.81437C65.9478 9.8363 65.9478 9.85695 65.9491 9.87889C65.8022 9.94212 65.8691 10.0724 65.8691 10.1692C65.8638 11.75 65.8586 13.3307 65.8717 14.9115C65.8743 15.1734 65.7917 15.2276 65.5411 15.2276C63.0035 15.2186 60.4646 15.225 57.927 15.2173C57.7027 15.216 57.6489 15.2779 57.6502 15.4934C57.6594 16.9632 57.662 18.433 57.6489 19.9027C57.6462 20.1453 57.7263 20.184 57.9493 20.184C60.4869 20.1763 63.0258 20.1827 65.5634 20.1724C65.8205 20.1711 65.873 20.246 65.8704 20.4834C65.8599 22.1377 65.8638 23.7933 65.8691 25.4476C65.8691 25.5431 65.7995 25.6747 65.9517 25.7353C65.9321 25.7586 65.9137 25.7844 65.894 25.8102Z" fill="#383838"/>
<path d="M65.894 25.8103C65.9137 25.7845 65.9321 25.7587 65.9518 25.7329C66.3546 25.2825 66.7535 24.8296 67.1589 24.3818C69.0877 22.2488 71.0164 20.1157 72.9518 17.9879C73.0672 17.8601 73.0803 17.7879 72.9583 17.6549C71.5557 16.1129 70.157 14.567 68.761 13.0185C67.8202 11.9746 66.886 10.9255 65.9492 9.87899C65.9492 9.85705 65.9492 9.8364 65.9478 9.81447C66.0607 9.8106 66.1722 9.80285 66.285 9.80285C68.5786 9.80156 70.8721 9.80673 73.1656 9.7964C73.4162 9.79511 73.5829 9.87383 73.743 10.0506C74.7887 11.2017 75.8475 12.3411 76.8893 13.4947C77.0494 13.6715 77.1229 13.6741 77.2817 13.4934C78.2867 12.3449 79.3101 11.2107 80.3165 10.0635C80.4845 9.87254 80.655 9.79511 80.9161 9.7964C83.1257 9.80802 85.3339 9.80285 87.5435 9.80285C87.6458 9.80285 87.7495 9.80285 87.8531 9.80285C87.8859 9.92802 87.7823 9.97448 87.7259 10.0351C85.4586 12.5424 83.1913 15.0483 80.9148 17.5478C80.7482 17.7311 80.7482 17.8214 80.9188 18.0072C83.2674 20.579 85.6042 23.1611 87.9437 25.7406C87.9555 25.7535 87.9594 25.7716 87.9686 25.7909C87.9109 25.8606 87.8295 25.8271 87.7626 25.8271C85.3654 25.8296 82.9682 25.8271 80.5711 25.8322C80.4044 25.8322 80.2955 25.7806 80.1866 25.6606C79.1173 24.4683 78.0387 23.285 76.972 22.0901C76.825 21.9249 76.7621 21.9339 76.6191 22.0939C75.5497 23.2979 74.4672 24.4915 73.3913 25.689C73.3139 25.7742 73.2404 25.8322 73.1092 25.8322C70.7304 25.8271 68.3529 25.8284 65.9741 25.8271C65.9492 25.8258 65.9216 25.8155 65.894 25.8103Z" fill="#383838"/>
</g>
<defs>
<clipPath id="clip0_353_417">
<rect width="87.7892" height="26.1952" fill="white" transform="translate(0.180664 0.575195)"/>
</clipPath>
</defs>
</svg>
