<svg width="117" height="51" viewBox="0 0 117 51" fill="none" xmlns="http://www.w3.org/2000/svg">
<g opacity="0.6" clip-path="url(#clip0_353_335)">
<path d="M78.7216 29.5872C78.9916 29.9853 79.218 30.294 79.416 30.6181C79.8147 31.2687 80.3985 31.5928 81.1547 31.6464C82.078 31.7102 82.9602 31.5673 83.7832 31.1361C84.1278 30.9549 84.4339 30.7227 84.6448 30.3884C84.9586 29.896 84.884 29.3984 84.6165 28.9213C84.3542 28.4543 83.9221 28.2706 83.3923 28.2936C83.2019 28.3012 83.0399 28.388 82.8702 28.4569C81.0955 29.1688 79.3723 29.0335 77.7931 27.9746C76.5586 27.1479 76.2397 25.8568 76.3297 24.456C76.3965 23.4379 76.8415 22.5678 77.5282 21.8227C78.6573 20.598 80.0616 19.8988 81.7076 19.6182C83.7446 19.2712 85.5604 19.7432 87.2219 20.9246C88.0552 21.5166 88.8371 22.1698 89.5598 22.8893C89.6884 23.0169 89.781 23.1827 89.9122 23.3103C90.1282 23.1904 90.0639 23.0552 90.0639 22.9531C90.0691 22.254 90.0639 21.5548 90.0691 20.8557C90.0716 20.1693 90.2311 20.0111 90.9358 20.0111C97.7129 20.0111 104.487 20.0111 111.265 20.0111C112.859 20.0111 114.451 20.0111 116.046 20.0111C116.198 20.0111 116.349 20.0035 116.498 20.0264C116.828 20.0775 117 20.2714 117.003 20.6056C117.005 21.1389 117.003 21.6697 116.985 22.2029C116.967 22.703 116.774 22.8817 116.27 22.9021C116.118 22.9072 115.969 22.9046 115.817 22.9046C111.524 22.9046 107.229 22.9046 102.937 22.9046C102.276 22.9046 102.337 22.8357 102.337 23.4864C102.335 24.9178 102.335 26.3493 102.337 27.7782C102.337 27.9236 102.306 28.0741 102.373 28.2196C102.522 28.263 102.576 28.1303 102.656 28.0614C103.973 26.8979 105.323 25.7777 106.818 24.8438C107.684 24.3003 108.592 23.836 109.593 23.5782C109.976 23.4787 110.349 23.4813 110.73 23.5936C111.589 23.8487 112.399 24.1957 113.124 24.7214C113.631 25.0888 114.06 25.5277 114.395 26.0558C114.503 26.2268 114.59 26.408 114.641 26.5993C114.729 26.9234 114.618 27.2296 114.305 27.3444C113.69 27.574 113.348 28.0537 113.055 28.5845C112.638 29.3346 112.404 30.1511 112.229 30.983C111.83 32.8992 111.709 34.8384 111.815 36.7904C111.846 37.3875 111.944 37.9794 112.108 38.5586C112.183 38.8164 112.275 39.0639 112.401 39.2986C112.774 39.9875 113.266 40.1993 114.027 40.0028C114.06 39.9952 114.091 39.9875 114.125 39.9799C114.914 39.7987 114.906 39.7222 115.272 40.5667C115.501 41.0949 115.526 41.669 115.434 42.2355C115.313 42.9882 114.693 43.5368 113.829 43.672C112.767 43.8353 111.835 43.5623 111.054 42.8198C110.498 42.2942 110.107 41.6588 109.788 40.975C109.225 39.7681 108.965 38.4821 108.79 37.1782C108.649 36.1397 108.636 35.0885 108.546 34.0474C108.407 32.4374 108.361 30.8273 108.353 29.2147C108.353 29.1688 108.33 29.1254 108.309 29.0514C108.111 29.0795 107.972 29.1994 107.821 29.2964C105.629 30.6819 104.246 32.667 103.479 35.1012C103.225 35.9101 103.029 36.7368 102.934 37.5839C102.872 38.1427 102.51 38.3851 101.98 38.1785C100.889 37.7498 99.8142 37.2854 98.7288 36.8414C98.5591 36.7725 98.5051 36.6628 98.5128 36.497C98.5179 36.3643 98.5128 36.2316 98.5128 36.0989C98.5128 31.9066 98.5128 27.7118 98.5128 23.5196C98.5128 22.8459 98.5848 22.9097 97.8878 22.9072C96.715 22.9046 95.5396 22.9046 94.3668 22.9072C93.8987 22.9072 93.8936 22.9123 93.8936 23.3665C93.891 25.0633 93.8936 26.7601 93.8936 28.4569C93.8936 33.5805 93.8936 38.7066 93.8936 43.8302C93.8936 43.9808 93.9013 44.1313 93.891 44.2793C93.8498 44.8305 93.4229 45.0627 92.9394 44.7845C92.2578 44.3916 91.5865 43.9833 90.9101 43.5802C90.6812 43.4424 90.4548 43.2995 90.2182 43.1719C90.033 43.0724 89.9507 42.9372 89.9713 42.7279C89.9842 42.5953 89.9739 42.4626 89.9739 42.3299C89.9739 37.4538 89.9713 32.5803 89.9816 27.7042C89.9816 27.3189 89.8864 26.9999 89.6678 26.6861C89.0711 25.816 88.4076 25.002 87.6437 24.2748C86.8824 23.5502 86.0285 22.9735 84.9663 22.7719C84.2462 22.6367 83.526 22.6571 82.8367 22.9301C82.096 23.2236 81.5662 23.7186 81.3784 24.5223C81.2292 25.1602 81.4556 25.668 81.9314 26.0814C82.1269 26.2523 82.3661 26.3314 82.6335 26.2421C82.8393 26.1732 83.0476 26.112 83.2534 26.038C84.7194 25.5149 85.9514 25.8109 86.9827 26.9668C87.6128 27.671 88.1092 28.4645 88.3433 29.3857C88.5979 30.3833 88.4822 31.381 88.1504 32.3353C86.9133 35.9024 83.6572 36.7445 81.1006 35.9968C79.8713 35.6371 78.9711 34.8206 78.3461 33.7234C77.8883 32.9171 77.7725 32.0699 78.1378 31.182C78.3358 30.6972 78.5004 30.192 78.7216 29.5872Z" fill="#383838"/>
<path d="M11.9921 9.66217C11.7169 10.3205 11.4186 10.9711 11.1666 11.6397C10.4104 13.6427 9.92687 15.712 9.73912 17.8426C9.34818 22.2926 9.91144 26.6022 11.7632 30.7052C12.9026 33.2287 14.4612 35.4511 16.6448 37.2041C18.332 38.5615 20.2301 39.475 22.4008 39.7429C23.8694 39.9241 25.3432 39.8807 26.8092 39.6281C31.737 38.7809 35.6155 35.2725 36.7601 30.4321C37.7863 26.097 36.7678 22.2339 33.6763 18.9525C33.6017 18.8734 33.4834 18.8198 33.4757 18.6616C33.8049 18.6616 34.1341 18.6336 34.4582 18.6667C38.3881 19.075 41.9966 20.3329 45.1806 22.6906C45.4121 22.8641 45.7516 22.882 45.8931 23.1805C45.9162 23.2596 45.9599 23.3387 45.9599 23.4178C45.9496 24.663 46.0397 25.9082 45.9111 27.1559C45.6333 29.8044 44.8874 32.2973 43.5989 34.6397C41.1632 39.0591 37.5908 42.2205 32.915 44.1367C29.376 45.586 25.6852 45.928 21.907 45.3717C20.7471 45.2008 19.6 44.9456 18.5043 44.5144C18.476 44.3204 18.3243 44.2567 18.1648 44.1929C17.2441 43.8178 16.3182 43.4555 15.4669 42.9324C15.3408 42.8558 15.2019 42.792 15.0476 42.7971C14.9679 42.7436 14.8856 42.7027 14.7853 42.7002C14.7313 42.565 14.6258 42.5063 14.4844 42.5012C14.4278 42.371 14.3223 42.3124 14.186 42.2996C14.1449 42.2179 14.0729 42.1924 13.9854 42.1975C13.9494 42.0444 13.8388 41.9934 13.6974 41.9832C13.6305 41.802 13.4762 41.728 13.3064 41.6719C13.2447 41.5545 13.1392 41.4933 13.0184 41.4474C12.9309 41.2994 12.7895 41.2075 12.6583 41.1029C11.0662 39.8143 9.64138 38.3676 8.466 36.6912C6.07665 33.2848 4.79068 29.5136 4.71609 25.3545C4.70066 24.4563 4.71352 23.5607 4.71352 22.6625C4.74438 22.313 4.88841 21.9915 4.95014 21.647C5.12246 20.6876 5.15847 19.6976 5.58798 18.7943C5.62913 18.7101 5.61885 18.6004 5.63171 18.5009C5.84004 18.1411 6.00721 17.7686 6.03293 17.345L6.04065 17.3323C6.19754 17.2965 6.21811 17.1562 6.27212 17.0388C6.50617 16.5362 6.74022 16.0335 6.97169 15.5334C7.37549 14.7398 7.87188 14.0024 8.35798 13.2599C8.44028 13.1323 8.61003 13.0303 8.54316 12.8338C8.76177 12.7879 8.82607 12.6297 8.8415 12.4332C9.0807 12.3515 9.21187 12.1755 9.26073 11.9356H9.2453C9.62852 11.6754 9.93716 11.3335 10.2484 10.9992C10.7525 10.4557 11.3569 10.0398 11.9201 9.57031C11.9407 9.59583 11.9664 9.629 11.9921 9.66217Z" fill="#383838"/>
<path d="M18.5016 44.5088C19.5973 44.9426 20.7444 45.1952 21.9043 45.3662C25.6825 45.9224 29.3733 45.5805 32.9123 44.1312C37.5881 42.2149 41.1631 39.0535 43.5962 34.6342C44.8847 32.2918 45.6306 29.7989 45.9083 27.1503C46.0395 25.9026 45.9495 24.6574 45.9572 23.4123C45.9572 23.3332 45.9135 23.2541 45.8903 23.175C45.8955 23.0474 45.8698 22.8586 46.0858 23.0142C46.3019 23.1699 46.4999 23.3536 46.6979 23.5322C46.8343 23.6572 46.9217 23.6266 47.0143 23.4812C47.238 23.1341 47.4695 22.7897 47.7241 22.4069C47.8425 22.5447 47.863 22.6697 47.8836 22.7922C48.1922 24.6345 48.38 26.4895 48.272 28.3547C48.1074 31.1972 47.4952 33.935 46.397 36.581C44.0077 42.3298 38.1102 48.6679 29.2009 50.3316C21.4131 51.786 14.4508 49.8901 8.54301 44.6058C4.49732 40.9851 2.04625 36.433 1.18722 31.0875C-0.394532 21.2179 4.39702 11.5729 13.2317 6.77842C13.4066 6.68402 13.5686 6.55644 13.7769 6.53857C13.7949 6.55899 13.8155 6.5794 13.8361 6.59726C13.3011 7.37805 12.7147 8.12311 12.2698 8.96004C12.2158 9.0621 12.1463 9.16161 12.0023 9.1412C11.9534 9.11058 11.9071 9.09017 11.8865 9.17182L11.9277 9.16161L11.938 9.20244C11.5162 9.26112 11.2487 9.51373 11.187 9.91688L11.1741 9.95771L11.133 9.95516C11.0352 9.91433 10.9324 9.91688 10.8526 9.98322C10.454 10.2996 10.0862 10.6492 9.78526 11.0625C9.7544 11.1059 9.7724 11.185 9.76726 11.2488L9.76983 11.2437C9.70039 11.2488 9.66695 11.2845 9.66438 11.3509L9.67209 11.3432C9.60522 11.3483 9.56922 11.3866 9.56664 11.4529L9.57436 11.4453C9.50749 11.4504 9.47148 11.4887 9.46634 11.555L9.47405 11.5474C9.40718 11.555 9.37375 11.5933 9.36603 11.6571L9.37375 11.6469C9.30945 11.6571 9.27344 11.6953 9.26573 11.7591L9.27859 11.7489C9.09855 11.777 9.02396 11.8791 9.06254 12.0577L9.06511 12.0424C8.99824 12.0475 8.96481 12.0857 8.96223 12.1521L8.96995 12.1444C8.90308 12.1521 8.86964 12.1904 8.8645 12.2541L8.87479 12.2465C8.69218 12.2695 8.63045 12.3766 8.66132 12.5476L8.66389 12.5399C8.59702 12.5476 8.56358 12.5858 8.56101 12.6522L8.5713 12.6445C8.38354 12.6649 8.32696 12.7747 8.3604 12.9456L8.36297 12.938C8.2961 12.9456 8.26523 12.9864 8.26009 13.0502L8.27038 13.0426C8.0852 13.0655 8.03119 13.1778 8.06205 13.3462L8.06462 13.3411C7.87687 13.3641 7.828 13.4764 7.85887 13.6448L7.86144 13.6397C7.67111 13.6601 7.62482 13.7774 7.65825 13.9433L7.66083 13.9382C7.47307 13.9612 7.42935 14.0785 7.45764 14.2444L7.46279 14.2342C7.35734 14.2673 7.32647 14.3388 7.35219 14.4409L7.35476 14.4383C7.07956 14.5046 7.02813 14.7011 7.05384 14.9435L7.08471 14.9461C6.79665 14.9512 6.76579 15.2089 6.6732 15.3875C4.71851 19.0975 3.97264 23.0397 4.40473 27.2014C4.76481 30.6613 5.9762 33.8126 7.94888 36.678C8.35268 37.2649 8.73848 37.8721 9.29659 38.3391C9.52035 38.7448 9.84442 39.0612 10.2122 39.3342C10.2456 39.3674 10.2791 39.4005 10.3151 39.4337C10.3485 39.4669 10.3794 39.4975 10.4128 39.5307C10.4488 39.5638 10.4823 39.5996 10.5183 39.6327C10.5517 39.6659 10.5826 39.6965 10.616 39.7297C10.8269 40.0155 11.0558 40.2783 11.4056 40.4084C11.2513 40.0793 10.9838 39.8547 10.6932 39.6557C10.6597 39.6225 10.6263 39.5894 10.5929 39.5562C10.5594 39.523 10.526 39.4898 10.49 39.4541C10.4565 39.421 10.4231 39.3878 10.3922 39.3546C10.3588 39.3214 10.3254 39.2883 10.2919 39.2551C10.0399 38.88 9.69781 38.5815 9.38661 38.26C9.33002 38.1783 9.28116 38.0916 9.21686 38.015C7.96174 36.507 6.94325 34.8587 6.16395 33.0598C4.83425 29.9954 4.35587 26.7906 4.55133 23.4735C4.56677 23.1954 4.59763 22.9121 4.7108 22.6468C4.7108 23.5449 4.69794 24.4431 4.71337 25.3387C4.78795 29.5004 6.07393 33.2691 8.46328 36.6754C9.63866 38.3518 11.0609 39.7986 12.6556 41.0871C12.7842 41.1918 12.9256 41.2836 13.0156 41.4316C13.0002 41.4495 12.9848 41.4699 12.9693 41.4877C12.9102 41.4775 12.851 41.4673 12.7919 41.4571C12.7301 41.4163 12.6684 41.378 12.6067 41.3372C12.5655 41.2428 12.4935 41.1841 12.3958 41.1535C12.3598 41.1229 12.3238 41.0922 12.2903 41.0616C12.2312 41.0182 12.1695 40.9749 12.1103 40.934C12.0409 40.7988 11.9328 40.707 11.7914 40.6534C11.7477 40.6177 11.7039 40.559 11.6525 40.6355C11.6474 40.6432 11.7039 40.6942 11.7297 40.7248C11.8017 40.8575 11.9097 40.9494 12.0512 41.0004C12.1129 41.0387 12.172 41.0769 12.2338 41.1152C12.2698 41.1458 12.3032 41.1764 12.3392 41.2071C12.3881 41.2989 12.4601 41.3602 12.5604 41.3933C12.6221 41.4342 12.6813 41.4724 12.743 41.5133C12.8227 41.6306 12.923 41.7072 13.0774 41.6817L13.0722 41.6766C13.1057 41.8475 13.2214 41.896 13.3809 41.8807L13.3757 41.8756C13.3834 41.9368 13.4246 41.9674 13.4812 41.9802L13.476 41.9751C13.5197 42.1307 13.6329 42.1818 13.7846 42.1792L13.7795 42.1767C13.8207 42.2685 13.8952 42.2889 13.9853 42.2813L13.9801 42.2762C14.0136 42.4471 14.1319 42.4931 14.2888 42.4803L14.2836 42.4752C14.3222 42.6385 14.4405 42.6819 14.5922 42.6793L14.5871 42.6768C14.6308 42.7635 14.7028 42.7891 14.7929 42.7814L14.7877 42.7763C14.8314 42.9702 15.0089 43.0136 15.1504 43.0876C15.8139 43.4372 16.4801 43.7816 17.1796 44.0521C17.6143 44.2307 18.0284 44.4527 18.5016 44.5088Z" fill="#383838"/>
<path d="M70.5914 30.9932C70.7123 30.8222 70.6763 30.6844 70.6763 30.5568C70.6788 28.143 70.6788 25.7318 70.6788 23.318C70.6788 23.2338 70.6737 23.1521 70.6763 23.0679C70.684 22.8765 70.5914 22.7974 70.4036 22.8051C70.2699 22.8102 70.1362 22.8051 70.0024 22.8051C65.4398 22.8051 60.8797 22.8051 56.3171 22.8051C56.1653 22.8051 56.0161 22.8051 55.8644 22.8051C55.0619 22.8025 54.9282 22.6724 54.9256 21.8789C54.9256 21.4808 54.9179 21.0802 54.9282 20.6822C54.9411 20.2076 55.1262 20.0341 55.6098 20.0136C55.7435 20.0085 55.8773 20.0111 56.011 20.0111C62.4512 20.0111 68.8913 20.0188 75.3315 20.0034C76.3217 20.0009 76.5532 20.2025 76.5043 21.1925C76.4863 21.5421 76.5095 21.8916 76.4966 22.2412C76.4812 22.6826 76.2908 22.8765 75.851 22.8995C75.5656 22.9148 75.2801 22.9097 74.9972 22.9021C74.7888 22.8969 74.6834 22.9709 74.6962 23.1904C74.7039 23.3409 74.6962 23.4889 74.6962 23.6395C74.6962 30.4267 74.6962 37.2165 74.6962 44.0037C74.6962 44.1874 74.7065 44.3712 74.6885 44.5523C74.6396 45.0218 74.2436 45.2336 73.8141 45.0218C73.6057 44.9172 73.4103 44.7845 73.2096 44.6646C72.5049 44.2436 71.8079 43.8149 71.0955 43.4092C70.8614 43.2765 70.774 43.1183 70.7766 42.8504C70.7894 41.6027 70.7894 40.3549 70.7792 39.1072C70.7611 36.5939 69.7555 34.4888 68.0143 32.7206C66.9238 31.6132 65.5632 31.0646 63.9866 31.0774C62.7984 31.0876 61.731 32.0291 61.5818 33.2079C61.5638 33.3559 61.5484 33.5065 61.5355 33.6545C61.5021 34.0347 61.6024 34.3868 61.8262 34.6904C62.4615 35.5426 64.0792 36.0249 65.1286 35.2645C65.5452 34.9634 65.8127 34.6011 65.7716 34.05C65.7407 33.6238 65.7664 33.1952 65.7664 32.7486C68.004 33.5345 68.7447 35.0783 68.5441 36.6041C68.4387 37.3951 68.0812 38.0585 67.5153 38.6097C66.8209 39.2858 65.9747 39.6711 65.0154 39.7859C64.1075 39.8957 63.2047 39.8166 62.3277 39.5537C60.9311 39.1378 59.8381 38.3213 59.1616 37.0277C58.0917 34.9787 57.7702 32.8405 58.5675 30.6181C58.9404 29.5821 59.5731 28.7069 60.3885 27.9593C61.7413 26.7192 63.3282 26.4437 65.0694 26.8596C66.8441 27.2831 68.2689 28.2783 69.4726 29.6051C69.8584 30.0389 70.203 30.5109 70.5914 30.9932Z" fill="#383838"/>
<path d="M19.0059 24.6039C19.119 24.114 19.3479 23.6675 19.5717 23.2235C22.3905 17.5717 26.9378 14.1781 33.1773 13.0171C35.8419 12.5221 38.4807 12.6829 41.0938 13.3718C41.2224 13.405 41.3536 13.4407 41.4822 13.4688C41.513 13.4764 41.5465 13.4662 41.6133 13.4611C41.6879 13.3208 41.6493 13.1549 41.6442 12.9967C41.5979 11.851 41.5465 10.7028 41.4976 9.55716C41.4873 9.2918 41.4873 9.02388 41.4642 8.75852C41.4436 8.51867 41.5387 8.43701 41.7779 8.44212C42.6164 8.45998 43.4523 8.53142 44.2804 8.66411C47.3848 9.16677 50.1754 10.3941 52.6702 12.2899C52.7499 12.3512 52.827 12.4149 52.9094 12.4711C53.0637 12.5757 53.0817 12.6905 52.9685 12.8462C52.8116 13.0631 52.6727 13.2901 52.5261 13.5121C50.6898 16.273 48.8534 19.0363 47.0144 21.7946C46.9141 21.9426 46.8447 22.1212 46.6904 22.2182C46.5798 22.2284 46.5335 22.1493 46.4769 22.0957C43.9718 19.7049 40.9575 18.2913 37.5779 17.6534C33.2262 16.8318 29.0725 17.4697 25.1631 19.5492C22.9641 20.7204 21.1071 22.3075 19.5228 24.2161C19.3839 24.3819 19.2399 24.5427 19.0984 24.706C19.0676 24.6779 19.0367 24.6396 19.0059 24.6039Z" fill="#383838"/>
<path d="M27.3752 8.55195C22.8795 10.4019 19.3379 13.3158 16.8508 17.4366C14.3586 21.5676 13.569 26.0584 14.0191 30.835C13.9265 30.7049 13.8262 30.5824 13.7439 30.4472C12.0773 27.7374 11.033 24.8107 10.7527 21.6416C10.1483 14.8365 12.3139 9.0342 17.2623 4.27803C18.7875 2.81087 20.5416 1.64734 22.4577 0.728767C22.5631 0.677735 22.6711 0.629255 22.774 0.575671C22.9283 0.496572 23.0286 0.550155 23.0955 0.693044C23.1161 0.738973 23.1418 0.78235 23.165 0.825727C24.5409 3.33905 25.9169 5.85237 27.2904 8.36568C27.3161 8.40906 27.3315 8.45499 27.3752 8.55195Z" fill="#383838"/>
<path d="M40.1757 12.1112C35.4819 11.4223 30.9552 12.0066 26.6652 14.0708C22.3881 16.1274 19.1783 19.3169 16.8301 23.3995C17.3239 20.0441 18.7488 17.1175 20.9041 14.5301C23.0568 11.9454 25.7522 10.1133 28.9414 8.96766C28.9311 8.74823 28.8102 8.60534 28.7279 8.45224C28.0875 7.28361 27.442 6.11753 26.8015 4.9489C26.5958 4.57382 26.5958 4.56617 26.9559 4.32887C29.3684 2.73922 32.0046 1.739 34.8775 1.34861C36.4335 1.13682 37.9844 1.12407 39.5404 1.3384C39.9417 1.39454 39.9442 1.39198 39.9571 1.78493C40.0214 3.91296 40.0831 6.04099 40.1448 8.17157C40.1783 9.31978 40.2117 10.4654 40.24 11.6137C40.2451 11.7693 40.2889 11.9403 40.1757 12.1112Z" fill="#383838"/>
<path d="M9.76481 11.2466C9.76996 11.1828 9.74938 11.1037 9.78282 11.0603C10.0837 10.6495 10.4515 10.3 10.8502 9.98101C10.9325 9.91723 11.0328 9.91212 11.1305 9.95295C10.7216 10.4326 10.2663 10.8639 9.76481 11.2466Z" fill="#383838"/>
<path d="M11.187 9.91708C11.2487 9.51648 11.5162 9.26132 11.938 9.20264C11.7811 9.5369 11.4596 9.7002 11.187 9.91708Z" fill="#383838"/>
<path d="M19.0057 24.604C19.0366 24.6397 19.0674 24.6754 19.0983 24.7112C19.07 24.826 18.9825 24.8923 18.8359 25.0276C18.9028 24.8336 18.8951 24.701 19.0057 24.604Z" fill="#383838"/>
<path d="M9.06264 12.0578C9.02406 11.8792 9.09864 11.7771 9.27868 11.749C9.3507 11.8256 9.26839 11.8715 9.24267 11.9302H9.2581C9.18866 11.9634 9.16037 12.0629 9.06264 12.0578Z" fill="#383838"/>
<path d="M13.7769 6.5415C13.7974 6.52364 13.8309 6.48536 13.836 6.48791C13.89 6.52109 13.8643 6.56191 13.836 6.59763C13.8154 6.57977 13.7974 6.56191 13.7769 6.5415Z" fill="#383838"/>
<path d="M11.8892 9.17476C11.9097 9.09566 11.9535 9.11352 12.0049 9.14414C11.974 9.19262 11.9355 9.20028 11.8892 9.17476Z" fill="#383838"/>
<path d="M11.9175 9.56265C11.9586 9.53968 11.9895 9.45038 12.0487 9.52182C12.0949 9.58051 12.0409 9.62644 11.9946 9.66216C11.9663 9.62899 11.9406 9.59582 11.9175 9.56265Z" fill="#383838"/>
<path d="M9.26318 11.7568C9.2709 11.693 9.30691 11.6547 9.37121 11.6445C9.39435 11.7389 9.37378 11.79 9.26318 11.7568Z" fill="#383838"/>
<path d="M9.36377 11.6546C9.37149 11.5909 9.40492 11.5526 9.47179 11.5449C9.49237 11.6368 9.46665 11.6827 9.36377 11.6546Z" fill="#383838"/>
<path d="M9.46387 11.555C9.46901 11.4887 9.50502 11.453 9.57189 11.4453C9.59246 11.5372 9.5616 11.578 9.46387 11.555Z" fill="#383838"/>
<path d="M9.56445 11.453C9.5696 11.3866 9.60303 11.3484 9.6699 11.3433C9.68276 11.4275 9.65962 11.4734 9.56445 11.453Z" fill="#383838"/>
<path d="M9.66455 11.3513C9.66712 11.285 9.70056 11.2467 9.77 11.2441C9.77257 11.3156 9.74685 11.3615 9.66455 11.3513Z" fill="#383838"/>
<path d="M9.30173 38.3442C8.74362 37.8772 8.35782 37.27 7.95403 36.6831C5.98134 33.8176 4.77252 30.6639 4.40988 27.2065C3.97522 23.0448 4.72108 19.1026 6.67834 15.3926C6.77093 15.2165 6.80179 14.9588 7.08985 14.9512C7.09242 15.1298 6.97411 15.2548 6.9021 15.4028C6.54717 16.0152 6.22053 16.6378 6.04049 17.3242L6.03278 17.3369C5.81673 17.6941 5.64184 18.0641 5.63155 18.4928C5.61869 18.5923 5.62898 18.6995 5.58783 18.7862C5.15831 19.6895 5.12231 20.682 4.94999 21.6389C4.88826 21.9834 4.74423 22.3049 4.71337 22.6544C4.60277 22.9198 4.57191 23.203 4.55391 23.4811C4.35844 26.7957 4.83682 30.0005 6.16652 33.0675C6.94582 34.8638 7.96174 36.5147 9.21943 38.0227C9.28373 38.0992 9.33259 38.186 9.38918 38.2676C9.35831 38.2931 9.33002 38.3187 9.30173 38.3442Z" fill="#383838"/>
<path d="M18.502 44.5089C18.0287 44.4528 17.6147 44.2308 17.18 44.0624C16.4804 43.7919 15.8117 43.4475 15.1507 43.0979C15.0093 43.0239 14.8318 42.978 14.7881 42.7866C14.8755 42.7866 14.9604 42.7892 15.0479 42.7892C15.2047 42.7841 15.3411 42.8479 15.4671 42.9244C16.3184 43.4475 17.2443 43.8098 18.1651 44.1849C18.322 44.2512 18.4737 44.3125 18.502 44.5089Z" fill="#383838"/>
<path d="M6.90234 15.4002C6.97436 15.2548 7.09267 15.1272 7.0901 14.9486L7.05923 14.9461C7.2727 14.844 7.34729 14.6603 7.36015 14.4408L7.35758 14.4434C7.47075 14.4153 7.52476 14.3566 7.46817 14.2367L7.46303 14.2469C7.63278 14.2112 7.68165 14.0964 7.66621 13.9407L7.66364 13.9458C7.81796 13.9025 7.88226 13.7978 7.86683 13.6422L7.86425 13.6473C8.016 13.6014 8.08544 13.5019 8.07001 13.3437L8.06744 13.3488C8.22176 13.3054 8.29891 13.211 8.27577 13.0451L8.26548 13.0528C8.36836 13.0783 8.37607 13.0171 8.36836 12.9405L8.36578 12.9482C8.46352 12.9711 8.48409 12.8512 8.56125 12.841L8.54839 12.8257C8.61784 13.0222 8.44552 13.1242 8.36321 13.2518C7.87711 13.9969 7.3833 14.7343 6.9795 15.5253C6.94864 15.4819 6.92549 15.4411 6.90234 15.4002Z" fill="#383838"/>
<path d="M6.90226 15.4004C6.92541 15.4412 6.94856 15.482 6.9717 15.5229C6.73766 16.0255 6.50361 16.5282 6.26956 17.0309C6.21555 17.1457 6.19498 17.286 6.03809 17.3243C6.21812 16.6328 6.54733 16.0102 6.90226 15.4004Z" fill="#383838"/>
<path d="M5.62891 18.4903C5.63919 18.0642 5.81409 17.6917 6.03013 17.3345C6.00441 17.758 5.83723 18.1306 5.62891 18.4903Z" fill="#383838"/>
<path d="M9.0625 12.0579C9.16023 12.063 9.18852 11.9635 9.26054 11.9277C9.21167 12.1676 9.08307 12.3436 8.84131 12.4253L8.85674 12.4406C8.86188 12.3768 8.93133 12.3156 8.87217 12.2467L8.86188 12.2543C8.96476 12.2824 8.98277 12.2288 8.96733 12.1446L8.95962 12.1523C9.04964 12.1676 9.07021 12.1166 9.0625 12.0426V12.0579Z" fill="#383838"/>
<path d="M8.84132 12.4253C8.82588 12.6192 8.76158 12.78 8.54297 12.8259L8.55583 12.8412C8.56097 12.7774 8.61756 12.7162 8.57126 12.6473L8.56097 12.6549C8.66128 12.6779 8.67414 12.6218 8.66385 12.5427L8.66128 12.5503C8.76158 12.5784 8.77959 12.4585 8.85675 12.4432L8.84132 12.4253Z" fill="#383838"/>
<path d="M13.3037 41.6641C13.4709 41.7202 13.6252 41.7942 13.6946 41.9754L13.6843 41.9881C13.6149 41.9881 13.548 41.9881 13.4786 41.9881L13.4837 41.9932C13.4709 41.9371 13.4323 41.9039 13.3783 41.8886L13.3834 41.8937C13.3474 41.8274 13.3114 41.7636 13.2754 41.6972L13.3037 41.6641Z" fill="#383838"/>
<path d="M13.6946 41.9751C13.8361 41.9853 13.9493 42.0363 13.9827 42.1894L13.9853 42.1869C13.9158 42.1869 13.8464 42.1869 13.7769 42.1894L13.7821 42.192C13.7486 42.1231 13.7152 42.0567 13.6792 41.9879L13.6946 41.9751Z" fill="#383838"/>
<path d="M13.0183 41.4419C13.1366 41.4878 13.2421 41.5491 13.3064 41.6664L13.2755 41.6971C13.2087 41.6945 13.1418 41.692 13.0775 41.6894L13.0826 41.6945C13.0466 41.6307 13.0106 41.5644 12.9746 41.5006C12.9875 41.4776 13.0029 41.4598 13.0183 41.4419Z" fill="#383838"/>
<path d="M14.186 42.2893C14.3223 42.302 14.4278 42.3633 14.4844 42.4909L14.4895 42.4832C14.4201 42.4832 14.3532 42.4832 14.2838 42.4832L14.2889 42.4883C14.2555 42.4194 14.222 42.3505 14.1886 42.2842L14.186 42.2893Z" fill="#383838"/>
<path d="M14.4844 42.4931C14.6258 42.5008 14.7313 42.5569 14.7853 42.6921L14.793 42.6845C14.7236 42.6845 14.6541 42.6845 14.5847 42.6845L14.5898 42.687C14.5564 42.6181 14.523 42.5493 14.4895 42.4829L14.4844 42.4931Z" fill="#383838"/>
<path d="M13.9855 42.1896C14.0729 42.1819 14.1449 42.2074 14.1861 42.2916L14.1887 42.2865C14.1192 42.2865 14.0498 42.2865 13.9829 42.2865L13.9881 42.2916C13.9881 42.2559 13.9881 42.2227 13.9881 42.187L13.9855 42.1896Z" fill="#383838"/>
<path d="M15.0451 42.7891C14.9576 42.7891 14.8727 42.7865 14.7853 42.7865L14.7904 42.7916C14.7904 42.7559 14.7904 42.7227 14.7904 42.687L14.7827 42.6947C14.883 42.6947 14.9653 42.738 15.0451 42.7891Z" fill="#383838"/>
<path d="M10.2174 39.3397C9.84958 39.0642 9.52295 38.7503 9.30176 38.3446C9.33005 38.3191 9.35834 38.2936 9.3892 38.2681C9.70041 38.5921 10.0425 38.8881 10.2945 39.2632C10.2688 39.2887 10.2431 39.3142 10.2174 39.3397Z" fill="#383838"/>
<path d="M10.6958 39.6611C10.9864 39.8602 11.2539 40.0847 11.4082 40.4139C11.061 40.2837 10.8296 40.0209 10.6187 39.7351C10.6444 39.7096 10.6701 39.6841 10.6958 39.6611Z" fill="#383838"/>
<path d="M7.36002 14.4438C7.34716 14.6633 7.27257 14.847 7.0591 14.9491C7.03338 14.7067 7.08482 14.5102 7.36002 14.4438Z" fill="#383838"/>
<path d="M12.0564 41.0107C11.9149 40.9571 11.8069 40.8653 11.7349 40.7326C11.7554 40.7096 11.776 40.6841 11.7966 40.6611C11.938 40.7147 12.0461 40.8066 12.1155 40.9418C12.0924 40.9673 12.0744 40.9877 12.0564 41.0107Z" fill="#383838"/>
<path d="M13.9805 42.2866C14.0499 42.2866 14.1194 42.2866 14.1862 42.2866C14.2197 42.3555 14.2531 42.4244 14.2865 42.4907C14.1322 42.5035 14.0139 42.4576 13.9805 42.2866Z" fill="#383838"/>
<path d="M14.4896 42.4858C14.523 42.5547 14.5564 42.6236 14.5899 42.69C14.4407 42.6925 14.3198 42.6491 14.2812 42.4858C14.3533 42.4858 14.4201 42.4858 14.4896 42.4858Z" fill="#383838"/>
<path d="M8.85678 12.4405C8.77962 12.4558 8.76162 12.5757 8.66131 12.5477C8.62788 12.3742 8.69217 12.2695 8.87478 12.2466C8.92879 12.3155 8.86192 12.3767 8.85678 12.4405Z" fill="#383838"/>
<path d="M8.56865 12.6445C8.61495 12.7134 8.55837 12.7747 8.55322 12.8385C8.47606 12.8512 8.45549 12.9686 8.35775 12.9456C8.32689 12.7772 8.3809 12.6675 8.56865 12.6445Z" fill="#383838"/>
<path d="M8.26814 13.0454C8.29128 13.2087 8.21413 13.3057 8.05981 13.3491C8.03152 13.1806 8.08553 13.0684 8.26814 13.0454Z" fill="#383838"/>
<path d="M7.8614 13.645C7.87426 13.8007 7.81253 13.9053 7.65821 13.9487C7.62735 13.7803 7.67365 13.6654 7.8614 13.645Z" fill="#383838"/>
<path d="M7.6634 13.9434C7.67883 14.099 7.62996 14.2138 7.46022 14.2496C7.43192 14.0862 7.47308 13.9663 7.6634 13.9434Z" fill="#383838"/>
<path d="M8.06491 13.3438C8.08035 13.5019 8.0109 13.6015 7.85916 13.6474C7.82829 13.4815 7.87716 13.3667 8.06491 13.3438Z" fill="#383838"/>
<path d="M12.9719 41.4984C13.0079 41.5622 13.044 41.6285 13.08 41.6923C12.9282 41.7178 12.8253 41.6413 12.7456 41.5239C12.761 41.506 12.7765 41.4856 12.7945 41.4678C12.8536 41.478 12.9128 41.4882 12.9719 41.4984Z" fill="#383838"/>
<path d="M13.0747 41.687C13.1416 41.6896 13.2084 41.6921 13.2727 41.6947C13.3088 41.761 13.3448 41.8248 13.3808 41.8911C13.2239 41.909 13.1081 41.858 13.0747 41.687Z" fill="#383838"/>
<path d="M13.6843 41.9883C13.7177 42.0572 13.7511 42.1235 13.7872 42.1924C13.638 42.195 13.5222 42.1439 13.4785 41.9883C13.5454 41.9883 13.6148 41.9883 13.6843 41.9883Z" fill="#383838"/>
<path d="M12.563 41.4035C12.4653 41.3704 12.3907 41.3091 12.3418 41.2173C12.3598 41.1994 12.3778 41.179 12.3984 41.1611C12.4935 41.1943 12.5681 41.2504 12.6093 41.3448C12.5938 41.3678 12.5784 41.3857 12.563 41.4035Z" fill="#383838"/>
<path d="M11.7323 40.735C11.704 40.7044 11.65 40.6534 11.6551 40.6457C11.7066 40.5717 11.7503 40.6279 11.794 40.6636C11.7734 40.6865 11.7529 40.7121 11.7323 40.735Z" fill="#383838"/>
<path d="M12.1132 40.9443C12.1724 40.9877 12.2341 41.0311 12.2933 41.0719C12.2753 41.0898 12.2573 41.1076 12.2392 41.1281C12.1775 41.0898 12.1184 41.0515 12.0566 41.0107C12.0746 40.9877 12.0926 40.9673 12.1132 40.9443Z" fill="#383838"/>
<path d="M7.46535 14.2393C7.52451 14.3592 7.46792 14.4153 7.35476 14.4459C7.32904 14.3439 7.3599 14.2724 7.46535 14.2393Z" fill="#383838"/>
<path d="M12.7485 41.5237C12.6868 41.4829 12.6276 41.4446 12.5659 41.4038C12.5813 41.3859 12.5968 41.3655 12.6122 41.3477C12.6739 41.3859 12.7357 41.4268 12.7974 41.4676C12.7794 41.4854 12.764 41.5059 12.7485 41.5237Z" fill="#383838"/>
<path d="M14.7932 42.687C14.7932 42.7227 14.7932 42.7559 14.7932 42.7916C14.7031 42.7993 14.6286 42.7738 14.5874 42.687C14.6543 42.687 14.7237 42.687 14.7932 42.687Z" fill="#383838"/>
<path d="M13.988 42.187C13.988 42.2227 13.988 42.2559 13.988 42.2916C13.8954 42.3018 13.8208 42.2789 13.7822 42.187C13.8491 42.187 13.9185 42.187 13.988 42.187Z" fill="#383838"/>
<path d="M10.5208 39.638C10.4848 39.6048 10.4514 39.5691 10.418 39.5359C10.4437 39.5104 10.4694 39.4874 10.4926 39.4619C10.526 39.4951 10.5594 39.5283 10.5954 39.564C10.5697 39.5869 10.5466 39.6125 10.5208 39.638Z" fill="#383838"/>
<path d="M10.6187 39.7349C10.5853 39.7018 10.5544 39.6711 10.521 39.638C10.5441 39.6124 10.5699 39.5869 10.5956 39.564C10.629 39.5971 10.6625 39.6303 10.6959 39.6635C10.6702 39.6839 10.6445 39.7094 10.6187 39.7349Z" fill="#383838"/>
<path d="M12.2933 41.0723C12.3293 41.1029 12.3627 41.1335 12.3987 41.1641C12.3807 41.182 12.3627 41.2024 12.3447 41.2203C12.3087 41.1896 12.2753 41.159 12.2393 41.1284C12.2573 41.1105 12.2753 41.0901 12.2933 41.0723Z" fill="#383838"/>
<path d="M8.36069 12.9409C8.36841 13.0175 8.36069 13.0787 8.25781 13.0532C8.26296 12.9894 8.29382 12.9486 8.36069 12.9409Z" fill="#383838"/>
<path d="M8.66391 12.5425C8.6742 12.619 8.66134 12.6777 8.56104 12.6548C8.56361 12.5884 8.59704 12.5476 8.66391 12.5425Z" fill="#383838"/>
<path d="M13.3784 41.8862C13.4324 41.9041 13.471 41.9347 13.4839 41.9908C13.4247 41.9806 13.3861 41.95 13.3784 41.8862Z" fill="#383838"/>
<path d="M8.96775 12.1445C8.98319 12.2287 8.96518 12.2823 8.8623 12.2542C8.86745 12.1905 8.90088 12.1522 8.96775 12.1445Z" fill="#383838"/>
<path d="M9.06528 12.0425C9.073 12.1165 9.05242 12.1675 8.9624 12.1522C8.96497 12.0859 8.99584 12.0476 9.06528 12.0425Z" fill="#383838"/>
<path d="M10.2944 39.2603C10.3279 39.2934 10.3613 39.3266 10.3948 39.3598C10.369 39.3853 10.3459 39.4108 10.3202 39.4363C10.2867 39.4031 10.2533 39.37 10.2173 39.3368C10.243 39.3138 10.2687 39.2883 10.2944 39.2603Z" fill="#383838"/>
<path d="M10.3949 39.3623C10.4283 39.3955 10.4618 39.4286 10.4926 39.4618C10.4669 39.4873 10.4438 39.5103 10.418 39.5358C10.3846 39.5026 10.3537 39.472 10.3203 39.4389C10.3435 39.4133 10.3692 39.3878 10.3949 39.3623Z" fill="#383838"/>
</g>
<defs>
<clipPath id="clip0_353_335">
<rect width="116.108" height="50.2664" fill="white" transform="translate(0.891602 0.540039)"/>
</clipPath>
</defs>
</svg>
