<svg width="44" height="44" viewBox="0 0 44 44" fill="none" xmlns="http://www.w3.org/2000/svg">
<path d="M40.3361 14C37.2491 6.936 30.2001 2 22.0001 2C13.7991 2 6.75006 6.936 3.66406 14" stroke="#999999" stroke-width="4" stroke-linecap="round" stroke-linejoin="round"/>
<path d="M22 12C20.0976 13.86 18.5867 16.082 17.5562 18.535C16.5258 20.988 15.9966 23.6224 16 26.283C16 26.783 16.018 27.279 16.055 27.771C17.9411 29.6292 19.4382 31.8445 20.4589 34.2875C21.4796 36.7305 22.0035 39.3523 22 42C21.9964 39.3522 22.5202 36.7301 23.541 34.2869C24.5617 31.8437 26.0588 29.6283 27.945 27.77C28.1655 24.8668 27.7476 21.9505 26.7205 19.226C25.6934 16.5016 24.0822 14.0352 22 12Z" stroke="#999999" stroke-width="4" stroke-linecap="round" stroke-linejoin="round"/>
<path d="M2 22C2 33.046 10.954 42 22 42C22.0036 39.3522 21.4798 36.7301 20.4591 34.2869C19.4383 31.8437 17.9412 29.6283 16.055 27.77C12.3153 24.0669 7.26296 21.9927 2 22Z" stroke="#999999" stroke-width="4" stroke-linecap="round" stroke-linejoin="round"/>
<path d="M42 22C42 33.046 33.046 42 22 42C21.9964 39.3522 22.5203 36.7301 23.541 34.2869C24.5617 31.8437 26.0588 29.6283 27.945 27.77C31.6847 24.0669 36.7371 21.9927 42 22Z" stroke="#999999" stroke-width="4" stroke-linecap="round" stroke-linejoin="round"/>
</svg>
