<svg width="25" height="24" viewBox="0 0 25 24" fill="none" xmlns="http://www.w3.org/2000/svg">
<g clip-path="url(#clip0_755_374)">
<path d="M22.8524 23.7692L14.2707 15.5308C13.5896 16.0538 12.8063 16.4679 11.9209 16.7731C11.0355 17.0782 10.0933 17.2308 9.0944 17.2308C6.61977 17.2308 4.52565 16.4078 2.81203 14.7618C1.09841 13.1159 0.241142 11.1055 0.240234 8.73077C0.240234 6.35512 1.0975 4.34477 2.81203 2.69969C4.52656 1.05461 6.62068 0.231638 9.0944 0.230766C11.569 0.230766 13.6632 1.05374 15.3768 2.69969C17.0904 4.34564 17.9477 6.356 17.9486 8.73077C17.9486 9.68974 17.7896 10.5942 17.4718 11.4442C17.154 12.2942 16.7226 13.0462 16.1777 13.7L24.7595 21.9385L22.8524 23.7692ZM9.0944 14.6154C10.7971 14.6154 12.2447 14.043 13.437 12.8984C14.6294 11.7537 15.2251 10.3645 15.2242 8.73077C15.2242 7.09615 14.628 5.70651 13.4357 4.56184C12.2433 3.41718 10.7962 2.84528 9.0944 2.84615C7.39168 2.84615 5.94413 3.41848 4.75177 4.56315C3.55941 5.70782 2.96369 7.09702 2.96459 8.73077C2.96459 10.3654 3.56077 11.755 4.75314 12.8997C5.9455 14.0444 7.39258 14.6163 9.0944 14.6154Z" fill="black"/>
</g>
<defs>
<clipPath id="clip0_755_374">
<rect width="25" height="24" fill="white"/>
</clipPath>
</defs>
</svg>
