<svg width="25" height="30" viewBox="0 0 25 30" fill="none" xmlns="http://www.w3.org/2000/svg">
<g opacity="0.4">
<path d="M4.10185 9.09766H20.7113C21.1338 9.09761 21.5512 9.1889 21.935 9.36528C22.3188 9.54166 22.6599 9.79895 22.935 10.1195C23.2101 10.4401 23.4126 10.8163 23.5286 11.2225C23.6446 11.6286 23.6715 12.0551 23.6073 12.4726L21.7689 24.4137C21.6094 25.4515 21.0835 26.3978 20.2865 27.0813C19.4896 27.7649 18.4742 28.1405 17.4243 28.1402H7.38742C6.33774 28.1402 5.32274 27.7644 4.5261 27.0808C3.72946 26.3973 3.20381 25.4512 3.04425 24.4137L1.20592 12.4726C1.14171 12.0551 1.16855 11.6286 1.28458 11.2225C1.40062 10.8163 1.60312 10.4401 1.87818 10.1195C2.15325 9.79895 2.49439 9.54166 2.87821 9.36528C3.26202 9.1889 3.67944 9.09761 4.10185 9.09766Z" stroke="black" stroke-width="2" stroke-linecap="round" stroke-linejoin="round"/>
<path d="M8.01221 13.4917V6.16763C8.01221 5.00215 8.47519 3.88441 9.29931 3.06029C10.1234 2.23618 11.2412 1.77319 12.4066 1.77319C13.5721 1.77319 14.6899 2.23618 15.514 3.06029C16.3381 3.88441 16.8011 5.00215 16.8011 6.16763V13.4917" stroke="black" stroke-width="2" stroke-linecap="round" stroke-linejoin="round"/>
</g>
</svg>
