<svg width="29" height="25" viewBox="0 0 29 25" fill="none" xmlns="http://www.w3.org/2000/svg">
<path d="M27.2096 8.16374C27.2115 9.05479 27.0403 9.93741 26.7059 10.7605C26.3715 11.5836 25.8804 12.3309 25.2612 12.9591L15.0267 23.5581C14.9414 23.6465 14.8397 23.7167 14.7275 23.7646C14.6154 23.8125 14.495 23.8372 14.3734 23.8372C14.2518 23.8372 14.1314 23.8125 14.0193 23.7646C13.9071 23.7167 13.8054 23.6465 13.7201 23.5581L3.48558 12.9591C2.23782 11.6873 1.53623 9.96173 1.53516 8.16202C1.53408 6.36231 2.23361 4.63588 3.47985 3.36252C4.72609 2.08915 6.41696 1.37317 8.18048 1.37207C9.944 1.37097 11.6357 2.08486 12.8835 3.35667L14.3734 4.77774L15.8736 3.35199C16.8048 2.40647 17.9895 1.76367 19.2783 1.50475C20.5672 1.24583 21.9023 1.3824 23.1151 1.89721C24.3279 2.41201 25.3641 3.28198 26.0928 4.39729C26.8215 5.51259 27.2101 6.82323 27.2096 8.16374Z" stroke="#ECB30A" stroke-width="2"/>
</svg>
