<svg width="20" height="22" viewBox="0 0 20 22" fill="none" xmlns="http://www.w3.org/2000/svg">
<path d="M8.50624 20.6271V20.625V12.375V12.0559L8.32137 11.7957L1.09727 1.63044C0.980496 1.45586 0.97292 1.33673 1.05238 1.15277C1.07703 1.09569 1.09898 1.06262 1.11279 1.04513C1.12582 1.02863 1.13363 1.02331 1.13562 1.02199C1.13753 1.02072 1.14407 1.01646 1.16124 1.01175C1.17964 1.00671 1.21487 1 1.27261 1H18.7268C18.7842 1 18.8192 1.00668 18.8375 1.01169C18.8545 1.01637 18.8611 1.02062 18.8631 1.02199C18.8653 1.02341 18.8733 1.0289 18.8866 1.04566C18.9006 1.0634 18.9227 1.09673 18.9476 1.15404C19.0271 1.33739 19.0196 1.45549 18.9025 1.62987L11.678 11.7957L11.4932 12.0559V12.375V20.625C11.4932 20.7914 11.4497 20.8714 11.3933 20.9337C11.3576 20.973 11.3349 20.9845 11.3264 20.9883C11.3182 20.9919 11.297 21.0001 11.249 21H11.2464H8.75297C8.70395 21 8.68178 20.9916 8.67274 20.9875C8.6635 20.9834 8.64053 20.9716 8.60487 20.9323C8.54856 20.8702 8.50589 20.7913 8.50624 20.6271Z" stroke="black" stroke-width="2"/>
</svg>
