<svg width="60" height="58" viewBox="0 0 60 58" fill="none" xmlns="http://www.w3.org/2000/svg">
<g clip-path="url(#clip0_353_476)">
<path d="M29.1673 3.88709L27.7905 4.86827C27.1865 5.2987 26.5856 5.72727 25.9856 6.15492C24.1238 7.47952 21.9834 9.00129 19.7951 10.5554C19.7107 9.85844 19.6223 9.1207 19.5419 8.39591C19.5175 8.17191 19.4423 7.49341 18.7244 7.15092C18.2465 6.92136 17.7147 6.95005 17.1432 7.23515C9.8779 10.8785 5.32042 16.2556 3.59891 23.2174C1.1951 32.9339 4.26088 41.2518 12.7118 47.9423C14.7719 49.5742 17.1697 50.8544 20.0239 51.8448C19.6975 52.5678 19.3589 53.3527 18.9888 54.2441C14.1018 52.4836 9.98873 49.7547 6.75518 46.1281C2.11839 40.9296 -0.152208 34.9601 0.00845311 28.3853C0.178265 21.4327 2.97152 15.2985 8.31095 10.1519C10.8663 7.68872 13.9269 5.70969 17.4066 4.27031C18.2872 3.90745 18.6959 3.25302 18.5912 2.37828C18.4956 1.59241 18.4122 0.785245 18.339 0.0724974L18.3349 0.0345459C21.2909 1.08886 24.257 2.14317 27.2801 3.21692L29.1673 3.88709Z" fill="black"/>
<path d="M59.5078 29.3591C59.2597 36.6633 56.1715 43.0003 50.3288 48.1932C47.9626 50.2972 45.1917 52.0087 42.0913 53.2815C41.5992 53.4842 40.7949 53.9951 40.9321 55.1439C41.0226 55.9131 41.103 56.6786 41.1874 57.5052L30.355 53.6582L39.7241 46.9889L40.2387 51.2173L41.9093 50.5064C42.9872 50.0473 43.9755 49.5206 44.9314 48.8948C53.0641 43.5733 57.0104 36.3671 56.6606 27.4781C56.4694 22.5935 54.6676 17.9282 51.4483 13.9859C48.4018 10.2546 44.2806 7.40272 39.4923 5.70693C39.8573 4.89884 40.2041 4.0889 40.5325 3.30396C45.3818 5.03862 49.4797 7.74799 52.7224 11.3654C57.4507 16.6416 59.7335 22.6953 59.5078 29.3591Z" fill="black"/>
<path d="M31.0622 30.7762C30.9005 30.7929 30.7459 30.7855 30.6087 30.778C30.5009 30.7725 30.3992 30.7679 30.3148 30.7762C30.1979 30.7873 29.8399 30.8225 29.5766 30.604C29.3366 30.4041 29.3142 30.1171 29.3183 29.9181C29.3335 29.0739 29.3305 28.214 29.3274 27.3828C29.3264 27.0736 29.3254 26.7654 29.3254 26.4562L29.3234 25.6185C29.3224 24.7669 29.3203 23.8866 29.3285 23.0193C28.5272 23.0341 27.6659 23.0332 26.6979 23.0174C26.6471 23.0165 26.6328 23.0165 26.5505 23.1239L25.4401 24.5845C24.0226 26.4488 22.5573 28.376 21.1053 30.2643C20.8734 30.5651 20.8043 30.8095 20.8663 31.1094C20.9355 31.4427 20.9761 31.7722 20.9883 32.0888C20.9914 32.1536 20.9985 32.1934 21.0036 32.2156C21.03 32.2202 21.0788 32.2258 21.1622 32.2239C22.1628 32.2082 23.1786 32.2091 24.1619 32.2109C24.9286 32.2119 25.7217 32.2128 26.4996 32.2054C26.7325 32.2026 27.0223 32.2267 27.2368 32.4275C27.4514 32.6284 27.4646 32.895 27.4565 33.0783C27.4422 33.3847 27.4453 33.7012 27.4483 34.0076C27.4504 34.2594 27.4524 34.5186 27.4463 34.7768C27.7473 34.7694 28.0472 34.7657 28.3431 34.7657C28.6767 34.7657 29.0051 34.7704 29.3274 34.7796C29.3173 34.4908 29.3203 34.202 29.3234 33.9215C29.3254 33.6346 29.3285 33.3375 29.3173 33.0505C29.3132 32.9441 29.301 32.621 29.5573 32.3979C29.8125 32.1758 30.1653 32.2008 30.2812 32.2091C30.4256 32.2202 30.5782 32.2165 30.7398 32.2137C30.8436 32.2119 30.9493 32.2091 31.0571 32.2109C31.0459 31.7416 31.0357 31.2575 31.0622 30.7762ZM27.4493 29.3183C27.4493 29.3572 27.4483 29.3951 27.4473 29.4331C27.4463 29.4581 27.4453 29.4831 27.4453 29.5081C27.4392 30.0172 27.4361 30.3236 27.1809 30.5522C26.9267 30.7799 26.5871 30.7808 26.0248 30.7817C25.6882 30.7827 25.3516 30.7836 25.0079 30.7836C24.7415 30.7836 24.47 30.7827 24.1914 30.7827H22.3967L26.6593 25.1427L27.4493 25.3075V29.3183Z" fill="black"/>
<path d="M18.4971 33.2542C18.4565 33.7549 18.4727 34.2566 18.488 34.7426L18.489 34.7806C16.9922 34.7759 15.4741 34.7741 13.9102 34.7741C12.4947 34.7741 11.0417 34.7759 9.53573 34.7796C9.53573 34.7398 9.53268 34.6972 9.52353 34.6519C9.31813 33.642 9.69334 32.9172 10.7783 32.2276C11.8216 31.5649 12.7957 30.7956 13.7373 30.0514C14.0434 29.8098 14.3494 29.5682 14.6576 29.3303C15.3409 28.8027 15.7934 28.2936 16.0832 27.7281C16.5702 26.7765 16.5224 25.9406 15.9408 25.2436C15.3693 24.5596 14.5426 24.2976 13.4099 24.4429C12.4205 24.5697 11.5491 25.0409 10.7458 25.8851C10.7448 25.8842 10.7437 25.8823 10.7427 25.8814C10.3756 25.5056 9.98314 25.1501 9.57844 24.7901C10.9135 23.1526 13.4801 22.3824 15.5839 22.9961C17.1956 23.4673 17.8647 24.4281 18.1423 25.1511C18.5775 26.284 18.3843 27.6623 17.6521 28.662C17.0237 29.5192 16.1635 30.157 15.2524 30.8327C15.1558 30.9049 15.0582 30.9761 14.9616 31.0483C14.5701 31.3409 14.1786 31.6343 13.7871 31.9277L12.9879 32.5257L13.2838 33.1792H13.5899C14.0281 33.1792 14.4654 33.181 14.9036 33.182C16.0374 33.1847 17.2098 33.1884 18.3649 33.1699C18.426 33.169 18.4697 33.1709 18.5002 33.1727C18.5012 33.194 18.5002 33.2208 18.4971 33.2542Z" fill="black"/>
<path d="M50.5409 25.7888C49.2363 28.3028 47.9652 30.8817 46.7369 33.3763L46.1207 34.6269C46.0414 34.7879 46.0251 34.7879 45.8726 34.7833C45.474 34.7703 45.0967 34.7639 44.7337 34.7639C44.4419 34.7639 44.1592 34.7676 43.8836 34.7759C45.0459 32.5127 46.2183 30.2124 47.3531 27.9853L48.4909 25.7555C48.6831 25.3787 48.8102 25.1297 48.6252 24.8668C48.4401 24.6021 48.1269 24.6021 47.6541 24.6021C47.0887 24.6012 46.5203 24.6021 45.9529 24.6021C44.8273 24.6021 43.7016 24.603 42.577 24.6003H42.4326C42.4031 24.6012 42.3726 24.6002 42.3431 24.6012C42.3452 24.5438 42.3452 24.479 42.3442 24.4059C42.3411 24.2365 42.3442 24.0615 42.3462 23.8912C42.3513 23.6015 42.3553 23.3016 42.334 22.9998V22.9952H42.3462C43.4108 23.01 44.4927 23.0081 45.537 23.0054C45.9316 23.0044 46.3271 23.0035 46.7206 23.0035H46.7501C47.1396 23.0035 47.53 23.0044 47.9195 23.0054C48.9597 23.0072 50.0355 23.0091 51.0951 22.997C51.1195 22.9961 51.1408 22.9961 51.1581 22.997C51.1601 23.0137 51.1622 23.0331 51.1632 23.0572C51.2201 23.993 51.0229 24.8604 50.5409 25.7888Z" fill="black"/>
<path d="M40.5501 21.9779C40.5501 21.9788 40.5501 21.9798 40.5491 21.9798L39.4753 24.4355C38.9689 25.5926 38.4625 26.7496 37.9562 27.9067C37.6562 28.5907 37.3562 29.2748 37.0563 29.9579C36.196 31.9166 35.3073 33.941 34.4491 35.9385C34.3525 36.1634 34.326 36.1607 34.1542 36.1431C34.019 36.1292 33.8858 36.1255 33.7556 36.1255C33.6549 36.1255 33.5563 36.1273 33.4597 36.1301C33.415 36.131 33.3712 36.132 33.3275 36.1329H33.1892C33.0936 36.1329 32.997 36.132 32.9015 36.1301C32.7438 36.1273 32.5822 36.1246 32.4185 36.1283C32.8964 35.0656 33.3682 33.9854 33.8247 32.9394L35.0389 30.1662C36.1838 27.5531 37.3674 24.8502 38.5195 22.1862C38.6202 21.9529 38.6435 21.9548 38.8184 21.9668C39.2211 21.9955 39.6228 21.989 40.0112 21.9835C40.1729 21.9807 40.3335 21.9779 40.4952 21.9779H40.5501Z" fill="black"/>
</g>
<defs>
<clipPath id="clip0_353_476">
<rect width="59.5227" height="57.4706" fill="white" transform="translate(0 0.0345459)"/>
</clipPath>
</defs>
</svg>
