<svg width="136" height="20" viewBox="0 0 136 20" fill="none" xmlns="http://www.w3.org/2000/svg">
<g opacity="0.6" clip-path="url(#clip0_353_422)">
<path d="M0.0356292 12.7788C0.20385 12.7855 0.373032 12.797 0.541253 12.797C6.92019 12.798 13.3001 12.798 19.679 12.799C19.8434 12.799 20.0068 12.8153 20.2058 12.8258C20.152 12.9275 20.1289 12.9898 20.0904 13.0416C19.8511 13.3688 19.605 13.6911 19.3705 14.0211C19.2763 14.1525 19.1676 14.2235 19.0033 14.2091C18.9254 14.2024 18.8456 14.2081 18.7668 14.2081C12.658 14.2081 6.54914 14.2081 0.440321 14.2081C0.304783 14.2081 0.170206 14.2014 0.034668 14.1976C0.0356292 13.7247 0.0356292 13.2517 0.0356292 12.7788Z" fill="#383838"/>
<path d="M0.0356445 15.3458C0.170221 15.3391 0.304798 15.3257 0.439375 15.3257C6.26655 15.3247 12.0937 15.3247 17.9209 15.3247C18.043 15.3247 18.1651 15.3247 18.3333 15.3247C18.2891 15.4321 18.2737 15.505 18.2333 15.5607C17.9968 15.8897 17.7498 16.2111 17.5162 16.542C17.421 16.6763 17.3038 16.7339 17.1432 16.7204C17.0759 16.7147 17.0077 16.7195 16.9404 16.7195C11.4516 16.7195 5.96279 16.7195 0.47398 16.7185C0.327868 16.7185 0.182718 16.7041 0.0366058 16.6974C0.0356445 16.2466 0.0356445 15.7957 0.0356445 15.3458Z" fill="#383838"/>
<path d="M0.0356445 17.8446C0.171183 17.8417 0.305759 17.835 0.441297 17.835C5.62539 17.835 10.8104 17.835 15.9945 17.835C16.1397 17.835 16.2848 17.835 16.4732 17.835C16.4309 17.9424 16.4175 18.0182 16.3761 18.0748C16.1397 18.4038 15.8946 18.7261 15.6581 19.0552C15.5706 19.176 15.4658 19.2365 15.3159 19.2249C15.2265 19.2182 15.1361 19.224 15.0458 19.224C10.1991 19.224 5.35335 19.224 0.506663 19.223C0.349977 19.223 0.193292 19.2048 0.0366058 19.1952C0.0356445 18.7453 0.0356445 18.2945 0.0356445 17.8446Z" fill="#383838"/>
<path d="M56.1582 11.3243C56.2197 11.2332 56.2784 11.1382 56.3437 11.0499C58.9641 7.49777 61.5855 3.94751 64.202 0.392453C64.3414 0.202517 64.4904 0.117142 64.7327 0.117142C68.6344 0.123857 72.5362 0.121939 76.438 0.122898C76.5447 0.122898 76.6523 0.137287 76.834 0.150717C76.2995 0.912377 75.7776 1.59826 75.2671 2.29181C74.7471 2.99975 74.2242 3.70481 73.7032 4.41275C73.1918 5.10631 72.6823 5.80082 72.1401 6.53754C72.3026 6.54713 72.3997 6.55768 72.4968 6.55768C74.0867 6.55864 75.6766 6.55385 77.2666 6.56248C77.505 6.56344 77.6568 6.48766 77.7991 6.29388C79.2237 4.3504 80.6617 2.41747 82.0825 0.471113C82.268 0.216906 82.4583 0.113305 82.7775 0.114264C86.6225 0.124816 90.4676 0.120979 94.3136 0.120979C94.4443 0.120979 94.576 0.120979 94.7846 0.120979C94.6741 0.285974 94.6125 0.386697 94.5424 0.482624C92.4237 3.35564 90.3051 6.22769 88.1865 9.10071C87.679 9.78946 87.1666 10.4753 86.6658 11.1689C86.5418 11.3416 86.4034 11.4375 86.188 11.4164C86.0986 11.4078 86.0073 11.4154 85.9179 11.4154C76.1755 11.4154 66.4322 11.4154 56.6898 11.4154C56.5244 11.4154 56.3591 11.4154 56.1938 11.4154C56.1822 11.3857 56.1697 11.355 56.1582 11.3243Z" fill="#383838"/>
<path d="M19.5195 6.02437C19.6224 5.86226 19.6704 5.77688 19.7281 5.69822C21.0316 3.93029 22.3389 2.16619 23.6337 0.392498C23.7866 0.183377 23.949 0.117188 24.198 0.117188C32.3755 0.122943 40.5519 0.123902 48.7294 0.120065C49.8791 0.120065 51.0018 0.262997 52.0775 0.681239C53.2204 1.12538 54.1807 1.8103 54.8555 2.84919C55.514 3.86314 55.7726 4.96822 55.5448 6.16731C55.4486 6.67188 55.2458 7.13329 54.9401 7.5477C54.051 8.7535 53.1579 9.95547 52.2774 11.167C52.1409 11.3541 51.9881 11.4174 51.766 11.4174C48.6871 11.4126 45.6082 11.4174 42.5293 11.4097C42.2159 11.4088 41.8958 11.3771 41.592 11.3052C41.1412 11.1987 41.0374 10.9224 41.2614 10.5205C41.3373 10.3833 41.4344 10.2567 41.5267 10.1291C42.2217 9.1727 42.9195 8.21823 43.6126 7.25896C43.7376 7.08629 43.8577 6.90595 43.9471 6.71409C44.1115 6.36204 44.0058 6.16251 43.6241 6.0685C43.5261 6.04452 43.4242 6.03493 43.3233 6.03205C43.0983 6.02533 42.8724 6.02437 42.6465 6.02437C35.1237 6.02437 27.6009 6.02437 20.078 6.02437C19.9213 6.02437 19.7656 6.02437 19.5195 6.02437Z" fill="#383838"/>
<path d="M17.8364 19.1394C17.8951 19.0473 17.9489 18.9523 18.0133 18.865C20.7596 15.1402 23.5088 11.4163 26.2513 7.68759C26.3945 7.49382 26.5483 7.42188 26.7858 7.42188C30.2482 7.42859 33.7107 7.42571 37.1732 7.42763C37.3424 7.42763 37.5135 7.42859 37.6788 7.45641C38.2152 7.54658 38.3488 7.81134 38.0979 8.2881C38.0095 8.45597 37.8989 8.61521 37.7865 8.76869C37.0742 9.74043 36.3561 10.7083 35.6448 11.681C35.539 11.8249 35.4419 11.9803 35.3727 12.1444C35.2766 12.3708 35.3468 12.5415 35.5717 12.6413C35.713 12.7036 35.8707 12.7468 36.0254 12.7621C36.2946 12.789 36.5657 12.7947 36.8358 12.7957C41.3922 12.8034 45.9485 12.8091 50.504 12.8149C50.6482 12.8149 50.7923 12.8149 50.9836 12.8149C50.9288 12.931 50.9087 13.0058 50.8654 13.0624C48.5834 16.0275 45.6986 18.087 41.9997 18.9111C41.1509 19.1 40.2896 19.2065 39.4187 19.2171C39.1822 19.2199 38.9448 19.2228 38.7083 19.2228C31.9189 19.2228 25.1295 19.2228 18.3401 19.2228C18.1844 19.2228 18.0287 19.2228 17.872 19.2228C17.8605 19.196 17.8489 19.1681 17.8364 19.1394Z" fill="#383838"/>
<path d="M117.58 12.8984C117.52 12.9896 117.466 13.0845 117.4 13.1728C115.978 15.1028 114.551 17.031 113.133 18.9648C112.99 19.1596 112.833 19.2277 112.598 19.2277C106.036 19.2219 99.4736 19.2219 92.912 19.2229C91.8575 19.2229 90.8184 19.1222 89.811 18.7951C89.2929 18.6272 88.8036 18.3979 88.3787 18.0516C87.7779 17.5614 87.4223 16.9475 87.4713 16.1504C87.5001 15.6793 87.6626 15.2458 87.9327 14.863C88.3797 14.228 88.8459 13.6064 89.3015 12.9771C89.3804 12.8677 89.4755 12.8083 89.6139 12.815C89.7264 12.8207 89.8398 12.815 89.9523 12.815C98.9834 12.815 108.014 12.815 117.045 12.815C117.213 12.815 117.38 12.815 117.546 12.815C117.559 12.8428 117.569 12.8706 117.58 12.8984Z" fill="#383838"/>
<path d="M111.95 0.144082C111.842 0.30428 111.784 0.398288 111.719 0.487501C109.099 4.03872 106.477 7.58898 103.862 11.144C103.721 11.3349 103.57 11.4203 103.33 11.4203C99.1812 11.4146 95.0314 11.4165 90.8826 11.4155C90.7749 11.4155 90.6673 11.3982 90.5 11.3839C90.5942 11.2428 90.6519 11.1508 90.7153 11.0644C93.3425 7.50456 95.9725 3.94567 98.5957 0.38294C98.738 0.190127 98.8947 0.119141 99.1321 0.119141C103.27 0.124896 107.408 0.122978 111.546 0.123937C111.655 0.122978 111.765 0.134489 111.95 0.144082Z" fill="#383838"/>
<path d="M67.4761 12.8225C67.3685 12.9827 67.3098 13.0767 67.2435 13.166C65.8343 15.0787 64.4203 16.9887 63.0197 18.9072C62.8476 19.1422 62.6679 19.2305 62.3766 19.2305C58.52 19.2209 54.6634 19.2238 50.8069 19.2228C50.6781 19.2228 50.5483 19.2113 50.3608 19.2026C50.4531 19.0568 50.506 18.9619 50.5704 18.8755C51.9931 16.9445 53.4196 15.0164 54.8374 13.0825C54.9787 12.8906 55.1306 12.7823 55.37 12.8168C55.3806 12.8187 55.3921 12.8168 55.4036 12.8168C59.2602 12.811 63.1168 12.8053 66.9734 12.8005C67.1166 12.7986 67.2598 12.812 67.4761 12.8225Z" fill="#383838"/>
<path d="M85.3643 12.907C85.296 13.0077 85.2306 13.1104 85.1595 13.2072C83.7628 15.1008 82.3613 16.9916 80.9722 18.8909C80.7954 19.1336 80.6089 19.2315 80.3032 19.2305C76.4582 19.22 72.6131 19.2238 68.7681 19.2238C68.6364 19.2238 68.5056 19.2238 68.3076 19.2238C68.3912 19.0789 68.4316 18.9907 68.4874 18.9139C69.9302 16.9561 71.3779 15.002 72.814 13.0394C72.9572 12.8437 73.1216 12.813 73.3341 12.813C76.4351 12.8159 79.5361 12.8149 82.6362 12.8149C83.4139 12.8149 84.1925 12.8149 84.9701 12.8149C85.0903 12.8149 85.2105 12.8149 85.3306 12.8149C85.3421 12.8456 85.3537 12.8763 85.3643 12.907Z" fill="#383838"/>
<path d="M135.226 17.8348C135.276 18.3231 135.263 18.7529 135.232 19.2239C128.55 19.2239 121.908 19.2239 115.21 19.2239C115.277 19.0953 115.303 19.0234 115.345 18.9639C115.569 18.6541 115.802 18.349 116.023 18.0372C116.123 17.8962 116.239 17.8156 116.418 17.8348C116.496 17.8435 116.575 17.8358 116.654 17.8358C122.674 17.8358 128.693 17.8358 134.713 17.8358C134.868 17.8348 135.025 17.8348 135.226 17.8348Z" fill="#383838"/>
<path d="M135.226 15.3247C135.226 15.8101 135.226 16.2408 135.226 16.6955C129.171 16.6955 123.145 16.6955 117.091 16.6955C117.117 16.6197 117.125 16.5535 117.16 16.5056C117.403 16.1679 117.655 15.835 117.897 15.4964C117.983 15.3746 118.088 15.3141 118.238 15.3237C118.327 15.3295 118.419 15.3237 118.508 15.3237C123.909 15.3237 129.308 15.3237 134.708 15.3237C134.865 15.3247 135.021 15.3247 135.226 15.3247Z" fill="#383838"/>
<path d="M118.914 14.1859C118.959 14.0938 118.976 14.0411 119.006 13.9989C119.251 13.6622 119.503 13.3293 119.744 12.9897C119.838 12.8573 119.95 12.7911 120.112 12.7988C120.202 12.8026 120.293 12.7979 120.382 12.7979C125.152 12.7979 129.921 12.7979 134.691 12.7979C134.858 12.7979 135.024 12.7979 135.23 12.7979C135.274 13.2871 135.261 13.7255 135.236 14.1859C129.785 14.1859 124.377 14.1859 118.914 14.1859Z" fill="#383838"/>
</g>
<defs>
<clipPath id="clip0_353_422">
<rect width="135.224" height="19.1154" fill="white" transform="translate(0.0356445 0.115234)"/>
</clipPath>
</defs>
</svg>
